<svg width="214" height="320" viewBox="0 0 214 320" fill="none" xmlns="http://www.w3.org/2000/svg">
<g clip-path="url(#clip0_30_1518)">
<path d="M53.07 106.14C82.3798 106.14 106.14 82.3798 106.14 53.07C106.14 23.7602 82.3798 0 53.07 0C23.7602 0 0 23.7602 0 53.07C0 82.3798 23.7602 106.14 53.07 106.14Z" fill="#FF7300"/>
<path d="M159.99 106.14C189.3 106.14 213.06 82.3798 213.06 53.07C213.06 23.7602 189.3 0 159.99 0C130.68 0 106.92 23.7602 106.92 53.07C106.92 82.3798 130.68 106.14 159.99 106.14Z" fill="#FF7300"/>
<path d="M53.07 213.01C82.3798 213.01 106.14 189.25 106.14 159.94C106.14 130.63 82.3798 106.87 53.07 106.87C23.7602 106.87 0 130.63 0 159.94C0 189.25 23.7602 213.01 53.07 213.01Z" fill="#FF7300"/>
<path d="M159.99 213.01C189.3 213.01 213.06 189.25 213.06 159.94C213.06 130.63 189.3 106.87 159.99 106.87C130.68 106.87 106.92 130.63 106.92 159.94C106.92 189.25 130.68 213.01 159.99 213.01Z" fill="#FF7300"/>
<path d="M53.07 319.88C82.3798 319.88 106.14 296.12 106.14 266.81C106.14 237.5 82.3798 213.74 53.07 213.74C23.7602 213.74 0 237.5 0 266.81C0 296.12 23.7602 319.88 53.07 319.88Z" fill="#FF7300"/>
<path d="M159.99 319.88C189.3 319.88 213.06 296.12 213.06 266.81C213.06 237.5 189.3 213.74 159.99 213.74C130.68 213.74 106.92 237.5 106.92 266.81C106.92 296.12 130.68 319.88 159.99 319.88Z" fill="#FF7300"/>
</g>
<defs>
<clipPath id="clip0_30_1518">
<rect width="213.07" height="319.88" fill="white"/>
</clipPath>
</defs>
</svg>
