<svg width="393" height="395" viewBox="0 0 393 395" fill="none" xmlns="http://www.w3.org/2000/svg">
<g clip-path="url(#clip0_30_1232)">
<path d="M217.51 234.32C219.88 232.47 221.18 230 221.5 227.04C221.81 224.14 220.75 221.6 218.78 218.84C224.4 222.45 229.29 222.3 233.08 218.74C236.53 215.5 237.32 210.27 234.95 206.14C233.45 203.53 231.2 201.92 228.29 201.19C225.4 200.47 222.75 201.25 219.77 202.81C222.74 198.05 222.28 193.81 219.68 189.65C220.17 189.9 220.67 190.14 221.15 190.4C226.37 193.2 232.86 191.02 235.26 185.66C237.67 180.29 234.98 173.94 229.45 171.95C223.88 169.95 217.88 173.07 216.25 178.8C215.31 182.08 216.25 185.01 217.85 187.83C213.87 185.32 209.75 184.8 205.11 187.42C207.71 182.55 207.09 178.35 204.26 174.37C204.8 174.65 205.36 174.9 205.88 175.22C209.64 177.48 214.31 177.12 217.66 174.31C220.95 171.54 222.09 166.85 220.45 162.83C218.78 158.73 214.74 156.27 210.24 156.6C206.05 156.91 202.48 159.98 201.39 164.18C200.47 167.72 201.57 170.76 203.65 173.56C201.75 172.74 199.92 171.62 197.94 171.15C194.69 170.38 191.78 171.62 189.13 173.5C189.44 172.91 189.73 172.3 190.07 171.72C192.62 167.35 191.56 161.78 187.59 158.7C183.53 155.55 177.8 155.92 174.22 159.55C170.64 163.18 170.35 168.92 173.54 172.93C176.66 176.85 182.25 177.83 186.59 175.24C187.22 174.86 187.88 174.53 188.52 174.18C185.31 178.15 184.83 182.44 187.37 187.4C182.74 184.82 178.62 185.25 174.66 187.89C174.93 187.34 175.18 186.79 175.46 186.25C178.21 181.02 175.97 174.56 170.59 172.21C165.26 169.88 159.05 172.49 157.01 177.93C154.94 183.46 157.98 189.52 163.66 191.21C166.99 192.2 169.98 191.31 172.85 189.63C172.21 191.09 171.43 192.51 170.97 194.03C170.07 197.03 171.02 199.83 172.54 202.64C166.13 199.94 161.38 200.83 158.2 205.18C155.43 208.97 155.58 214.12 158.56 217.76C162.08 222.06 166.65 222.51 173.37 219.21C170.12 225.11 170.28 229.52 173.87 233.28C177.02 236.58 181.9 237.45 185.99 235.41C188.68 234.07 190.44 231.91 191.35 229.06C192.27 226.18 191.65 223.41 190.25 220.46C194.39 222.69 198.18 222.63 202.02 220.62C199.92 227.32 200.93 231.69 205.19 234.64C208.96 237.25 213.88 237.13 217.5 234.32H217.51ZM174.41 218.17C177.32 214.04 177.66 209.83 174.83 205C178.83 207.38 182.54 207.74 186.73 205.72C184.85 209.81 184.95 213.39 187.07 217.3C182.48 214.92 178.37 215.3 174.41 218.17ZM201.76 201.61C198.03 200.02 194.59 199.85 190.82 201.7C192.55 197.83 192.59 194.27 190.29 190.3C194.44 192.5 198.1 192.52 202.13 190.36C200.14 194.14 199.85 197.68 201.77 201.61H201.76ZM205.5 217.28C207.56 213.39 207.68 209.78 205.85 205.8C209.91 207.61 213.63 207.52 217.68 204.92C214.94 209.76 215.12 213.97 218.11 218.11C214.18 215.35 210.1 214.88 205.5 217.28Z" fill="#372721"/>
<path d="M196.26 230.92C190.69 230.92 186.23 235.35 186.2 240.9C186.17 246.56 190.63 251.06 196.27 251.05C201.84 251.05 206.3 246.62 206.33 241.07C206.36 235.41 201.9 230.91 196.26 230.92Z" fill="#372721"/>
<path d="M230.98 196.42C231.03 201.81 235.42 206.21 240.81 206.28C246.22 206.35 250.78 201.84 250.81 196.4C250.84 190.97 246.32 186.44 240.88 186.45C235.44 186.45 230.93 191.01 230.98 196.42Z" fill="#372721"/>
<path d="M151.57 206.25C156.95 206.31 161.4 201.97 161.53 196.54C161.66 191.11 157.21 186.55 151.72 186.49C146.34 186.43 141.89 190.77 141.76 196.2C141.63 201.63 146.08 206.19 151.57 206.25Z" fill="#372721"/>
<path d="M166.33 250.74C171.83 250.82 176.2 246.59 176.26 241.13C176.32 235.64 172.07 231.28 166.61 231.24C161.12 231.2 156.79 235.47 156.77 240.94C156.75 246.35 160.96 250.65 166.33 250.73V250.74Z" fill="#372721"/>
<path d="M225.87 250.74C231.36 250.8 235.72 246.56 235.77 241.1C235.81 235.61 231.55 231.27 226.08 231.25C220.67 231.23 216.36 235.42 216.28 240.8C216.2 246.3 220.42 250.68 225.87 250.74Z" fill="#372721"/>
<path d="M186.58 151.63C186.54 157.08 190.86 161.44 196.3 161.43C201.65 161.42 205.95 157.11 205.96 151.76C205.96 146.4 201.68 142.08 196.33 142.06C190.96 142.04 186.62 146.3 186.58 151.64V151.63Z" fill="#372721"/>
<path d="M151.48 235.81C156.97 235.87 161.34 231.59 161.35 226.14C161.36 220.75 157.09 216.44 151.72 216.41C146.32 216.38 141.99 220.63 141.94 225.99C141.9 231.39 146.13 235.75 151.47 235.81H151.48Z" fill="#372721"/>
<path d="M250.6 226.25C250.65 220.84 246.43 216.48 241.08 216.41C235.59 216.34 231.21 220.62 231.19 226.07C231.17 231.46 235.44 235.78 240.8 235.82C246.2 235.85 250.54 231.61 250.59 226.26L250.6 226.25Z" fill="#372721"/>
<path d="M220.76 255.85C220.75 250.63 216.4 246.28 211.18 246.26C205.97 246.24 201.59 250.56 201.54 255.79C201.49 260.99 205.79 265.39 211.03 265.48C216.3 265.57 220.77 261.14 220.76 255.86V255.85Z" fill="#372721"/>
<path d="M190.99 255.94C191.05 250.74 186.72 246.33 181.48 246.27C176.28 246.21 171.87 250.54 171.81 255.78C171.75 260.98 176.08 265.39 181.32 265.45C186.52 265.51 190.93 261.18 190.99 255.94Z" fill="#372721"/>
<path d="M142.13 166.5C142.04 171.73 146.36 176.11 151.62 176.13C156.8 176.15 161.07 171.94 161.15 166.73C161.24 161.5 156.92 157.12 151.66 157.1C146.48 157.08 142.21 161.29 142.13 166.5Z" fill="#372721"/>
<path d="M250.41 166.65C250.44 161.4 246.08 157.05 240.84 157.1C235.64 157.15 231.41 161.38 231.38 166.58C231.35 171.83 235.71 176.18 240.95 176.13C246.15 176.08 250.38 171.85 250.41 166.65Z" fill="#372721"/>
<path d="M216.58 151.76C216.6 157.01 220.8 161.2 226.05 161.18C231.3 161.16 235.49 156.96 235.47 151.71C235.45 146.46 231.25 142.27 226 142.29C220.75 142.31 216.56 146.51 216.58 151.76Z" fill="#372721"/>
<path d="M157.07 151.75C157.07 157 161.27 161.19 166.52 161.19C171.77 161.19 175.96 156.99 175.96 151.74C175.96 146.49 171.76 142.3 166.51 142.3C161.26 142.3 157.07 146.5 157.07 151.75Z" fill="#372721"/>
<path d="M127.39 211.11C127.33 216.39 131.43 220.58 136.69 220.62C141.97 220.65 146.14 216.54 146.15 211.27C146.16 206 142.03 201.85 136.76 201.86C131.56 201.86 127.45 205.93 127.39 211.12V211.11Z" fill="#372721"/>
<path d="M265.15 211.3C265.18 206.02 261.06 201.86 255.79 201.85C250.59 201.85 246.46 205.9 246.39 211.07C246.32 216.36 250.4 220.56 255.66 220.61C260.94 220.66 265.12 216.56 265.15 211.29V211.3Z" fill="#372721"/>
<path d="M265.08 181.37C265.04 176.22 260.84 172.13 255.65 172.18C250.5 172.22 246.41 176.42 246.46 181.61C246.5 186.76 250.7 190.85 255.89 190.8C261.04 190.76 265.13 186.56 265.08 181.37Z" fill="#372721"/>
<path d="M136.78 172.18C131.61 172.18 127.47 176.31 127.46 181.48C127.46 186.65 131.59 190.79 136.76 190.8C141.93 190.8 146.07 186.67 146.08 181.5C146.08 176.33 141.95 172.19 136.78 172.18Z" fill="#372721"/>
<path d="M196.1 279.93C201.08 280.07 205.37 275.92 205.47 270.86C205.57 265.87 201.4 261.6 196.36 261.54C191.35 261.47 187.11 265.66 187.08 270.7C187.05 275.65 191.1 279.79 196.1 279.93Z" fill="#372721"/>
<path d="M211.21 127.63C206.2 127.58 201.96 131.76 201.92 136.8C201.87 141.81 206.05 146.04 211.09 146.09C216.1 146.13 220.33 141.96 220.38 136.92C220.42 131.91 216.25 127.67 211.21 127.63Z" fill="#372721"/>
<path d="M181.57 127.66C176.58 127.52 172.29 131.68 172.19 136.74C172.09 141.74 176.26 146.01 181.31 146.08C186.32 146.14 190.57 141.95 190.6 136.91C190.63 131.96 186.57 127.8 181.57 127.67V127.66Z" fill="#372721"/>
<path d="M250.01 255.85C250 250.84 245.94 246.77 240.92 246.75C235.92 246.73 231.83 250.77 231.77 255.79C231.72 260.85 235.89 265.03 240.95 264.98C245.97 264.93 250.02 260.85 250 255.84L250.01 255.85Z" fill="#372721"/>
<path d="M151.64 264.97C156.67 264.97 160.74 260.91 160.75 255.87C160.75 250.84 156.69 246.77 151.65 246.76C146.62 246.76 142.55 250.82 142.54 255.86C142.54 260.89 146.6 264.96 151.64 264.97Z" fill="#372721"/>
<path d="M264.82 241C264.82 235.93 260.8 231.92 255.73 231.94C250.73 231.96 246.77 235.89 246.72 240.89C246.67 245.96 250.65 250.01 255.72 250.04C260.79 250.07 264.82 246.07 264.82 241Z" fill="#372721"/>
<path d="M136.67 250.04C141.74 250.09 145.79 246.11 145.82 241.04C145.85 235.97 141.85 231.94 136.78 231.94C131.71 231.94 127.7 235.96 127.72 241.03C127.74 246.03 131.67 249.99 136.67 250.04Z" fill="#372721"/>
<path d="M225.9 279.68C230.9 279.73 234.94 275.79 234.97 270.82C235 265.82 231.04 261.81 226.06 261.8C221.15 261.79 217.15 265.69 217.09 270.57C217.02 275.58 220.95 279.64 225.9 279.68Z" fill="#372721"/>
<path d="M166.44 279.68C171.44 279.71 175.45 275.75 175.46 270.77C175.47 265.78 171.49 261.79 166.5 261.8C161.59 261.8 157.62 265.73 157.57 270.62C157.52 275.62 161.47 279.66 166.43 279.68H166.44Z" fill="#372721"/>
<path d="M270.64 187.42C265.73 187.42 261.75 191.34 261.7 196.23C261.65 201.23 265.59 205.27 270.55 205.31C275.55 205.34 279.56 201.39 279.58 196.41C279.6 191.42 275.62 187.43 270.63 187.43L270.64 187.42Z" fill="#372721"/>
<path d="M121.92 205.29C126.87 205.28 130.86 201.25 130.82 196.29C130.79 191.35 126.73 187.38 121.77 187.43C116.91 187.48 112.97 191.47 112.96 196.34C112.96 201.29 116.96 205.3 121.92 205.29Z" fill="#372721"/>
<path d="M255.78 142.88C251.02 142.88 247.02 146.8 246.91 151.59C246.81 156.4 250.82 160.52 255.67 160.6C260.49 160.67 264.59 156.64 264.63 151.79C264.67 146.96 260.62 142.88 255.78 142.88Z" fill="#372721"/>
<path d="M136.75 142.88C131.98 142.89 127.99 146.83 127.91 151.62C127.82 156.44 131.84 160.55 136.69 160.6C141.52 160.65 145.6 156.62 145.63 151.77C145.65 146.94 141.58 142.87 136.75 142.88Z" fill="#372721"/>
<path d="M121.81 234.97C126.63 235.03 130.73 231 130.76 226.15C130.79 221.39 126.88 217.38 122.08 217.25C117.27 217.12 113.14 221.11 113.04 225.97C112.94 230.78 116.96 234.9 121.81 234.96V234.97Z" fill="#372721"/>
<path d="M279.51 226.05C279.46 221.2 275.36 217.18 270.54 217.26C265.75 217.34 261.81 221.32 261.79 226.09C261.77 230.92 265.84 234.99 270.67 234.98C275.51 234.97 279.56 230.88 279.51 226.06V226.05Z" fill="#372721"/>
<path d="M241.2 128.04C236.43 127.8 232.24 131.75 232.07 136.65C231.91 141.38 235.74 145.44 240.59 145.68C245.36 145.92 249.55 141.97 249.72 137.07C249.88 132.34 246.05 128.28 241.2 128.04Z" fill="#372721"/>
<path d="M151.63 128.06C146.84 128.07 142.87 132.04 142.85 136.83C142.82 141.61 146.77 145.6 151.57 145.66C156.4 145.72 160.5 141.64 160.45 136.8C160.4 132 156.42 128.05 151.64 128.06H151.63Z" fill="#372721"/>
<path d="M196 113.26C191.13 113.44 187.37 117.44 187.55 122.25C187.73 127.12 191.73 130.88 196.54 130.7C201.41 130.52 205.17 126.52 204.99 121.71C204.81 116.84 200.81 113.08 196 113.26Z" fill="#372721"/>
<path d="M113.26 166.54C113.23 171.43 117.04 175.26 121.92 175.25C126.72 175.25 130.51 171.48 130.54 166.69C130.57 161.8 126.76 157.97 121.88 157.98C117.08 157.98 113.29 161.75 113.26 166.54Z" fill="#372721"/>
<path d="M181.29 294.2C186.1 294.24 189.94 290.49 189.98 285.72C190.02 280.91 186.27 277.07 181.5 277.03C176.69 276.99 172.85 280.74 172.81 285.51C172.77 290.32 176.52 294.16 181.29 294.2Z" fill="#372721"/>
<path d="M279.29 166.56C279.27 161.76 275.49 157.99 270.69 157.98C265.81 157.96 261.99 161.79 262.01 166.67C262.03 171.47 265.81 175.24 270.61 175.25C275.49 175.27 279.31 171.44 279.29 166.56Z" fill="#372721"/>
<path d="M211.06 294.2C215.87 294.23 219.7 290.47 219.73 285.7C219.76 280.89 216 277.06 211.23 277.03C206.42 277 202.59 280.76 202.56 285.53C202.53 290.34 206.29 294.17 211.06 294.2Z" fill="#372721"/>
<path d="M166.7 113.44C161.92 113.36 158 117.15 157.96 121.9C157.92 126.6 161.66 130.46 166.33 130.54C171.11 130.62 175.03 126.83 175.07 122.08C175.11 117.38 171.37 113.52 166.7 113.44Z" fill="#372721"/>
<path d="M226.13 113.44C221.35 113.39 217.48 117.22 217.47 121.98C217.47 126.67 221.24 130.5 225.92 130.55C230.7 130.6 234.57 126.77 234.58 122.01C234.58 117.32 230.81 113.49 226.13 113.44Z" fill="#372721"/>
<path d="M285.75 202.77C281.22 202.6 277.29 206.29 277.05 210.92C276.81 215.5 280.61 219.54 285.29 219.71C289.82 219.88 293.75 216.19 293.99 211.56C294.23 206.98 290.43 202.94 285.75 202.77Z" fill="#372721"/>
<path d="M255.78 279.18C260.36 279.18 264.18 275.36 264.21 270.78C264.24 266.21 260.45 262.37 255.85 262.3C251.22 262.23 247.28 266.16 247.33 270.8C247.37 275.39 251.2 279.19 255.78 279.18Z" fill="#372721"/>
<path d="M106.93 219.68C111.56 219.75 115.5 215.83 115.46 211.19C115.42 206.6 111.6 202.8 107.02 202.8C102.44 202.8 98.6199 206.6 98.5799 211.19C98.5399 215.76 102.33 219.6 106.93 219.67V219.68Z" fill="#372721"/>
<path d="M136.77 279.13C141.38 279.13 145.16 275.34 145.16 270.74C145.16 266.13 141.37 262.35 136.77 262.35C132.16 262.35 128.38 266.14 128.38 270.74C128.38 275.35 132.17 279.13 136.77 279.13Z" fill="#372721"/>
<path d="M106.94 189.82C111.59 189.87 115.33 186.18 115.35 181.52C115.37 176.86 111.66 173.15 107.01 173.16C102.35 173.16 98.66 176.9 98.7 181.55C98.74 186.14 102.36 189.77 106.95 189.82H106.94Z" fill="#372721"/>
<path d="M293.85 181.6C293.91 176.95 290.24 173.2 285.59 173.16C280.94 173.12 277.21 176.81 277.2 181.47C277.19 186.05 280.79 189.73 285.37 189.82C290.02 189.91 293.79 186.26 293.86 181.6H293.85Z" fill="#372721"/>
<path d="M121.85 264.19C126.5 264.22 130.23 260.52 130.23 255.86C130.23 251.2 126.51 247.5 121.86 247.53C117.27 247.56 113.63 251.18 113.58 255.76C113.52 260.41 117.2 264.15 121.86 264.18L121.85 264.19Z" fill="#372721"/>
<path d="M270.29 264.2C274.92 264.42 278.79 260.84 278.98 256.18C279.17 251.55 275.57 247.69 270.91 247.53C266.28 247.37 262.44 250.99 262.31 255.65C262.18 260.21 265.7 263.99 270.3 264.2H270.29Z" fill="#372721"/>
<path d="M151.77 293.84C156.37 293.79 159.93 290.1 159.87 285.45C159.81 280.94 156.17 277.39 151.62 277.4C147.01 277.41 143.4 281.06 143.43 285.7C143.46 290.31 147.13 293.89 151.77 293.85V293.84Z" fill="#372721"/>
<path d="M240.78 293.84C245.42 293.88 249.09 290.29 249.12 285.69C249.15 281.06 245.54 277.41 240.92 277.4C236.37 277.4 232.74 280.95 232.68 285.46C232.62 290.11 236.19 293.8 240.79 293.84H240.78Z" fill="#372721"/>
<path d="M211.27 98.9299C206.69 98.8699 202.96 102.56 202.97 107.13C202.97 111.63 206.63 115.28 211.12 115.29C215.62 115.3 219.3 111.67 219.33 107.18C219.36 102.68 215.75 98.9799 211.27 98.9199V98.9299Z" fill="#372721"/>
<path d="M181.39 98.9302C176.89 98.9302 173.24 102.58 173.22 107.07C173.2 111.65 176.92 115.33 181.5 115.29C185.98 115.24 189.6 111.55 189.58 107.05C189.55 102.56 185.89 98.9202 181.39 98.9302Z" fill="#372721"/>
<path d="M106.95 249.15C111.42 249.19 115.14 245.52 115.18 241.06C115.22 236.59 111.55 232.87 107.09 232.83C102.62 232.79 98.8999 236.46 98.8599 240.92C98.8199 245.39 102.49 249.11 106.95 249.15Z" fill="#372721"/>
<path d="M285.6 249.15C290.07 249.11 293.73 245.38 293.69 240.91C293.65 236.44 289.92 232.78 285.45 232.82C280.98 232.86 277.32 236.59 277.36 241.06C277.4 245.53 281.13 249.19 285.6 249.15Z" fill="#372721"/>
<path d="M196.31 308.63C200.76 308.6 204.46 304.85 204.41 300.41C204.35 296.02 200.71 292.39 196.32 292.36C191.87 292.33 188.13 296.04 188.13 300.49C188.13 304.94 191.86 308.66 196.31 308.63Z" fill="#372721"/>
<path d="M270.72 128.75C266.37 128.7 262.66 132.3 262.54 136.69C262.42 141.1 266.12 144.91 270.58 144.96C274.93 145.01 278.64 141.41 278.76 137.02C278.88 132.61 275.18 128.8 270.72 128.75Z" fill="#372721"/>
<path d="M121.84 128.75C117.47 128.79 113.81 132.44 113.78 136.82C113.75 141.25 117.51 145.01 121.94 144.97C126.31 144.93 129.97 141.28 130 136.9C130.03 132.47 126.27 128.71 121.84 128.75Z" fill="#372721"/>
<path d="M136.78 113.92C132.41 113.92 128.74 117.55 128.7 121.94C128.66 126.38 132.43 130.13 136.86 130.06C141.25 129.99 144.87 126.32 144.84 121.95C144.81 117.57 141.15 113.92 136.78 113.92Z" fill="#372721"/>
<path d="M255.86 113.92C251.51 113.85 247.81 117.45 247.7 121.85C247.59 126.26 251.33 130.06 255.77 130.06C260.14 130.06 263.8 126.41 263.84 122.03C263.87 117.66 260.26 113.99 255.86 113.92Z" fill="#372721"/>
<path d="M285.56 143.83C281.14 143.81 277.65 147.25 277.62 151.66C277.58 156.16 281.09 159.68 285.59 159.65C290 159.62 293.45 156.15 293.44 151.73C293.44 147.31 289.98 143.85 285.57 143.83H285.56Z" fill="#372721"/>
<path d="M107.13 143.83C102.7 143.78 99.18 147.18 99.11 151.58C99.03 156.08 102.51 159.64 107 159.65C111.42 159.66 114.9 156.22 114.93 151.81C114.96 147.39 111.54 143.89 107.14 143.83H107.13Z" fill="#372721"/>
<path d="M166.43 308.45C170.9 308.5 174.48 304.97 174.47 300.49C174.47 296.08 171.01 292.59 166.6 292.54C162.13 292.49 158.55 296.02 158.56 300.5C158.56 304.9 162.02 308.4 166.43 308.45Z" fill="#372721"/>
<path d="M226.06 308.45C230.54 308.43 234.05 304.84 233.98 300.36C233.91 295.95 230.39 292.51 225.99 292.53C221.58 292.55 218.1 296.02 218.07 300.43C218.04 304.91 221.59 308.46 226.06 308.44V308.45Z" fill="#372721"/>
<path d="M300.32 204.24C304.75 204.27 308.24 200.85 308.27 196.44C308.3 192.01 304.88 188.52 300.47 188.49C296.04 188.46 292.55 191.88 292.52 196.29C292.49 200.72 295.91 204.21 300.32 204.24Z" fill="#372721"/>
<path d="M300.37 218.31C296.07 218.32 292.58 221.84 292.59 226.14C292.6 230.44 296.12 233.93 300.42 233.92C304.72 233.91 308.21 230.39 308.2 226.09C308.19 221.79 304.67 218.3 300.37 218.31Z" fill="#372721"/>
<path d="M151.54 114.94C155.94 114.98 159.46 111.51 159.47 107.13C159.47 102.82 156.04 99.3401 151.75 99.3001C147.35 99.2601 143.83 102.73 143.82 107.11C143.82 111.42 147.25 114.9 151.54 114.94Z" fill="#372721"/>
<path d="M240.83 99.2902C236.53 99.3202 233.08 102.79 233.07 107.09C233.07 111.47 236.57 114.97 240.96 114.94C245.26 114.91 248.71 111.44 248.72 107.14C248.72 102.76 245.22 99.2602 240.83 99.2902Z" fill="#372721"/>
<path d="M92.1 188.52C87.78 188.54 84.34 191.97 84.3 196.28C84.27 200.7 87.71 204.2 92.1 204.22C96.51 204.24 99.99 200.77 99.99 196.37C99.99 191.97 96.5 188.51 92.1 188.53V188.52Z" fill="#372721"/>
<path d="M92.0899 233.92C96.3899 233.94 99.9199 230.46 99.9399 226.17C99.9599 221.87 96.4799 218.34 92.1899 218.32C87.8899 218.3 84.3599 221.78 84.3399 226.07C84.3199 230.37 87.7999 233.9 92.0899 233.92Z" fill="#372721"/>
<path d="M92.18 174.29C96.39 174.26 99.89 170.72 99.82 166.53C99.76 162.31 96.19 158.84 92.02 158.93C87.86 159.03 84.48 162.45 84.47 166.59C84.46 170.79 87.98 174.31 92.18 174.28V174.29Z" fill="#372721"/>
<path d="M300.38 158.94C296.24 158.95 292.81 162.33 292.72 166.5C292.63 170.68 296.1 174.24 300.32 174.3C304.51 174.36 308.05 170.86 308.07 166.65C308.09 162.45 304.57 158.93 300.37 158.94H300.38Z" fill="#372721"/>
<path d="M196.26 99.9099C200.46 99.9099 203.98 96.3898 203.95 92.1998C203.92 87.9898 200.38 84.4998 196.19 84.5598C192.03 84.6198 188.64 88.0298 188.59 92.1798C188.55 96.3698 192.05 99.9098 196.26 99.9198V99.9099Z" fill="#372721"/>
<path d="M270.66 278C266.42 278 262.98 281.46 263.03 285.7C263.08 289.88 266.46 293.23 270.64 293.23C274.88 293.23 278.32 289.77 278.27 285.53C278.22 281.35 274.84 278 270.66 278Z" fill="#372721"/>
<path d="M106.93 278.3C111.22 278.35 114.6 274.98 114.58 270.69C114.55 266.48 111.23 263.18 107.02 263.18C102.81 263.18 99.4901 266.48 99.4701 270.69C99.4501 274.9 102.73 278.24 106.94 278.29L106.93 278.3Z" fill="#372721"/>
<path d="M285.63 263.18C281.41 263.12 278.04 266.38 277.96 270.58C277.88 274.87 281.21 278.28 285.5 278.3C289.71 278.31 293.04 275.02 293.08 270.81C293.11 266.6 289.84 263.24 285.64 263.19L285.63 263.18Z" fill="#372721"/>
<path d="M121.73 293.21C125.91 293.31 129.33 290.07 129.48 285.87C129.63 281.62 126.32 278.12 122.06 278.02C117.88 277.92 114.46 281.16 114.31 285.36C114.16 289.61 117.47 293.11 121.73 293.21Z" fill="#372721"/>
<path d="M136.76 293.03C132.62 293.03 129.33 296.32 129.31 300.45C129.3 304.67 132.64 307.99 136.87 307.94C140.99 307.9 144.25 304.57 144.22 300.42C144.2 296.29 140.89 293.01 136.75 293.02L136.76 293.03Z" fill="#372721"/>
<path d="M166.5 99.7098C170.73 99.7098 174.03 96.3998 174 92.1698C173.97 88.0298 170.69 84.7698 166.55 84.7598C162.32 84.7598 159.02 88.0698 159.05 92.2998C159.08 96.4398 162.36 99.6998 166.5 99.7098Z" fill="#372721"/>
<path d="M211.3 307.88C207.06 307.82 203.71 311.06 203.66 315.26C203.62 319.49 206.88 322.83 211.08 322.85C215.3 322.87 218.62 319.59 218.62 315.38C218.62 311.24 215.4 307.94 211.29 307.88H211.3Z" fill="#372721"/>
<path d="M225.91 99.72C230.07 99.76 233.41 96.59 233.51 92.49C233.61 88.24 230.41 84.83 226.24 84.75C222 84.67 218.61 87.89 218.55 92.07C218.49 96.31 221.73 99.67 225.92 99.71L225.91 99.72Z" fill="#372721"/>
<path d="M181.56 307.88C177.32 307.82 173.96 311.06 173.92 315.25C173.88 319.41 177.05 322.75 181.15 322.85C185.4 322.95 188.81 319.75 188.89 315.58C188.97 311.34 185.75 307.95 181.57 307.89L181.56 307.88Z" fill="#372721"/>
<path d="M255.95 293.03C251.71 292.96 248.33 296.24 248.31 300.45C248.29 304.6 251.56 307.91 255.68 307.95C259.83 307.98 263.17 304.74 263.22 300.62C263.27 296.46 260.05 293.1 255.94 293.03H255.95Z" fill="#372721"/>
<path d="M300.3 248.45C296.3 248.5 293 251.82 292.98 255.82C292.95 259.89 296.32 263.28 300.4 263.28C304.47 263.28 307.84 259.89 307.82 255.82C307.79 251.75 304.38 248.4 300.31 248.45H300.3Z" fill="#372721"/>
<path d="M92.1 263.27C96.16 263.3 99.56 259.92 99.55 255.86C99.55 251.8 96.15 248.42 92.09 248.45C88.03 248.48 84.67 251.9 84.73 255.95C84.78 259.94 88.11 263.24 92.1 263.27Z" fill="#372721"/>
<path d="M77.1699 218.55C81.1499 218.62 84.5399 215.3 84.5699 211.29C84.6099 207.3 81.2699 203.93 77.2599 203.93C73.3299 203.93 70.0599 207.14 69.9499 211.1C69.8399 215.07 73.1399 218.48 77.1599 218.55H77.1699Z" fill="#372721"/>
<path d="M315.25 203.93C311.32 203.94 308.05 207.16 307.96 211.12C307.87 215.09 311.18 218.49 315.19 218.55C319.17 218.61 322.55 215.28 322.57 211.27C322.59 207.28 319.24 203.92 315.24 203.93H315.25Z" fill="#372721"/>
<path d="M285.39 129.23C289.42 129.31 292.74 126.07 292.76 122.02C292.78 118.05 289.62 114.82 285.64 114.74C281.61 114.66 278.29 117.9 278.27 121.95C278.25 125.92 281.4 129.15 285.39 129.23Z" fill="#372721"/>
<path d="M107.11 129.23C111.09 129.17 114.26 125.96 114.27 121.99C114.27 117.95 110.97 114.68 106.94 114.74C102.96 114.8 99.79 118.01 99.78 121.98C99.78 126.02 103.08 129.29 107.11 129.23Z" fill="#372721"/>
<path d="M315.26 188.71C319.33 188.71 322.57 185.43 322.49 181.36C322.41 177.35 319.19 174.22 315.18 174.27C311.17 174.32 308.02 177.53 308.04 181.53C308.06 185.54 311.25 188.71 315.25 188.72L315.26 188.71Z" fill="#372721"/>
<path d="M151.62 308.18C147.59 308.19 144.45 311.36 144.46 315.39C144.47 319.42 147.64 322.56 151.67 322.55C155.7 322.54 158.84 319.37 158.83 315.34C158.82 311.31 155.65 308.17 151.62 308.18Z" fill="#372721"/>
<path d="M77.34 188.67C81.36 188.63 84.49 185.45 84.45 181.41C84.41 177.39 81.22 174.26 77.19 174.3C73.17 174.34 70.04 177.52 70.08 181.56C70.12 185.58 73.3 188.71 77.34 188.67Z" fill="#372721"/>
<path d="M270.44 114.29C274.48 114.4 277.73 111.33 277.83 107.32C277.94 103.28 274.87 100.03 270.86 99.9301C266.82 99.8201 263.57 102.89 263.47 106.9C263.36 110.94 266.43 114.19 270.44 114.29Z" fill="#372721"/>
<path d="M121.98 114.3C126 114.26 129.12 111.07 129.08 107.03C129.04 103.01 125.85 99.8901 121.81 99.9301C117.79 99.9701 114.67 103.16 114.71 107.2C114.75 111.22 117.94 114.34 121.98 114.3Z" fill="#372721"/>
<path d="M241.1 308.18C237.06 308.08 233.82 311.15 233.72 315.16C233.62 319.2 236.69 322.44 240.7 322.54C244.74 322.64 247.98 319.57 248.08 315.56C248.18 311.52 245.11 308.28 241.1 308.18Z" fill="#372721"/>
<path d="M92.0701 143.97C96.1001 144 99.2601 140.87 99.2501 136.84C99.2501 132.9 96.1501 129.78 92.2201 129.75C88.1901 129.72 85.0301 132.85 85.0401 136.88C85.0401 140.82 88.1401 143.94 92.0701 143.97Z" fill="#372721"/>
<path d="M300.47 143.97C304.4 143.94 307.49 140.82 307.5 136.88C307.5 132.86 304.35 129.73 300.31 129.76C296.38 129.79 293.29 132.91 293.28 136.85C293.28 140.87 296.43 144 300.47 143.97Z" fill="#372721"/>
<path d="M77.33 233.93C73.42 233.9 70.22 237.07 70.21 240.98C70.21 244.88 73.4 248.07 77.3 248.05C81.2 248.03 84.36 244.82 84.32 240.91C84.28 237.09 81.14 233.96 77.32 233.93H77.33Z" fill="#372721"/>
<path d="M136.62 99.2698C140.48 99.3598 143.77 96.1698 143.81 92.2898C143.85 88.4898 140.73 85.2798 136.93 85.1898C133.07 85.0998 129.78 88.2898 129.74 92.1698C129.7 95.9698 132.82 99.1798 136.62 99.2698Z" fill="#372721"/>
<path d="M255.75 99.2901C259.64 99.3001 262.84 96.1001 262.82 92.2101C262.81 88.3201 259.58 85.1401 255.69 85.1801C251.88 85.2201 248.74 88.3601 248.71 92.1701C248.68 96.0601 251.86 99.2801 255.74 99.2901H255.75Z" fill="#372721"/>
<path d="M315.25 233.93C311.42 233.94 308.27 237.05 308.22 240.87C308.16 244.78 311.31 248.01 315.21 248.04C319.12 248.07 322.33 244.91 322.34 241C322.35 237.1 319.16 233.91 315.26 233.92L315.25 233.93Z" fill="#372721"/>
<path d="M181.46 84.4C185.26 84.36 188.41 81.19 188.43 77.39C188.44 73.52 185.19 70.29 181.32 70.33C177.52 70.37 174.37 73.54 174.35 77.34C174.34 81.21 177.59 84.44 181.46 84.4Z" fill="#372721"/>
<path d="M211.02 84.4C214.89 84.47 218.16 81.27 218.18 77.39C218.2 73.59 215.07 70.4 211.26 70.32C207.39 70.25 204.12 73.45 204.1 77.33C204.08 81.13 207.21 84.32 211.02 84.4Z" fill="#372721"/>
<path d="M196.23 323.27C192.5 323.3 189.38 326.39 189.3 330.13C189.22 333.9 192.4 337.16 196.21 337.2C199.99 337.24 203.22 334.04 203.23 330.24C203.23 326.45 200.01 323.24 196.23 323.26V323.27Z" fill="#372721"/>
<path d="M77.3299 158.57C81.1499 158.54 84.1399 155.49 84.1099 151.67C84.0799 147.85 81.0299 144.86 77.2099 144.89C73.3899 144.92 70.3999 147.97 70.4299 151.79C70.4599 155.61 73.5099 158.6 77.3299 158.57Z" fill="#372721"/>
<path d="M315.19 158.57C319.01 158.62 322.07 155.63 322.11 151.82C322.16 148 319.18 144.94 315.36 144.9C311.54 144.85 308.48 147.84 308.44 151.65C308.39 155.47 311.38 158.53 315.19 158.57Z" fill="#372721"/>
<path d="M226.01 323.49C222.26 323.49 219.31 326.41 219.28 330.16C219.25 334 222.21 336.99 226.04 336.99C229.79 336.99 232.74 334.07 232.77 330.32C232.8 326.48 229.84 323.49 226.01 323.49Z" fill="#372721"/>
<path d="M166.6 323.49C162.76 323.46 159.77 326.42 159.77 330.25C159.77 334 162.69 336.95 166.44 336.98C170.28 337.01 173.27 334.05 173.27 330.22C173.27 326.47 170.35 323.52 166.6 323.49Z" fill="#372721"/>
<path d="M285.68 293.77C281.91 293.7 278.87 296.61 278.8 300.33C278.73 304.1 281.64 307.14 285.36 307.21C289.13 307.28 292.17 304.37 292.24 300.65C292.31 296.88 289.4 293.84 285.68 293.77Z" fill="#372721"/>
<path d="M106.97 293.78C103.24 293.8 100.29 296.79 100.31 300.54C100.33 304.27 103.32 307.22 107.07 307.2C110.8 307.18 113.75 304.19 113.73 300.44C113.71 296.71 110.72 293.76 106.97 293.78Z" fill="#372721"/>
<path d="M330.22 189.69C326.62 189.65 323.57 192.58 323.47 196.19C323.37 199.86 326.38 202.98 330.06 203.03C333.66 203.07 336.71 200.14 336.81 196.53C336.91 192.86 333.9 189.74 330.22 189.69Z" fill="#372721"/>
<path d="M300.52 278.92C296.79 278.86 293.74 281.82 293.7 285.53C293.66 289.26 296.64 292.29 300.36 292.31C304.08 292.33 307.1 289.32 307.09 285.6C307.09 281.95 304.16 278.98 300.52 278.92Z" fill="#372721"/>
<path d="M92.0799 278.92C88.4399 278.95 85.4899 281.9 85.4499 285.54C85.4199 289.27 88.3999 292.29 92.1199 292.31C95.8399 292.32 98.8499 289.32 98.8399 285.59C98.8299 281.87 95.7999 278.88 92.0799 278.92Z" fill="#372721"/>
<path d="M62.31 189.69C58.7 189.74 55.73 192.74 55.72 196.35C55.72 200.03 58.8 203.08 62.47 203.03C66.08 202.98 69.05 199.98 69.06 196.37C69.06 192.69 65.98 189.64 62.31 189.69Z" fill="#372721"/>
<path d="M240.76 84.06C244.49 84.12 247.55 81.16 247.59 77.45C247.63 73.72 244.65 70.69 240.93 70.67C237.28 70.65 234.28 73.55 234.2 77.19C234.11 80.92 237.05 84 240.76 84.06Z" fill="#372721"/>
<path d="M151.57 84.0601C155.3 84.1001 158.33 81.1101 158.34 77.3901C158.35 73.7401 155.45 70.7501 151.81 70.6701C148.08 70.5901 145 73.5301 144.95 77.2401C144.89 80.9701 147.86 84.0201 151.57 84.0601Z" fill="#372721"/>
<path d="M270.62 308.73C267.02 308.75 263.99 311.81 264.01 315.4C264.03 319 267.09 322.03 270.68 322.01C274.28 321.99 277.31 318.93 277.29 315.34C277.27 311.74 274.21 308.71 270.62 308.73Z" fill="#372721"/>
<path d="M121.84 308.73C118.24 308.76 115.22 311.83 115.25 315.42C115.28 319.02 118.35 322.04 121.94 322.01C125.54 321.98 128.56 318.91 128.53 315.32C128.5 311.72 125.43 308.7 121.84 308.73Z" fill="#372721"/>
<path d="M330.15 219.52C326.56 219.52 323.52 222.58 323.55 226.16C323.58 229.76 326.66 232.78 330.23 232.72C333.83 232.66 336.84 229.55 336.74 225.99C336.64 222.45 333.67 219.53 330.15 219.53V219.52Z" fill="#372721"/>
<path d="M62.3101 219.52C58.7101 219.58 55.7001 222.68 55.7901 226.25C55.8801 229.79 58.8601 232.71 62.3801 232.72C65.9701 232.72 69.0201 229.67 68.9901 226.09C68.9601 222.49 65.8801 219.47 62.3101 219.53V219.52Z" fill="#372721"/>
<path d="M315.45 264.2C311.85 264.07 308.76 267.06 308.73 270.7C308.7 274.25 311.61 277.22 315.18 277.28C318.73 277.34 321.71 274.45 321.81 270.87C321.9 267.33 319.03 264.33 315.45 264.2Z" fill="#372721"/>
<path d="M77.24 264.22C73.67 264.24 70.76 267.14 70.75 270.72C70.74 274.28 73.63 277.21 77.2 277.26C80.83 277.3 83.83 274.3 83.78 270.67C83.73 267.1 80.8 264.21 77.24 264.22Z" fill="#372721"/>
<path d="M62.48 173.02C66.04 172.98 68.8 170.19 68.8 166.61C68.8 162.96 65.96 160.16 62.3 160.2C58.74 160.24 55.98 163.03 55.98 166.61C55.98 170.26 58.82 173.06 62.48 173.02Z" fill="#372721"/>
<path d="M329.98 173.02C333.65 173.1 336.52 170.32 336.56 166.69C336.59 163.11 333.87 160.28 330.32 160.2C326.65 160.12 323.78 162.9 323.74 166.53C323.71 170.11 326.43 172.94 329.98 173.02Z" fill="#372721"/>
<path d="M196.26 68.8499C199.84 68.8499 202.63 66.0699 202.63 62.4999C202.63 58.9199 199.85 56.1299 196.28 56.1299C192.7 56.1299 189.91 58.9099 189.91 62.4799C189.91 66.0599 192.69 68.8499 196.26 68.8499Z" fill="#372721"/>
<path d="M255.85 323.91C252.3 323.87 249.45 326.67 249.43 330.21C249.41 333.68 252.15 336.5 255.59 336.58C259.15 336.66 262.04 333.9 262.1 330.38C262.16 326.83 259.38 323.95 255.85 323.92V323.91Z" fill="#372721"/>
<path d="M300.3 113.43C303.82 113.48 306.71 110.63 306.71 107.11C306.71 103.67 303.92 100.84 300.49 100.8C296.97 100.75 294.08 103.6 294.08 107.12C294.08 110.56 296.87 113.39 300.3 113.43Z" fill="#372721"/>
<path d="M92.0501 113.43C95.5701 113.48 98.4601 110.63 98.4601 107.12C98.4601 103.68 95.6701 100.85 92.2401 100.81C88.7201 100.76 85.8301 103.61 85.8301 107.12C85.8301 110.63 88.6201 113.39 92.0501 113.43Z" fill="#372721"/>
<path d="M136.79 323.91C133.25 323.91 130.42 326.73 130.44 330.27C130.45 333.73 133.21 336.53 136.66 336.58C140.21 336.63 143.08 333.85 143.11 330.32C143.14 326.77 140.34 323.93 136.8 323.92L136.79 323.91Z" fill="#372721"/>
<path d="M107.02 98.5302C110.42 98.5302 113.28 95.6902 113.31 92.2902C113.34 88.8902 110.52 86.0102 107.11 85.9502C103.72 85.8902 100.81 88.6902 100.73 92.1002C100.64 95.5602 103.54 98.5302 107.02 98.5302Z" fill="#372721"/>
<path d="M285.58 98.5499C289 98.5199 291.81 95.6899 291.83 92.2699C291.85 88.7799 288.95 85.8999 285.46 85.9299C282.04 85.9599 279.23 88.7899 279.21 92.2099C279.19 95.6999 282.09 98.5799 285.58 98.5499Z" fill="#372721"/>
<path d="M225.95 68.74C229.34 68.79 232.26 65.92 232.28 62.51C232.3 59.12 229.4 56.22 226.01 56.23C222.68 56.24 219.86 59.02 219.77 62.36C219.69 65.73 222.54 68.68 225.95 68.73V68.74Z" fill="#372721"/>
<path d="M166.5 68.7402C169.89 68.7502 172.79 65.8402 172.77 62.4602C172.75 59.0602 169.83 56.1802 166.44 56.2402C163.03 56.2902 160.18 59.2402 160.26 62.6202C160.35 65.9702 163.17 68.7402 166.5 68.7502V68.7402Z" fill="#372721"/>
<path d="M315.17 128.23C318.47 128.3 321.34 125.59 321.51 122.23C321.68 118.88 318.9 115.89 315.47 115.75C312.12 115.61 309.14 118.42 309.03 121.84C308.92 125.2 311.76 128.16 315.17 128.23Z" fill="#372721"/>
<path d="M181.27 338.86C177.92 338.95 175.15 341.77 175.14 345.1C175.13 348.49 178.04 351.39 181.43 351.37C184.83 351.35 187.71 348.42 187.65 345.04C187.6 341.63 184.64 338.78 181.27 338.86Z" fill="#372721"/>
<path d="M211.16 338.86C207.84 338.85 205 341.61 204.89 344.96C204.78 348.32 207.62 351.29 211.03 351.37C214.41 351.45 217.35 348.59 217.4 345.18C217.45 341.79 214.56 338.87 211.16 338.86Z" fill="#372721"/>
<path d="M62.3999 249.66C58.9999 249.66 56.1299 252.57 56.1899 255.95C56.2499 259.29 59.0599 262.06 62.3899 262.07C65.7899 262.07 68.6599 259.16 68.5999 255.78C68.5399 252.44 65.7299 249.67 62.3999 249.66Z" fill="#372721"/>
<path d="M77.2399 128.19C80.5699 128.21 83.3899 125.47 83.4799 122.11C83.57 118.73 80.7199 115.8 77.3099 115.78C73.9799 115.76 71.1599 118.5 71.0699 121.86C70.9799 125.24 73.8299 128.17 77.2399 128.19Z" fill="#372721"/>
<path d="M330.13 249.66C326.8 249.67 324 252.45 323.94 255.79C323.89 259.18 326.77 262.08 330.16 262.07C333.49 262.06 336.29 259.28 336.35 255.94C336.4 252.56 333.52 249.65 330.13 249.66Z" fill="#372721"/>
<path d="M270.42 83.4599C273.85 83.5899 276.65 80.9699 276.75 77.5399C276.85 74.1799 274.32 71.4399 270.97 71.2599C267.54 71.0799 264.71 73.6399 264.55 77.0799C264.39 80.5099 266.98 83.3299 270.42 83.4599Z" fill="#372721"/>
<path d="M121.71 83.4201C125.17 83.5101 127.91 80.8801 127.95 77.4501C127.99 74.0701 125.42 71.3901 122.07 71.3001C118.61 71.2101 115.87 73.8401 115.83 77.2701C115.79 80.6501 118.35 83.3301 121.71 83.4201Z" fill="#372721"/>
<path d="M47.58 205.29C44.26 205.26 41.53 207.99 41.57 211.31C41.61 214.56 44.29 217.19 47.54 217.18C50.79 217.16 53.45 214.5 53.46 211.25C53.46 208 50.83 205.32 47.58 205.29Z" fill="#372721"/>
<path d="M62.4599 142.81C65.7099 142.77 68.3499 140.09 68.3399 136.84C68.3299 133.59 65.6699 130.93 62.4199 130.92C59.1699 130.91 56.4899 133.55 56.4499 136.79C56.4099 140.11 59.1399 142.84 62.4599 142.81Z" fill="#372721"/>
<path d="M330.11 142.81C333.36 142.83 336.05 140.19 336.09 136.95C336.13 133.7 333.52 130.99 330.27 130.92C326.95 130.85 324.19 133.56 324.2 136.88C324.2 140.13 326.86 142.79 330.11 142.81Z" fill="#372721"/>
<path d="M345.12 205.29C341.87 205.24 339.16 207.82 339.07 211.05C338.97 214.38 341.61 217.14 344.92 217.19C348.17 217.24 350.88 214.66 350.97 211.43C351.07 208.1 348.43 205.34 345.12 205.29Z" fill="#372721"/>
<path d="M240.93 339.19C237.71 339.17 234.99 341.85 234.97 345.08C234.95 348.3 237.63 351.02 240.86 351.04C244.08 351.06 246.8 348.38 246.82 345.15C246.84 341.93 244.16 339.21 240.93 339.19Z" fill="#372721"/>
<path d="M151.56 339.19C148.33 339.24 145.67 341.98 145.72 345.2C145.77 348.43 148.51 351.09 151.73 351.04C154.96 350.99 157.62 348.25 157.57 345.03C157.52 341.8 154.78 339.14 151.56 339.19Z" fill="#372721"/>
<path d="M345.09 187.4C348.31 187.36 350.98 184.63 350.94 181.42C350.9 178.2 348.17 175.53 344.96 175.57C341.74 175.61 339.07 178.34 339.11 181.55C339.15 184.77 341.88 187.44 345.09 187.4Z" fill="#372721"/>
<path d="M47.4499 187.38C50.6299 187.42 53.3899 184.7 53.3999 181.51C53.4099 178.32 50.6799 175.58 47.4799 175.6C44.3499 175.62 41.6999 178.24 41.6199 181.38C41.5399 184.56 44.2399 187.33 47.4399 187.38H47.4499Z" fill="#372721"/>
<path d="M255.81 68.2499C259.01 68.2299 261.58 65.5999 261.53 62.4099C261.48 59.2799 258.96 56.7699 255.83 56.7299C252.63 56.6899 250.02 59.2799 250.01 62.4799C250.01 65.6799 252.61 68.2699 255.8 68.2499H255.81Z" fill="#372721"/>
<path d="M136.73 68.2502C139.93 68.2802 142.53 65.6902 142.53 62.4902C142.53 59.2902 139.92 56.7002 136.72 56.7402C133.59 56.7702 131.06 59.2802 131.01 62.4102C130.96 65.6002 133.53 68.2302 136.73 68.2602V68.2502Z" fill="#372721"/>
<path d="M315.36 294.85C312.17 294.81 309.67 297.23 309.63 300.39C309.59 303.58 312.01 306.08 315.17 306.12C318.36 306.16 320.86 303.74 320.9 300.58C320.94 297.39 318.52 294.89 315.36 294.85Z" fill="#372721"/>
<path d="M300.35 309.68C297.19 309.7 294.73 312.16 294.71 315.32C294.69 318.56 297.2 321.07 300.44 321.05C303.6 321.03 306.06 318.57 306.08 315.41C306.1 312.17 303.59 309.66 300.35 309.68Z" fill="#372721"/>
<path d="M77.22 294.85C74.05 294.87 71.61 297.35 71.63 300.54C71.65 303.71 74.13 306.15 77.32 306.13C80.49 306.11 82.93 303.63 82.91 300.44C82.89 297.27 80.41 294.83 77.22 294.85Z" fill="#372721"/>
<path d="M92.1301 309.7C88.9501 309.7 86.4901 312.16 86.4701 315.33C86.4501 318.59 88.9801 321.08 92.2401 321.04C95.4101 320.99 97.8301 318.5 97.8101 315.31C97.7801 312.14 95.3101 309.69 92.1301 309.7Z" fill="#372721"/>
<path d="M345.16 235.32C341.89 235.26 339.35 237.73 339.35 240.99C339.35 244.17 341.8 246.64 344.97 246.66C348.15 246.68 350.64 244.25 350.69 241.09C350.73 237.9 348.32 235.39 345.16 235.33V235.32Z" fill="#372721"/>
<path d="M47.5999 235.32C44.4099 235.28 41.9099 237.7 41.8499 240.86C41.7899 244.13 44.2799 246.66 47.5299 246.66C50.7099 246.66 53.1699 244.2 53.1899 241.03C53.2099 237.85 50.7699 235.36 47.5999 235.33V235.32Z" fill="#372721"/>
<path d="M181.25 53.2001C184.34 53.2701 186.88 50.9001 186.99 47.8501C187.1 44.6801 184.68 42.0901 181.55 42.0201C178.46 41.9501 175.92 44.3201 175.81 47.3701C175.7 50.5401 178.12 53.1301 181.25 53.2001Z" fill="#372721"/>
<path d="M211.05 53.1998C214.14 53.2398 216.65 50.8598 216.73 47.7898C216.82 44.6198 214.37 42.0598 211.23 42.0098C208.14 41.9698 205.63 44.3498 205.55 47.4198C205.46 50.5898 207.9 53.1498 211.05 53.1998Z" fill="#372721"/>
<path d="M285.77 324.65C282.6 324.53 280 326.95 279.93 330.08C279.86 333.25 282.31 335.8 285.46 335.83C288.54 335.86 291.04 333.46 291.12 330.39C291.19 327.3 288.83 324.76 285.78 324.65H285.77Z" fill="#372721"/>
<path d="M107.09 324.67C104.04 324.63 101.51 327.08 101.44 330.12C101.38 333.17 103.8 335.73 106.85 335.81C109.98 335.9 112.57 333.39 112.59 330.27C112.6 327.22 110.14 324.71 107.09 324.67Z" fill="#372721"/>
<path d="M344.78 157.28C347.77 157.43 350.44 154.97 350.56 151.94C350.68 148.94 348.2 146.3 345.17 146.2C342.17 146.11 339.54 148.61 339.48 151.64C339.42 154.58 341.82 157.13 344.78 157.28Z" fill="#372721"/>
<path d="M47.54 157.27C50.54 157.25 53.09 154.66 53.05 151.67C53 148.73 50.52 146.25 47.59 146.21C44.6 146.17 42.01 148.72 41.99 151.72C41.98 154.72 44.54 157.29 47.55 157.27H47.54Z" fill="#372721"/>
<path d="M330.08 280.08C327.07 280.13 324.54 282.74 324.62 285.73C324.7 288.67 327.2 291.13 330.13 291.14C333.13 291.15 335.7 288.59 335.68 285.58C335.66 282.58 333.07 280.03 330.08 280.07V280.08Z" fill="#372721"/>
<path d="M62.4199 280.12C59.4199 280.1 56.8499 282.7 56.8999 285.69C56.9499 288.63 59.4399 291.1 62.3799 291.12C65.3799 291.14 67.9499 288.54 67.8999 285.55C67.8499 282.61 65.3599 280.14 62.4199 280.12Z" fill="#372721"/>
<path d="M196.2 354.46C193.26 354.5 190.78 356.98 190.74 359.92C190.69 362.91 193.24 365.51 196.25 365.52C199.25 365.54 201.82 362.97 201.8 359.97C201.79 356.97 199.19 354.42 196.2 354.46Z" fill="#372721"/>
<path d="M270.59 339.83C267.61 339.85 265.34 342.17 265.36 345.17C265.38 348.15 267.7 350.42 270.7 350.4C273.68 350.38 275.95 348.06 275.93 345.06C275.91 342.08 273.59 339.81 270.59 339.83Z" fill="#372721"/>
<path d="M226.14 354.67C223.15 354.61 220.78 356.86 220.7 359.82C220.62 362.89 222.94 365.3 225.99 365.31C228.98 365.32 231.3 363.04 231.34 360.06C231.38 357.07 229.11 354.72 226.14 354.66V354.67Z" fill="#372721"/>
<path d="M166.63 354.67C163.57 354.62 161.18 356.96 161.2 360.02C161.21 363 163.52 365.31 166.5 365.31C169.49 365.31 171.81 363.03 171.84 360.05C171.87 357.06 169.6 354.72 166.63 354.66V354.67Z" fill="#372721"/>
<path d="M240.88 52.8798C243.86 52.8798 246.16 50.5998 246.17 47.6298C246.17 44.6498 243.89 42.3498 240.92 42.3398C237.94 42.3398 235.64 44.6198 235.63 47.5898C235.63 50.5698 237.91 52.8698 240.88 52.8798Z" fill="#372721"/>
<path d="M121.91 339.85C118.93 339.85 116.63 342.13 116.62 345.1C116.62 348.08 118.9 350.38 121.87 350.39C124.85 350.39 127.15 348.11 127.16 345.14C127.16 342.16 124.88 339.86 121.91 339.85Z" fill="#372721"/>
<path d="M151.56 52.8502C154.47 52.8902 156.81 50.6702 156.89 47.7902C156.97 44.8002 154.7 42.4102 151.74 42.3702C148.83 42.3302 146.49 44.5502 146.41 47.4302C146.33 50.4202 148.6 52.8102 151.56 52.8502Z" fill="#372721"/>
<path d="M315.28 97.4698C318.16 97.4698 320.47 95.1998 320.5 92.3298C320.54 89.3698 318.22 87.0098 315.27 87.0098C312.39 87.0098 310.08 89.2798 310.05 92.1498C310.01 95.1098 312.33 97.4698 315.28 97.4698Z" fill="#372721"/>
<path d="M92.16 82.5602C95.01 82.5502 97.35 80.1902 97.34 77.3402C97.33 74.4902 94.97 72.1502 92.12 72.1602C89.27 72.1702 86.93 74.5302 86.94 77.3802C86.95 80.2302 89.31 82.5702 92.16 82.5602Z" fill="#372721"/>
<path d="M300.31 82.56C303.16 82.61 305.55 80.29 305.6 77.45C305.65 74.6 303.33 72.21 300.49 72.16C297.64 72.11 295.25 74.43 295.2 77.27C295.15 80.12 297.47 82.51 300.31 82.56Z" fill="#372721"/>
<path d="M77.2501 97.4499C80.1001 97.4499 82.4401 95.1499 82.4801 92.2999C82.5101 89.4499 80.2301 87.0799 77.3801 87.0299C74.4501 86.9699 72.0501 89.3399 72.0601 92.2699C72.0701 95.1199 74.4001 97.4399 77.2501 97.4499Z" fill="#372721"/>
<path d="M360.07 191.2C357.27 191.09 354.82 193.42 354.74 196.24C354.66 199.04 357.01 201.48 359.83 201.53C362.64 201.58 365.05 199.22 365.07 196.39C365.09 193.65 362.83 191.3 360.07 191.2Z" fill="#372721"/>
<path d="M32.7899 191.2C29.9899 191.11 27.5399 193.44 27.4799 196.26C27.4199 198.99 29.64 201.37 32.4 201.52C35.1899 201.67 37.6799 199.38 37.7999 196.56C37.9199 193.77 35.6099 191.3 32.7899 191.2Z" fill="#372721"/>
<path d="M330.26 112.24C333.02 112.16 335.32 109.78 335.28 107.04C335.24 104.28 332.87 101.96 330.13 101.97C327.38 101.98 325.04 104.32 325.02 107.07C325 109.88 327.47 112.31 330.26 112.23V112.24Z" fill="#372721"/>
<path d="M344.95 265.57C342.2 265.61 339.9 267.91 339.85 270.67C339.81 273.48 342.17 275.89 344.99 275.9C347.8 275.91 350.19 273.53 350.18 270.71C350.17 267.89 347.76 265.52 344.95 265.57Z" fill="#372721"/>
<path d="M47.5701 265.57C44.7601 265.54 42.3601 267.91 42.3501 270.73C42.3501 273.55 44.7401 275.93 47.5501 275.9C50.3701 275.87 52.7301 273.46 52.6801 270.65C52.6301 267.9 50.3201 265.6 47.5701 265.57Z" fill="#372721"/>
<path d="M62.36 112.23C65.09 112.25 67.45 109.94 67.5 107.19C67.55 104.47 65.26 102.08 62.51 102C59.73 101.91 57.26 104.33 57.27 107.13C57.28 109.87 59.62 112.21 62.35 112.23H62.36Z" fill="#372721"/>
<path d="M359.97 221.05C357.21 221 354.85 223.32 354.83 226.09C354.81 228.86 357.15 231.2 359.91 231.18C362.68 231.17 365 228.81 364.96 226.05C364.92 223.34 362.68 221.1 359.97 221.05Z" fill="#372721"/>
<path d="M32.61 221.08C29.89 221.1 27.67 223.29 27.6 226.01C27.53 228.78 29.78 231.12 32.57 231.16C35.35 231.2 37.66 228.92 37.67 226.14C37.68 223.36 35.38 221.07 32.6 221.09L32.61 221.08Z" fill="#372721"/>
<path d="M285.5 67.4598C288.34 67.4698 290.55 65.2198 290.49 62.3798C290.43 59.6198 288.22 57.4898 285.45 57.5198C282.69 57.5498 280.54 59.7398 280.55 62.5098C280.56 65.2798 282.73 67.4398 285.49 67.4598H285.5Z" fill="#372721"/>
<path d="M106.95 67.4598C109.79 67.4998 112.03 65.2698 111.99 62.4298C111.96 59.6698 109.77 57.5198 107 57.5298C104.23 57.5398 102.06 59.6998 102.05 62.4698C102.04 65.2398 104.18 67.4298 106.95 67.4698V67.4598Z" fill="#372721"/>
<path d="M359.74 171.5C362.54 171.57 364.74 169.48 364.78 166.72C364.83 163.99 362.81 161.83 360.14 161.73C357.33 161.62 355.09 163.66 355 166.41C354.91 169.22 356.97 171.43 359.73 171.5H359.74Z" fill="#372721"/>
<path d="M32.5499 171.5C35.3499 171.54 37.5099 169.43 37.5299 166.65C37.5499 163.86 35.4199 161.71 32.6399 161.72C29.8599 161.72 27.7299 163.87 27.7499 166.66C27.7699 169.36 29.8499 171.46 32.5499 171.5Z" fill="#372721"/>
<path d="M255.9 355.14C253.13 355.08 250.92 357.24 250.92 360C250.92 362.69 253.05 364.82 255.74 364.84C258.43 364.86 260.59 362.75 260.63 360.07C260.67 357.37 258.58 355.2 255.91 355.14H255.9Z" fill="#372721"/>
<path d="M136.77 355.14C134.08 355.14 131.94 357.26 131.92 359.94C131.9 362.71 134.09 364.88 136.86 364.84C139.54 364.8 141.64 362.64 141.62 359.94C141.6 357.25 139.46 355.14 136.77 355.14Z" fill="#372721"/>
<path d="M47.4299 126.81C50.0799 126.86 52.3099 124.69 52.3399 122.03C52.3599 119.38 50.1699 117.17 47.5199 117.17C44.9399 117.17 42.7799 119.27 42.7099 121.85C42.6299 124.5 44.7899 126.75 47.4399 126.8L47.4299 126.81Z" fill="#372721"/>
<path d="M344.93 126.81C347.58 126.86 349.81 124.69 349.84 122.03C349.86 119.38 347.67 117.17 345.02 117.17C342.44 117.17 340.28 119.27 340.21 121.85C340.13 124.5 342.29 126.75 344.94 126.8L344.93 126.81Z" fill="#372721"/>
<path d="M196.23 37.5298C198.77 37.5598 200.98 35.4298 201.06 32.8698C201.15 30.2698 198.93 27.9698 196.31 27.9398C193.77 27.9098 191.56 30.0398 191.48 32.5998C191.39 35.1998 193.61 37.4998 196.23 37.5298Z" fill="#372721"/>
<path d="M121.77 52.2202C124.41 52.2902 126.52 50.2301 126.51 47.6001C126.51 45.0301 124.5 43.0201 121.93 43.0001C119.37 42.9801 117.32 44.9701 117.28 47.5301C117.24 50.0901 119.21 52.1601 121.76 52.2301L121.77 52.2202Z" fill="#372721"/>
<path d="M166.6 37.2898C169.18 37.2498 171.11 35.2498 171.08 32.6498C171.04 30.0698 169.04 28.1398 166.44 28.1698C163.86 28.2098 161.93 30.2098 161.96 32.8098C162 35.3898 164 37.3198 166.6 37.2898Z" fill="#372721"/>
<path d="M225.98 37.2901C228.57 37.3101 230.56 35.3601 230.58 32.7701C230.6 30.1801 228.65 28.1901 226.06 28.1701C223.47 28.1501 221.48 30.1001 221.46 32.6901C221.44 35.2801 223.39 37.2701 225.98 37.2901Z" fill="#372721"/>
<path d="M32.77 251.25C30.2 251.18 28.12 253.13 28.03 255.69C27.94 258.33 29.97 260.46 32.61 260.48C35.17 260.5 37.21 258.51 37.26 255.95C37.3 253.39 35.33 251.32 32.77 251.26V251.25Z" fill="#372721"/>
<path d="M359.98 251.25C357.42 251.2 355.35 253.17 355.28 255.73C355.21 258.37 357.27 260.48 359.9 260.48C362.47 260.48 364.48 258.47 364.51 255.91C364.53 253.35 362.54 251.3 359.98 251.26V251.25Z" fill="#372721"/>
<path d="M270.72 52.22C273.28 52.18 275.27 50.14 275.26 47.58C275.24 45.01 273.23 43.01 270.66 43C268.1 43 266.06 44.99 266.03 47.55C266 50.19 268.08 52.27 270.72 52.23V52.22Z" fill="#372721"/>
<path d="M211.07 370.33C208.55 370.36 206.63 372.29 206.61 374.8C206.58 377.4 208.54 379.39 211.13 379.4C213.73 379.4 215.7 377.44 215.69 374.83C215.68 372.24 213.68 370.29 211.08 370.32L211.07 370.33Z" fill="#372721"/>
<path d="M181.44 370.33C178.91 370.31 176.94 372.18 176.86 374.68C176.78 377.29 178.68 379.34 181.26 379.4C183.87 379.46 185.9 377.54 185.94 374.95C185.98 372.34 184.04 370.34 181.45 370.32L181.44 370.33Z" fill="#372721"/>
<path d="M315.3 325.77C312.84 325.75 310.82 327.74 310.8 330.2C310.78 332.66 312.77 334.68 315.23 334.7C317.69 334.72 319.71 332.73 319.73 330.27C319.75 327.81 317.76 325.79 315.3 325.77Z" fill="#372721"/>
<path d="M330.1 310.91C327.72 310.93 325.74 312.89 325.69 315.27C325.64 317.72 327.64 319.79 330.1 319.82C332.55 319.85 334.6 317.82 334.61 315.37C334.61 312.92 332.56 310.89 330.11 310.91H330.1Z" fill="#372721"/>
<path d="M77.21 325.78C74.83 325.81 72.85 327.77 72.81 330.15C72.76 332.6 74.77 334.67 77.23 334.69C79.68 334.71 81.73 332.68 81.72 330.23C81.72 327.78 79.66 325.75 77.21 325.78Z" fill="#372721"/>
<path d="M62.4901 310.94C60.1501 310.89 58.0801 312.82 57.9701 315.18C57.8601 317.59 59.8801 319.73 62.3001 319.79C64.6401 319.84 66.7101 317.91 66.8201 315.55C66.9301 313.14 64.9101 311 62.4901 310.94Z" fill="#372721"/>
<path d="M32.68 141.21C35.04 141.18 37.05 139.12 36.99 136.78C36.93 134.41 34.85 132.43 32.51 132.52C30.2 132.61 28.3 134.57 28.29 136.86C28.29 139.22 30.32 141.24 32.68 141.21Z" fill="#372721"/>
<path d="M359.99 141.23C362.36 141.17 364.36 139.06 364.27 136.72C364.18 134.41 362.19 132.49 359.9 132.49C357.54 132.49 355.5 134.55 355.53 136.91C355.56 139.27 357.65 141.3 359.99 141.23Z" fill="#372721"/>
<path d="M300.37 340.77C298.08 340.79 296.12 342.71 296.05 345.01C295.98 347.35 297.97 349.43 300.33 349.47C302.68 349.51 304.73 347.5 304.74 345.14C304.75 342.78 302.72 340.76 300.36 340.77H300.37Z" fill="#372721"/>
<path d="M92.1899 340.77C89.8999 340.74 87.9199 342.62 87.7999 344.94C87.6799 347.28 89.6299 349.38 92.0099 349.47C94.3499 349.56 96.4299 347.58 96.4899 345.21C96.5499 342.87 94.5499 340.8 92.1799 340.77H92.1899Z" fill="#372721"/>
<path d="M345.08 296.31C342.68 296.28 340.85 298.08 340.84 300.48C340.84 302.8 342.57 304.61 344.87 304.67C347.27 304.74 349.15 302.97 349.2 300.6C349.25 298.2 347.46 296.34 345.08 296.31Z" fill="#372721"/>
<path d="M151.58 370.69C149.27 370.72 147.5 372.49 147.47 374.8C147.44 377.2 149.23 379.04 151.62 379.05C154.02 379.06 155.84 377.25 155.83 374.85C155.83 372.46 153.98 370.66 151.58 370.69Z" fill="#372721"/>
<path d="M240.93 370.69C238.61 370.68 236.8 372.41 236.72 374.7C236.64 377.1 238.4 378.99 240.78 379.05C243.18 379.11 245.05 377.32 245.08 374.95C245.12 372.55 243.32 370.71 240.93 370.69Z" fill="#372721"/>
<path d="M47.5901 296.33C45.1801 296.3 43.3501 298.11 43.3501 300.51C43.3501 302.83 45.1201 304.62 47.4401 304.65C49.8501 304.68 51.6801 302.87 51.6801 300.47C51.6801 298.15 49.9101 296.36 47.5901 296.33Z" fill="#372721"/>
<path d="M374.78 185.6C377.08 185.6 378.88 183.78 378.88 181.48C378.88 179.18 377.06 177.38 374.76 177.38C372.46 177.38 370.66 179.2 370.66 181.5C370.66 183.8 372.48 185.6 374.78 185.6Z" fill="#372721"/>
<path d="M374.7 207.08C372.38 207.11 370.62 208.9 370.61 211.22C370.6 213.62 372.43 215.44 374.84 215.4C377.16 215.37 378.92 213.58 378.93 211.26C378.94 208.86 377.11 207.04 374.7 207.08Z" fill="#372721"/>
<path d="M17.8101 207.12C15.5001 207.1 13.6901 208.86 13.6501 211.16C13.6101 213.47 15.3601 215.31 17.6401 215.37C20.0301 215.43 21.9001 213.62 21.9001 211.24C21.9001 208.94 20.1201 207.14 17.8201 207.12H17.8101Z" fill="#372721"/>
<path d="M17.69 185.57C19.96 185.62 21.84 183.79 21.86 181.52C21.88 179.25 20.03 177.4 17.77 177.4C15.58 177.4 13.76 179.16 13.7 181.35C13.63 183.61 15.44 185.52 17.7 185.56L17.69 185.57Z" fill="#372721"/>
<path d="M255.67 36.8101C257.93 36.8701 259.84 35.0001 259.84 32.7401C259.84 30.5501 258.05 28.7201 255.87 28.6601C253.61 28.6001 251.7 30.4701 251.7 32.7301C251.7 34.9201 253.49 36.7501 255.67 36.8101Z" fill="#372721"/>
<path d="M136.53 36.8C138.77 36.94 140.76 35.14 140.84 32.88C140.92 30.71 139.19 28.8 137.01 28.66C134.77 28.52 132.78 30.32 132.7 32.58C132.62 34.75 134.35 36.66 136.53 36.8Z" fill="#372721"/>
<path d="M285.48 355.97C283.34 356 281.47 357.9 281.5 360.03C281.53 362.17 283.43 364.04 285.56 364.01C287.71 363.98 289.57 362.08 289.54 359.95C289.51 357.81 287.61 355.94 285.48 355.97Z" fill="#372721"/>
<path d="M107.1 355.97C104.97 355.92 103.05 357.76 103 359.91C102.95 362.04 104.79 363.96 106.94 364.01C109.07 364.06 110.99 362.22 111.04 360.07C111.09 357.94 109.25 356.02 107.1 355.97Z" fill="#372721"/>
<path d="M77.1999 66.2399C79.3299 66.2699 80.9899 64.6699 81.0199 62.5499C81.0499 60.4199 79.4499 58.7599 77.3299 58.7299C75.1999 58.6999 73.5399 60.2999 73.5099 62.4199C73.4799 64.5499 75.0799 66.2099 77.1999 66.2399Z" fill="#372721"/>
<path d="M62.3101 81.13C64.4501 81.17 66.1101 79.61 66.1701 77.49C66.2301 75.35 64.6901 73.67 62.5801 73.59C60.3701 73.5 58.6501 75.12 58.6301 77.32C58.6101 79.45 60.1901 81.09 62.3101 81.13Z" fill="#372721"/>
<path d="M330.07 81.18C332.29 81.22 333.97 79.56 333.96 77.35C333.96 75.21 332.35 73.59 330.22 73.55C328 73.51 326.32 75.17 326.33 77.38C326.33 79.52 327.94 81.14 330.07 81.18Z" fill="#372721"/>
<path d="M374.78 237.15C372.66 237.15 371 238.74 370.93 240.84C370.85 243.03 372.49 244.78 374.67 244.83C376.86 244.88 378.59 243.23 378.62 241.04C378.65 238.84 376.98 237.14 374.79 237.14L374.78 237.15Z" fill="#372721"/>
<path d="M17.7401 237.17C15.6101 237.18 13.9801 238.79 13.9501 240.92C13.9201 243.14 15.5801 244.82 17.7901 244.8C19.9201 244.79 21.5501 243.18 21.5801 241.05C21.6101 238.83 19.9501 237.15 17.7401 237.17Z" fill="#372721"/>
<path d="M315.35 66.24C317.47 66.2 319.06 64.54 319.02 62.41C318.98 60.29 317.32 58.7 315.19 58.74C313.07 58.78 311.48 60.44 311.52 62.57C311.56 64.69 313.22 66.28 315.35 66.24Z" fill="#372721"/>
<path d="M32.6599 281.86C30.5299 281.86 28.8999 283.47 28.8899 285.6C28.8899 287.73 30.4999 289.36 32.6299 289.37C34.7599 289.37 36.3899 287.76 36.3999 285.63C36.3999 283.5 34.7899 281.87 32.6599 281.86Z" fill="#372721"/>
<path d="M360.12 281.85C357.98 281.75 356.26 283.25 356.14 285.35C356.01 287.5 357.5 289.23 359.59 289.38C361.74 289.53 363.49 288.06 363.66 285.98C363.84 283.76 362.3 281.96 360.13 281.85H360.12Z" fill="#372721"/>
<path d="M344.78 95.9398C346.83 96.0798 348.65 94.4398 348.73 92.3798C348.81 90.3998 347.24 88.6598 345.26 88.5298C343.21 88.3898 341.39 90.0298 341.31 92.0898C341.23 94.0698 342.8 95.8098 344.78 95.9398Z" fill="#372721"/>
<path d="M211.23 21.5401C213.2 21.4901 214.87 19.7301 214.82 17.7801C214.77 15.8101 213.01 14.1401 211.06 14.1901C209.09 14.2401 207.42 16.0001 207.47 17.9501C207.52 19.9201 209.28 21.5901 211.23 21.5401Z" fill="#372721"/>
<path d="M47.48 95.9102C49.44 95.9302 51.17 94.2402 51.19 92.2702C51.21 90.3102 49.52 88.5802 47.55 88.5602C45.59 88.5402 43.86 90.2302 43.84 92.2002C43.82 94.1602 45.51 95.8902 47.48 95.9102Z" fill="#372721"/>
<path d="M181.33 21.5402C183.29 21.5802 185.03 19.9002 185.07 17.9302C185.11 15.9702 183.43 14.2302 181.46 14.1902C179.5 14.1502 177.76 15.8302 177.72 17.8002C177.68 19.7602 179.36 21.5002 181.33 21.5402Z" fill="#372721"/>
<path d="M374.85 155.39C376.82 155.34 378.51 153.56 378.43 151.61C378.35 149.71 376.68 148.09 374.79 148.08C372.83 148.08 371.1 149.81 371.12 151.77C371.14 153.74 372.9 155.44 374.86 155.39H374.85Z" fill="#372721"/>
<path d="M17.7 155.39C19.66 155.43 21.41 153.72 21.43 151.76C21.44 149.8 19.71 148.07 17.75 148.08C15.86 148.1 14.19 149.72 14.12 151.62C14.05 153.57 15.74 155.35 17.71 155.39H17.7Z" fill="#372721"/>
<path d="M92.1099 51.1699C94.0299 51.1899 95.6599 49.6299 95.7099 47.6899C95.7599 45.7699 94.2099 44.1199 92.2799 44.0399C90.2899 43.9599 88.5799 45.6099 88.5899 47.6099C88.5899 49.5399 90.1899 51.1399 92.1099 51.1599V51.1699Z" fill="#372721"/>
<path d="M300.45 51.17C302.38 51.14 303.96 49.52 303.95 47.6C303.95 45.67 302.35 44.07 300.42 44.05C298.43 44.03 296.76 45.73 296.82 47.72C296.88 49.65 298.52 51.21 300.44 51.18L300.45 51.17Z" fill="#372721"/>
<path d="M121.81 371.42C119.89 371.46 118.45 372.92 118.45 374.85C118.45 376.85 119.97 378.34 121.97 378.3C123.89 378.26 125.33 376.8 125.33 374.87C125.33 372.87 123.81 371.38 121.81 371.42Z" fill="#372721"/>
<path d="M270.7 371.42C268.7 371.39 267.19 372.9 267.21 374.9C267.23 376.9 268.78 378.37 270.79 378.3C272.7 378.24 274.12 376.75 274.1 374.82C274.08 372.89 272.63 371.44 270.71 371.42H270.7Z" fill="#372721"/>
<path d="M196.23 386.27C194.24 386.29 192.76 387.84 192.8 389.83C192.84 391.74 194.31 393.19 196.22 393.21C198.21 393.23 199.74 391.73 199.74 389.74C199.74 387.75 198.22 386.24 196.23 386.27Z" fill="#372721"/>
<path d="M226.1 386.42C224.25 386.38 222.66 387.96 222.7 389.81C222.74 391.6 224.26 393.08 226.04 393.07C227.82 393.06 229.33 391.56 229.35 389.77C229.37 387.99 227.88 386.46 226.1 386.42Z" fill="#372721"/>
<path d="M32.6699 110.44C34.4499 110.42 35.9599 108.92 35.9699 107.14C35.9799 105.36 34.4999 103.83 32.7099 103.79C30.9299 103.75 29.3799 105.22 29.3199 107C29.2499 108.85 30.8199 110.45 32.6699 110.44Z" fill="#372721"/>
<path d="M359.87 110.44C361.65 110.46 363.18 108.97 363.22 107.19C363.26 105.41 361.8 103.86 360.01 103.79C358.24 103.72 356.66 105.17 356.57 106.95C356.47 108.79 358.01 110.42 359.87 110.44Z" fill="#372721"/>
<path d="M166.52 386.42C164.74 386.42 163.22 387.91 163.19 389.7C163.16 391.48 164.63 393.02 166.42 393.08C168.27 393.14 169.87 391.57 169.84 389.71C169.82 387.92 168.3 386.43 166.52 386.43V386.42Z" fill="#372721"/>
<path d="M240.85 21.1198C242.6 21.1498 244.18 19.5698 244.15 17.8198C244.12 16.1298 242.63 14.6398 240.94 14.6098C239.19 14.5798 237.61 16.1598 237.64 17.9098C237.67 19.5998 239.16 21.0898 240.85 21.1198Z" fill="#372721"/>
<path d="M151.68 21.1201C153.37 21.1001 154.86 19.6101 154.9 17.9201C154.93 16.1701 153.36 14.5901 151.61 14.6101C149.92 14.6301 148.43 16.1201 148.39 17.8101C148.36 19.5601 149.93 21.1401 151.68 21.1201Z" fill="#372721"/>
<path d="M374.78 267.62C373.07 267.62 371.71 268.93 371.66 270.64C371.61 272.43 372.99 273.85 374.77 273.85C376.48 273.85 377.84 272.54 377.89 270.83C377.94 269.04 376.56 267.62 374.78 267.62Z" fill="#372721"/>
<path d="M17.68 273.86C19.39 273.9 20.79 272.62 20.88 270.92C20.97 269.13 19.63 267.67 17.85 267.63C16.14 267.59 14.74 268.87 14.65 270.57C14.56 272.36 15.9 273.82 17.68 273.86Z" fill="#372721"/>
<path d="M285.49 35.7802C287.24 35.8002 288.55 34.5102 288.57 32.7702C288.59 31.0202 287.3 29.7102 285.56 29.6902C283.81 29.6702 282.5 30.9602 282.48 32.7002C282.46 34.4502 283.75 35.7602 285.49 35.7802Z" fill="#372721"/>
<path d="M389.73 193.4C388.13 193.35 386.75 194.63 386.68 196.23C386.6 197.9 387.98 199.33 389.65 199.33C391.25 199.33 392.59 198.01 392.61 196.4C392.63 194.8 391.33 193.44 389.73 193.39V193.4Z" fill="#372721"/>
<path d="M106.99 35.76C108.74 35.78 110.05 34.47 110.04 32.72C110.04 30.98 108.7 29.68 106.96 29.71C105.3 29.74 104.04 30.99 104 32.65C103.96 34.4 105.25 35.73 106.99 35.75V35.76Z" fill="#372721"/>
<path d="M2.97008 193.47C1.47008 193.43 0.0800834 194.73 0.0100834 196.24C-0.0699166 197.8 1.34008 199.26 2.92008 199.25C4.42008 199.24 5.77008 197.89 5.79008 196.39C5.81008 194.89 4.48008 193.52 2.97008 193.47Z" fill="#372721"/>
<path d="M389.62 228.86C391.14 228.87 392.33 227.75 392.39 226.24C392.45 224.65 391.27 223.39 389.68 223.38C388.16 223.37 386.97 224.49 386.91 226C386.85 227.59 388.03 228.85 389.62 228.86Z" fill="#372721"/>
<path d="M2.92989 223.37C1.33989 223.35 0.119892 224.58 0.159892 226.17C0.189892 227.76 1.45989 228.93 3.04989 228.85C4.55989 228.77 5.66989 227.57 5.63989 226.05C5.60989 224.53 4.44989 223.39 2.92989 223.37Z" fill="#372721"/>
<path d="M330.15 342.37C328.63 342.37 327.45 343.5 327.41 345.02C327.36 346.61 328.56 347.85 330.15 347.85C331.67 347.85 332.85 346.72 332.89 345.2C332.94 343.61 331.74 342.37 330.15 342.37Z" fill="#372721"/>
<path d="M62.36 342.45C60.82 342.47 59.69 343.64 59.73 345.19C59.77 346.73 60.97 347.84 62.52 347.77C63.98 347.71 65.05 346.59 65.06 345.12C65.06 343.57 63.91 342.43 62.36 342.44V342.45Z" fill="#372721"/>
<path d="M47.52 327.6C45.99 327.6 44.83 328.8 44.88 330.33C44.93 331.78 46.06 332.88 47.52 332.88C49.05 332.88 50.21 331.68 50.16 330.15C50.11 328.7 48.98 327.6 47.52 327.6Z" fill="#372721"/>
<path d="M345.03 327.6C343.5 327.6 342.34 328.79 342.38 330.32C342.42 331.77 343.55 332.87 345.01 332.88C346.54 332.88 347.7 331.69 347.66 330.16C347.62 328.71 346.49 327.61 345.03 327.6Z" fill="#372721"/>
<path d="M17.77 124.63C19.23 124.63 20.36 123.54 20.41 122.08C20.46 120.54 19.3 119.35 17.77 119.35C16.31 119.35 15.18 120.44 15.13 121.9C15.08 123.44 16.24 124.63 17.77 124.63Z" fill="#372721"/>
<path d="M372.28 122.84C372.3 122.91 372.32 122.98 372.35 123.04C372.46 123.31 372.62 123.55 372.81 123.77C373.34 124.39 374.12 124.8 375.01 124.8C376.61 124.8 377.91 123.5 377.91 121.9C377.91 120.3 376.61 119 375.01 119C373.41 119 372.11 120.3 372.11 121.9C372.11 122.14 372.15 122.36 372.2 122.58C372.22 122.67 372.25 122.76 372.28 122.84Z" fill="#372721"/>
<path d="M389.66 164.02C388.25 164.02 387.06 165.19 387.05 166.6C387.05 168.01 388.22 169.2 389.63 169.21C391.04 169.21 392.23 168.04 392.24 166.63C392.24 165.22 391.07 164.03 389.66 164.02Z" fill="#372721"/>
<path d="M315.45 357.43C314.08 357.26 312.78 358.46 312.7 359.86C312.62 361.24 313.8 362.52 315.19 362.57C316.58 362.62 317.88 361.43 317.84 360.03C317.79 358.52 316.94 357.62 315.46 357.43H315.45Z" fill="#372721"/>
<path d="M77.2901 357.43C75.7801 357.49 74.8901 358.35 74.7101 359.83C74.5501 361.2 75.7601 362.5 77.1501 362.56C78.5301 362.63 79.8001 361.45 79.8401 360.05C79.8801 358.66 78.6801 357.37 77.2901 357.42V357.43Z" fill="#372721"/>
<path d="M5.45989 166.8C5.56989 165.42 4.41989 164.12 3.02989 164.04C1.64989 163.96 0.31989 165.13 0.32989 166.52C0.32989 168.03 1.17989 168.95 2.65989 169.17C4.01989 169.37 5.34989 168.2 5.45989 166.81V166.8Z" fill="#372721"/>
<path d="M359.92 312.92C358.49 312.98 357.62 313.8 357.45 315.22C357.29 316.54 358.44 317.77 359.79 317.84C361.12 317.91 362.33 316.78 362.36 315.44C362.4 314.1 361.25 312.87 359.91 312.93L359.92 312.92Z" fill="#372721"/>
<path d="M2.77995 253.67C1.48995 253.73 0.699951 254.54 0.699951 255.83C0.699951 257.21 1.52995 258.06 2.90995 258.05C4.30995 258.05 4.98995 257.15 5.13995 255.79C4.91995 254.45 4.18995 253.6 2.78995 253.66L2.77995 253.67Z" fill="#372721"/>
<path d="M226.09 5.8C227.692 5.8 228.99 4.50163 228.99 2.9C228.99 1.29837 227.692 0 226.09 0C224.488 0 223.19 1.29837 223.19 2.9C223.19 4.50163 224.488 5.8 226.09 5.8Z" fill="#372721"/>
<path d="M270.65 20.4602C272.252 20.4602 273.55 19.1618 273.55 17.5602C273.55 15.9585 272.252 14.6602 270.65 14.6602C269.048 14.6602 267.75 15.9585 267.75 17.5602C267.75 19.1618 269.048 20.4602 270.65 20.4602Z" fill="#372721"/>
<path d="M315.07 35.8698C316.672 35.8698 317.97 34.5715 317.97 32.9698C317.97 31.3682 316.672 30.0698 315.07 30.0698C313.468 30.0698 312.17 31.3682 312.17 32.9698C312.17 34.5715 313.468 35.8698 315.07 35.8698Z" fill="#372721"/>
<path d="M330.58 50.3498C332.18 50.3498 333.48 49.0498 333.48 47.4498C333.48 45.8498 332.18 44.5498 330.58 44.5498C328.98 44.5498 327.68 45.8498 327.68 47.4498C327.68 49.0498 328.98 50.3498 330.58 50.3498Z" fill="#372721"/>
<path d="M345.93 65.3098C347.53 65.3098 348.83 64.0098 348.83 62.4098C348.83 60.8098 347.53 59.5098 345.93 59.5098C344.33 59.5098 343.03 60.8098 343.03 62.4098C343.03 64.0098 344.33 65.3098 345.93 65.3098Z" fill="#372721"/>
<path d="M360.7 80.26C362.3 80.26 363.6 78.96 363.6 77.36C363.6 75.76 362.3 74.46 360.7 74.46C359.1 74.46 357.8 75.76 357.8 77.36C357.8 78.96 359.1 80.26 360.7 80.26Z" fill="#372721"/>
<path d="M389.95 139.74C391.552 139.74 392.85 138.442 392.85 136.84C392.85 135.238 391.552 133.94 389.95 133.94C388.348 133.94 387.05 135.238 387.05 136.84C387.05 138.442 388.348 139.74 389.95 139.74Z" fill="#372721"/>
<path d="M389.49 258.92C391.092 258.92 392.39 257.622 392.39 256.02C392.39 254.418 391.092 253.12 389.49 253.12C387.888 253.12 386.59 254.418 386.59 256.02C386.59 257.622 387.888 258.92 389.49 258.92Z" fill="#372721"/>
<path d="M32.63 318.23C34.2316 318.23 35.53 316.932 35.53 315.33C35.53 313.729 34.2316 312.43 32.63 312.43C31.0284 312.43 29.73 313.729 29.73 315.33C29.73 316.932 31.0284 318.23 32.63 318.23Z" fill="#372721"/>
<path d="M3.2999 133.5C1.6999 133.5 0.399902 134.8 0.399902 136.4C0.399902 138 1.6999 139.3 3.2999 139.3C4.8999 139.3 6.1999 138 6.1999 136.4C6.1999 134.8 4.8999 133.5 3.2999 133.5Z" fill="#372721"/>
<path d="M32.3099 80.59C33.9115 80.59 35.2099 79.2917 35.2099 77.69C35.2099 76.0884 33.9115 74.79 32.3099 74.79C30.7083 74.79 29.4099 76.0884 29.4099 77.69C29.4099 79.2917 30.7083 80.59 32.3099 80.59Z" fill="#372721"/>
<path d="M47.2301 65.01C48.8317 65.01 50.1301 63.7116 50.1301 62.11C50.1301 60.5083 48.8317 59.21 47.2301 59.21C45.6285 59.21 44.3301 60.5083 44.3301 62.11C44.3301 63.7116 45.6285 65.01 47.2301 65.01Z" fill="#372721"/>
<path d="M62.15 49.4199C62.15 49.4199 62.2 49.4199 62.22 49.4199C62.22 49.4199 62.22 49.4199 62.23 49.4299C62.23 49.4299 62.24 49.4299 62.25 49.4199C63.8 49.3699 65.05 48.0999 65.05 46.5299C65.05 44.9599 63.75 43.6299 62.15 43.6299C60.55 43.6299 59.25 44.9299 59.25 46.5299C59.25 48.1299 60.55 49.4299 62.15 49.4299V49.4199Z" fill="#372721"/>
<path d="M77.0699 34.4899C78.6699 34.4899 79.9699 33.1899 79.9699 31.5899C79.9699 29.9899 78.6699 28.6899 77.0699 28.6899C75.4699 28.6899 74.1699 29.9899 74.1699 31.5899C74.1699 33.1899 75.4699 34.4899 77.0699 34.4899Z" fill="#372721"/>
<path d="M166.53 5.81C168.13 5.81 169.43 4.51 169.43 2.91C169.43 1.31 168.13 0 166.53 0C164.93 0 163.63 1.3 163.63 2.9C163.63 4.5 164.93 5.8 166.53 5.8V5.81Z" fill="#372721"/>
<path d="M122.06 20.8498C123.66 20.8498 124.96 19.5498 124.96 17.9498C124.96 16.3498 123.66 15.0498 122.06 15.0498C120.46 15.0498 119.16 16.3498 119.16 17.9498C119.16 19.5498 120.46 20.8498 122.06 20.8498Z" fill="#372721"/>
<path d="M196.24 5.9001C197.84 5.9001 199.14 4.6001 199.14 3.0001C199.14 1.4001 197.84 0.100098 196.24 0.100098C194.64 0.100098 193.34 1.4001 193.34 3.0001C193.34 4.6001 194.64 5.9001 196.24 5.9001Z" fill="#372721"/>
</g>
<defs>
<clipPath id="clip0_30_1232">
<rect width="392.85" height="394.79" fill="white"/>
</clipPath>
</defs>
</svg>
