<svg width="545" height="182" viewBox="0 0 545 182" fill="none" xmlns="http://www.w3.org/2000/svg">
<g clipPath="url(#clip0_30_1219)">
<path d="M226.96 90.3C251.896 90.3 272.11 70.0857 272.11 45.15C272.11 20.2143 251.896 0 226.96 0C202.024 0 181.81 20.2143 181.81 45.15C181.81 70.0857 202.024 90.3 226.96 90.3Z" fill="#FF7300"/>
<path d="M226.96 181.25C251.896 181.25 272.11 161.036 272.11 136.1C272.11 111.165 251.896 90.9502 226.96 90.9502C202.024 90.9502 181.81 111.165 181.81 136.1C181.81 161.036 202.024 181.25 226.96 181.25Z" fill="#FF7300"/>
<path d="M136.05 90.3C160.986 90.3 181.2 70.0857 181.2 45.15C181.2 20.2143 160.986 0 136.05 0C111.114 0 90.8999 20.2143 90.8999 45.15C90.8999 70.0857 111.114 90.3 136.05 90.3Z" fill="#FF7300"/>
<path d="M136.05 181.25C160.986 181.25 181.2 161.036 181.2 136.1C181.2 111.165 160.986 90.9502 136.05 90.9502C111.114 90.9502 90.8999 111.165 90.8999 136.1C90.8999 161.036 111.114 181.25 136.05 181.25Z" fill="#FF7300"/>
<path d="M45.15 90.3C70.0857 90.3 90.3 70.0857 90.3 45.15C90.3 20.2143 70.0857 0 45.15 0C20.2143 0 0 20.2143 0 45.15C0 70.0857 20.2143 90.3 45.15 90.3Z" fill="#FF7300"/>
<path d="M45.15 181.25C70.0857 181.25 90.3 161.036 90.3 136.1C90.3 111.165 70.0857 90.9502 45.15 90.9502C20.2143 90.9502 0 111.165 0 136.1C0 161.036 20.2143 181.25 45.15 181.25Z" fill="#FF7300"/>
<path d="M408.58 90.3C433.516 90.3 453.73 70.0857 453.73 45.15C453.73 20.2143 433.516 0 408.58 0C383.644 0 363.43 20.2143 363.43 45.15C363.43 70.0857 383.644 90.3 408.58 90.3Z" fill="#FF7300"/>
<path d="M408.58 181.25C433.516 181.25 453.73 161.036 453.73 136.1C453.73 111.165 433.516 90.9502 408.58 90.9502C383.644 90.9502 363.43 111.165 363.43 136.1C363.43 161.036 383.644 181.25 408.58 181.25Z" fill="#FF7300"/>
<path d="M499.67 90.3C524.606 90.3 544.82 70.0857 544.82 45.15C544.82 20.2143 524.606 0 499.67 0C474.734 0 454.52 20.2143 454.52 45.15C454.52 70.0857 474.734 90.3 499.67 90.3Z" fill="#FF7300"/>
<path d="M499.67 181.25C524.606 181.25 544.82 161.036 544.82 136.1C544.82 111.165 524.606 90.9502 499.67 90.9502C474.734 90.9502 454.52 111.165 454.52 136.1C454.52 161.036 474.734 181.25 499.67 181.25Z" fill="#FF7300"/>
<path d="M317.68 90.3C342.616 90.3 362.83 70.0857 362.83 45.15C362.83 20.2143 342.616 0 317.68 0C292.744 0 272.53 20.2143 272.53 45.15C272.53 70.0857 292.744 90.3 317.68 90.3Z" fill="#FF7300"/>
<path d="M317.68 181.25C342.616 181.25 362.83 161.036 362.83 136.1C362.83 111.165 342.616 90.9502 317.68 90.9502C292.744 90.9502 272.53 111.165 272.53 136.1C272.53 161.036 292.744 181.25 317.68 181.25Z" fill="#FF7300"/>
</g>
<defs>
<clipPath id="clip0_30_1219">
<rect width="544.82" height="181.24" fill="white"/>
</clipPath>
</defs>
</svg>
