<svg width="390" height="184" viewBox="0 0 390 184" fill="none" xmlns="http://www.w3.org/2000/svg">
<path d="M36.539 44.1335C38.1492 42.5003 40.0935 41.279 42.3747 40.4724C44.6559 39.6658 47.2026 39.2625 50.0177 39.2625C52.5215 39.2625 54.7342 39.5885 56.6557 40.2378C58.5771 40.8871 60.2102 41.7709 61.5521 42.8893C62.8939 44.0105 63.9674 45.3205 64.7697 46.8221C65.5748 48.3238 66.1116 49.8998 66.38 51.5558H73.489C73.175 47.9748 72.2043 44.9944 70.5712 42.6204C68.9381 40.2464 66.9595 38.3558 64.6355 36.9428C62.3115 35.5327 59.8076 34.5373 57.1239 33.9538C54.4401 33.3704 51.8934 33.0786 49.4781 33.0786C45.3639 33.0786 41.7551 33.7279 38.6489 35.0264C35.5397 36.325 32.9273 38.1069 30.8032 40.3665C28.679 42.629 27.083 45.2833 26.0095 48.3266C24.936 51.3728 24.3993 54.642 24.3993 58.1344C24.3993 62.7938 25.1473 66.7352 26.6462 69.9587C28.1423 73.1822 30.078 75.7936 32.4477 77.7844C34.8174 79.7779 37.4983 81.2224 40.4961 82.1176C43.491 83.0129 46.5088 83.4619 49.5494 83.4619C52.9469 83.4619 56.0532 82.9471 58.8712 81.9174C61.6863 80.8877 64.1359 79.4776 66.2144 77.6871C68.2928 75.8966 69.9573 73.8143 71.2107 71.4374C72.4612 69.0634 73.2235 66.555 73.489 63.915H66.38C65.3521 68.6172 63.3508 72.0238 60.3786 74.1261C57.4037 76.2312 53.8177 77.2838 49.6151 77.2838C46.3061 77.2838 43.4996 76.7461 41.1984 75.6706C38.8944 74.5952 37.03 73.1965 35.5997 71.4718C34.1693 69.747 33.1272 67.7878 32.4819 65.594C31.8338 63.4001 31.5084 61.1606 31.5084 58.8752C31.5084 55.606 31.9452 52.74 32.816 50.2744C33.6868 47.8118 34.9287 45.761 36.5361 44.1278L36.539 44.1335Z" fill="#E5FC52"/>
<path d="M227.479 34.2915H184.159V40.4725H202.266V82.2608H209.375V40.4725H227.479V34.2915Z" fill="#E5FC52"/>
<path d="M313.744 34.2915H306.638V72.4501H306.504L275.724 34.2915H267.475V82.2608H274.585V44.1022H274.719L305.499 82.2608H313.744V34.2915Z" fill="#E5FC52"/>
<path d="M319.243 34.2915V40.4725H337.35V82.2608H344.459V40.4725H362.566V34.2915H319.243Z" fill="#E5FC52"/>
<path d="M198.977 121.729C198.977 123.88 198.629 125.736 197.938 127.307C197.244 128.874 196.262 130.15 194.989 131.137C193.715 132.123 192.182 132.85 190.395 133.319C188.608 133.791 186.618 134.026 184.428 134.026C182.238 134.026 180.248 133.791 178.461 133.319C176.673 132.847 175.14 132.121 173.867 131.137C172.594 130.15 171.609 128.874 170.915 127.307C170.221 125.739 169.876 123.88 169.876 121.729V91.0273H162.766V120.857C162.766 133.757 169.987 140.204 184.428 140.204C198.869 140.204 206.089 133.754 206.089 120.857V91.0273H198.98V121.729H198.977Z" fill="#E5FC52"/>
<path d="M223.385 117.296H253.831V111.115H223.385V97.2083H254.768V91.0273H216.276V138.994H255.439V132.816H223.385V117.296Z" fill="#E5FC52"/>
<path d="M270.593 117.296H301.039V111.115H270.593V97.2083H301.979V91.0273H263.487V138.994H302.65V132.816H270.593V117.296Z" fill="#E5FC52"/>
<path d="M261.134 43.6189C261.134 38.5677 256.195 32.3066 247.927 32.3066C237.34 32.3066 224.436 46.5478 224.436 62.4051C224.436 76.3431 230.083 83.1104 237.743 83.1104C246.514 83.1104 255.587 72.9108 259.721 60.1827L258.713 59.4762C255.387 67.3533 244.801 73.0109 237.24 73.0109C232.704 73.0109 226.654 70.4853 226.654 64.9307C226.654 62.508 227.159 60.0825 228.064 57.6571C250.345 54.2219 261.132 50.0831 261.132 43.6189H261.134ZM248.835 41.2964C252.869 41.2964 254.482 43.3157 254.482 45.235C254.482 48.264 246.517 52.6087 228.47 56.6474C231.999 48.3641 240.267 41.2964 248.835 41.2964Z" fill="#E5FC52"/>
<path d="M348.076 128.728C346.161 128.728 344.85 127.212 344.85 124.083C344.85 117.922 352.008 103.478 352.008 97.7232C352.008 93.1782 348.782 88.7334 344.145 88.7334C336.987 88.7334 330.635 99.1361 321.059 126.406L320.251 126.103C322.067 117.719 324.485 106.51 324.485 102.268C324.485 93.3785 321.964 88.6333 318.738 88.6333C314.404 88.6333 311.48 94.288 306.641 108.026L307.749 108.532C311.48 100.352 314.101 99.2391 317.125 99.2391C320.554 99.2391 322.064 100.955 322.064 103.381C322.064 108.329 311.075 126.208 307.044 138.427H318.133C329.022 106.41 336.179 99.4422 343.134 99.4422C346.563 99.4422 348.376 101.058 348.376 102.977C348.376 108.229 335.977 121.157 335.977 130.147C335.977 134.995 339 139.44 343.134 139.44C348.074 139.44 351.705 135.098 356.844 119.441L355.737 118.935C352.108 126.915 350.292 128.731 348.074 128.731L348.076 128.728Z" fill="#E5FC52"/>
<path d="M47.6879 94.7601C49.9719 94.7601 51.4252 93.5645 51.4252 91.119C51.4252 89.3514 50.3859 88.519 48.8299 88.519C46.5459 88.519 45.0927 89.6117 45.0927 91.9513C45.0927 93.8248 46.1319 94.7601 47.6879 94.7601Z" fill="#E5FC52"/>
<path d="M50.6972 106.67C50.6972 112.13 62.3258 113.275 62.3258 117.539C62.3258 119.619 60.924 120.817 57.3951 120.817C51.5823 120.817 48.83 120.142 49.6608 113.275H48.8814C48.8043 113.675 48.7101 114.073 48.6073 114.467C46.9114 118.014 46.092 118.995 44.9386 118.995C43.9536 118.995 43.2255 118.163 43.2255 116.55C43.2255 113.378 46.7544 106.356 46.7544 103.026C46.7544 100.581 45.3011 98.5014 43.6909 98.5014C41.4583 98.5014 39.9536 101.413 37.4612 108.487L38.0322 108.747C39.9536 104.534 41.2498 103.962 42.7573 103.962C44.2648 103.962 44.99 104.742 44.99 105.781C44.9386 108.641 38.7088 115.194 38.7088 119.979C38.7088 122.425 40.3191 124.658 42.4461 124.658C43.9107 124.658 45.1784 123.815 46.5517 121.306C47.9849 122.628 50.7315 124.658 53.9148 124.658C59.3651 124.658 65.0238 118.469 65.0238 115.037C65.0238 109.367 51.785 110.357 51.785 106.768C51.785 104.948 54.3802 103.075 59.4165 103.075C63.9846 103.075 65.0752 104.116 64.2958 108.641H65.0752C65.6976 105 66.2173 102.609 67.0995 99.5912C66.0088 99.1221 63.465 98.4985 61.0268 98.4985C54.3288 98.4985 50.6972 102.606 50.6972 106.665V106.67Z" fill="#E5FC52"/>
<path d="M146.524 139.005C136.8 143.055 128.397 162.339 122.713 164.702C120.637 165.566 118.071 164.321 116.532 160.6C114.433 155.54 114.81 149.969 124.48 138.659C143.483 131.237 155.206 111.501 155.206 88.2816C155.206 76.2743 149.459 67.1501 139.498 62.9026V44.1022H139.632L170.412 82.2608H178.661V34.2915H171.551V72.4501H171.417L140.637 34.2915H132.389V60.8375C130.233 60.4657 127.946 60.2683 125.537 60.2683C125.46 60.2683 125.385 60.2683 125.308 60.2683C126.11 57.1306 126.53 53.7927 126.53 50.329C126.53 39.869 119.515 32.9243 108.098 32.9243C89.9912 32.9243 78.571 47.0597 78.571 65.4482C78.571 72.6303 81.4689 78.102 86.5566 81.0767C81.0321 89.7604 78.0143 100.624 78.0143 112.611C78.0143 130.496 89.1718 141.806 107.287 141.806C111.441 141.806 115.393 141.308 119.113 140.373C106.919 153.061 103.03 160.818 105.394 166.518C107.481 171.552 113.742 173.06 118.662 171.012C124.891 168.417 137.294 154.145 143.957 151.37C147.343 149.957 149.573 150.701 150.435 152.78C151.435 155.183 150.287 157.977 143.284 165.511L144.331 166.487C158.958 153.853 162.021 147.955 159.797 142.598C157.936 138.107 151.763 136.826 146.516 139.008L146.524 139.005ZM87.0562 67.4905C87.0562 53.0262 94.8876 34.6405 105.98 34.6405C113.811 34.6405 117.971 40.524 117.971 48.6128C117.971 52.6887 117.4 56.9762 116.358 61.0663C105.18 63.0742 96.0382 68.769 89.4859 76.9779C87.9013 74.6125 87.0562 71.4204 87.0562 67.4905ZM115.355 64.4958C112.246 73.8946 106.593 81.5086 99.6727 81.7803C103.698 73.7001 109.069 67.2588 115.355 64.4958ZM91.6728 115.897C91.6728 105.28 94.2966 93.35 98.8419 83.5107C111.301 82.6898 120.529 74.5295 124.452 63.1429C135.552 64.2441 141.425 73.3225 141.425 85.5186C141.425 109.848 128.823 138.911 111.364 138.911C98.8933 138.779 91.6728 130.493 91.6728 115.897Z" fill="#E5FC52"/>
</svg>
