<svg width="278" height="58" viewBox="0 0 278 58" fill="none" xmlns="http://www.w3.org/2000/svg">
<path d="M64.6844 35.0356H64.6328L52.7592 20.2544H49.5772V38.8336H52.3192V24.0539H52.3708L64.2444 38.8336H67.4264V20.2544H64.6844V35.0356Z" fill="#E5FC52"/>
<path d="M12.5846 24.0295C13.2066 23.3965 13.9563 22.9221 14.8378 22.6107C15.7178 22.2978 16.7025 22.1421 17.789 22.1421C18.755 22.1421 19.6107 22.2675 20.3518 22.5198C21.0942 22.7722 21.7234 23.1139 22.2423 23.5479C22.7597 23.982 23.174 24.491 23.485 25.0721C23.796 25.6546 24.0024 26.266 24.1071 26.9076H26.8519C26.7315 25.5191 26.3559 24.3641 25.7253 23.4441C25.0946 22.5242 24.3307 21.7902 23.4334 21.2423C22.5361 20.6958 21.5686 20.3094 20.5338 20.083C19.4989 19.8566 18.5142 19.7441 17.5826 19.7441C15.9945 19.7441 14.5998 19.9965 13.4016 20.4997C12.2019 21.0029 11.1914 21.6936 10.3715 22.5703C9.55167 23.4484 8.93534 24.4765 8.52111 25.6575C8.10688 26.8384 7.89905 28.1059 7.89905 29.4598C7.89905 31.2666 8.18858 32.7936 8.76621 34.0437C9.34384 35.2939 10.0906 36.3061 11.0065 37.079C11.9209 37.8518 12.9572 38.4113 14.1139 38.7588C15.2706 39.1063 16.4345 39.2793 17.6098 39.2793C18.9213 39.2793 20.121 39.0789 21.2089 38.681C22.2968 38.2815 23.2413 37.735 24.044 37.04C24.8466 36.345 25.4902 35.5376 25.9732 34.6176C26.4563 33.6977 26.7501 32.7258 26.8533 31.7006H24.1085C23.7115 33.5232 22.9389 34.844 21.7908 35.6601C20.6427 36.4762 19.2581 36.8843 17.6356 36.8843C16.3585 36.8843 15.2749 36.6752 14.3863 36.2585C13.4976 35.8418 12.7766 35.2996 12.2248 34.6306C11.6716 33.9615 11.2702 33.2016 11.0208 32.3509C10.77 31.5002 10.6453 30.6321 10.6453 29.7468C10.6453 28.4793 10.8144 27.3676 11.1498 26.413C11.4867 25.4585 11.9654 24.664 12.586 24.0295H12.5846Z" fill="#E5FC52"/>
<path d="M86.3076 20.2144H69.5822V22.6094H76.5725V38.8109H79.3173V22.6094H86.3076V20.2144Z" fill="#E5FC52"/>
<path d="M116.87 35.0085H116.819L104.935 20.2144H101.75V38.8109H104.493V24.0167H104.546L116.43 38.8109H119.615V20.2144H116.87V35.0085Z" fill="#E5FC52"/>
<path d="M121.738 22.6094H128.728V38.8109H131.473V22.6094H138.463V20.2144H121.738V22.6094Z" fill="#E5FC52"/>
<path d="M40.2147 19.6836C33.223 19.6836 28.8141 25.1644 28.8141 32.2932C28.8141 36.6017 31.4915 39.3269 35.8374 39.3269C42.766 39.3269 47.3326 33.5607 47.3326 26.4332C47.3326 22.3786 44.6236 19.685 40.2147 19.685V19.6836ZM36.8135 38.629C33.8221 38.5973 32.0892 36.6017 32.0892 33.0848C32.0892 27.4772 35.1121 20.3483 39.3949 20.3483C42.4177 20.3483 44.0245 22.6294 44.0245 25.7656C44.0245 31.6271 41.0016 38.6276 36.812 38.6276L36.8135 38.629Z" fill="#E5FC52"/>
<path d="M99.3006 23.8307C99.3006 21.8725 97.3929 19.4443 94.2009 19.4443C90.113 19.4443 85.1308 24.9655 85.1308 31.1138C85.1308 36.5182 87.3109 39.141 90.2693 39.141C93.6562 39.141 97.1592 35.1858 98.7545 30.2516L98.3647 29.9776C97.0804 33.0316 92.9926 35.2248 90.0729 35.2248C88.3214 35.2248 85.9851 34.2457 85.9851 32.0915C85.9851 31.1513 86.18 30.2112 86.5297 29.2725C95.1325 27.9416 99.2978 26.3353 99.2978 23.8292L99.3006 23.8307ZM94.552 22.9295C96.1086 22.9295 96.7321 23.7124 96.7321 24.4565C96.7321 25.6316 93.6562 27.3158 86.6888 28.8817C88.0519 25.6706 91.2425 22.9295 94.552 22.9295Z" fill="#E5FC52"/>
<path d="M147.539 25.1915C148.42 25.1915 148.982 24.7272 148.982 23.7799C148.982 23.095 148.581 22.772 147.98 22.772C147.099 22.772 146.537 23.1959 146.537 24.1029C146.537 24.8282 146.938 25.1915 147.539 25.1915Z" fill="#E5FC52"/>
<path d="M148.7 29.809C148.7 31.9258 153.189 32.3699 153.189 34.0238C153.189 34.8298 152.647 35.2941 151.286 35.2941C149.041 35.2941 147.979 35.0317 148.299 32.3699H147.998C147.968 32.5242 147.932 32.6785 147.892 32.8328C147.237 34.2084 146.921 34.5876 146.476 34.5876C146.094 34.5876 145.815 34.2646 145.815 33.6402C145.815 32.4103 147.178 29.6879 147.178 28.3974C147.178 27.4501 146.616 26.6426 145.995 26.6426C145.134 26.6426 144.552 27.7716 143.59 30.5141L143.811 30.6151C144.552 28.9814 145.054 28.7608 145.636 28.7608C146.218 28.7608 146.497 29.0636 146.497 29.4659C146.477 30.5747 144.072 33.1154 144.072 34.9711C144.072 35.9185 144.694 36.7865 145.515 36.7865C146.08 36.7865 146.57 36.4578 147.1 35.4859C147.654 35.9978 148.714 36.7865 149.944 36.7865C152.048 36.7865 154.234 34.3872 154.234 33.0563C154.234 30.8588 149.123 31.2409 149.123 29.8509C149.123 29.1458 150.125 28.419 152.07 28.419C153.834 28.419 154.254 28.8228 153.953 30.5762H154.254C154.495 29.1645 154.696 28.2373 155.035 27.0679C154.614 26.8863 153.632 26.644 152.69 26.644C150.105 26.644 148.701 28.2373 148.701 29.8105L148.7 29.809Z" fill="#E5FC52"/>
<path d="M207.815 32.1375C207.815 32.9709 207.68 33.6919 207.413 34.2989C207.145 34.9074 206.765 35.402 206.274 35.7841C205.782 36.1662 205.19 36.4474 204.501 36.6305C203.81 36.8136 203.042 36.9045 202.196 36.9045C201.35 36.9045 200.582 36.8136 199.891 36.6305C199.2 36.4474 198.61 36.1662 198.118 35.7841C197.627 35.402 197.247 34.9074 196.979 34.2989C196.711 33.6904 196.577 32.9709 196.577 32.1375V20.2344H193.833V31.7986C193.833 36.7992 196.62 39.2995 202.196 39.2995C207.772 39.2995 210.559 36.7992 210.559 31.7986V20.2344H207.815V32.1375Z" fill="#E5FC52"/>
<path d="M217.239 30.4187H228.993V28.0222H217.239V22.6294H229.356V20.2344H214.494V38.8309H229.614V36.4358H217.239V30.4187Z" fill="#E5FC52"/>
<path d="M235.465 30.4187H247.221V28.0222H235.465V22.6294H247.583V20.2344H232.721V38.8309H247.841V36.4358H235.465V30.4187Z" fill="#E5FC52"/>
<path d="M268.339 31.0516C266.938 34.1445 266.237 34.8496 265.381 34.8496C264.641 34.8496 264.135 34.2627 264.135 33.0486C264.135 30.6594 266.899 25.0604 266.899 22.8283C266.899 21.0662 265.653 19.3431 263.863 19.3431C261.1 19.3431 258.647 23.3762 254.949 33.9498L254.638 33.8316C255.339 30.5815 256.274 26.2341 256.274 24.5903C256.274 21.1441 255.3 19.3042 254.055 19.3042C252.381 19.3042 251.253 21.4974 249.384 26.8224L249.812 27.0185C251.253 23.8463 252.265 23.4166 253.433 23.4166C254.756 23.4166 255.341 24.0827 255.341 25.0214C255.341 26.9406 251.098 33.872 249.541 38.6101H253.823C258.027 26.1966 260.79 23.4944 263.476 23.4944C264.799 23.4944 265.5 24.1202 265.5 24.8643C265.5 26.9003 260.713 31.9124 260.713 35.3975C260.713 37.2778 261.881 38.9995 263.476 38.9995C265.384 38.9995 266.784 37.3153 268.769 31.2462L268.341 31.0501L268.339 31.0516Z" fill="#E5FC52"/>
<path d="M187.562 38.8356C183.808 40.4059 180.563 47.8823 178.368 48.7993C177.567 49.1338 176.575 48.6522 175.982 47.2089C175.172 45.2479 175.317 43.085 179.053 38.7001C186.389 35.822 190.916 28.1726 190.916 19.1706C190.916 12.6445 186.557 8.31006 179.461 8.31006C168.209 8.31006 161.113 17.1318 161.113 28.6037C161.113 35.5379 165.421 39.9228 172.414 39.9228C174.023 39.9228 175.548 39.7238 176.987 39.359C172.274 44.2832 170.769 47.2911 171.683 49.503C172.489 51.4553 174.907 52.0393 176.806 51.2448C179.211 50.2398 184 44.7042 186.573 43.63C187.88 43.0821 188.741 43.3705 189.074 44.1765C189.459 45.108 189.017 46.1909 186.312 49.1122L186.716 49.49C192.363 44.5918 193.546 42.3049 192.687 40.2271C191.968 38.4867 189.586 37.9892 187.559 38.8356H187.562ZM166.383 29.8769C166.383 20.8519 171.249 9.37997 178.142 9.37997C183.008 9.37997 185.592 13.0511 185.592 18.0993C185.592 27.5324 180.726 38.801 173.985 38.801C169.171 38.7505 166.383 35.5379 166.383 29.8784V29.8769Z" fill="#E5FC52"/>
</svg>
