<svg width="195" height="84" viewBox="0 0 195 84" fill="none" xmlns="http://www.w3.org/2000/svg">
<mask id="mask0_152_1647" style="mask-type:alpha" maskUnits="userSpaceOnUse" x="0" y="67" width="233" height="228">
<rect x="0.257568" y="67.0918" width="232.606" height="227.25" rx="20" fill="#3667ED"/>
</mask>
<g mask="url(#mask0_152_1647)">
</g>
<g clip-path="url(#clip0_152_1647)">
<path d="M135.4 77.5716C132.08 77.6941 129.517 80.4152 129.639 83.6873C129.762 87.0003 132.489 89.5581 135.768 89.4357C139.088 89.3132 141.651 86.5921 141.528 83.32C141.405 80.007 138.679 77.4492 135.4 77.5716Z" fill="#D7CDFB"/>
<path d="M115.426 77.6942C112.167 77.6398 109.495 80.218 109.468 83.4494C109.441 86.6467 111.99 89.2726 115.174 89.327C118.432 89.3814 121.104 86.8032 121.132 83.5718C121.159 80.3745 118.609 77.7486 115.426 77.6942Z" fill="#D7CDFB"/>
<path d="M155.939 77.6947C152.681 77.6607 150.042 80.2661 150.036 83.5043C150.036 86.6948 152.606 89.3003 155.796 89.3343C159.054 89.3683 161.693 86.7628 161.699 83.5247C161.699 80.3342 159.129 77.7287 155.939 77.6947Z" fill="#D7CDFB"/>
<path d="M145.809 67.8232C142.687 67.7824 140.144 70.2926 140.151 73.4015C140.151 76.4628 142.646 78.9458 145.707 78.9526C148.774 78.9594 151.283 76.49 151.304 73.4355C151.324 70.3743 148.863 67.8572 145.809 67.8164V67.8232Z" fill="#D7CDFB"/>
<path d="M125.44 67.8233C122.372 67.8233 119.884 70.3063 119.871 73.3607C119.857 76.4764 122.393 78.9799 125.515 78.9527C128.569 78.9186 131.037 76.4084 131.023 73.3471C131.003 70.2927 128.508 67.8165 125.44 67.8233Z" fill="#D7CDFB"/>
<path d="M95.0298 78.0215C92.0508 78.0215 89.549 80.4909 89.5217 83.4773C89.4944 86.4978 92.0644 89.0488 95.0843 89.0012C98.0769 88.9536 100.545 86.457 100.524 83.4841C100.504 80.5045 98.0088 78.0215 95.0298 78.0215Z" fill="#D7CDFB"/>
<path d="M176.206 78.0212C173.24 77.9736 170.718 80.4226 170.643 83.4158C170.568 86.4159 173.118 89.0009 176.144 89.0009C179.123 89.0009 181.618 86.5179 181.646 83.5383C181.666 80.5654 179.205 78.0688 176.206 78.0212Z" fill="#D7CDFB"/>
<path d="M105.092 78.715C108.091 78.7422 110.491 76.3817 110.497 73.402C110.497 70.47 108.159 68.1026 105.235 68.0754C102.235 68.0482 99.8357 70.4088 99.8289 73.3884C99.8289 76.3204 102.167 78.6878 105.092 78.715Z" fill="#D7CDFB"/>
<path d="M165.96 68.0685C163.029 68.0889 160.677 70.4495 160.67 73.3747C160.67 76.3543 163.056 78.7353 166.048 78.7149C168.98 78.6945 171.332 76.3339 171.338 73.4087C171.338 70.4291 168.952 68.0481 165.96 68.0685Z" fill="#D7CDFB"/>
<path d="M135.577 68.4907C138.44 68.4907 140.84 66.0961 140.819 63.2457C140.799 60.3817 138.385 58.0076 135.529 58.0484C132.693 58.0892 130.382 60.4089 130.348 63.2321C130.321 66.0825 132.707 68.4907 135.577 68.4975V68.4907Z" fill="#D7CDFB"/>
<path d="M115.29 68.3538C118.173 68.3538 120.423 66.1021 120.402 63.2245C120.382 60.4081 118.146 58.1904 115.324 58.1836C112.44 58.1836 110.191 60.4353 110.211 63.3129C110.232 66.1293 112.467 68.347 115.29 68.3538Z" fill="#D7CDFB"/>
<path d="M155.789 68.3606C158.625 68.3878 160.902 66.2313 160.97 63.4421C161.038 60.551 158.857 58.2312 156.014 58.1768C153.124 58.1224 150.813 60.3129 150.772 63.1564C150.731 66.0408 152.94 68.3266 155.796 68.3538L155.789 68.3606Z" fill="#D7CDFB"/>
<path d="M196.336 88.4364C199.083 88.4908 201.347 86.2867 201.36 83.5316C201.374 80.8308 199.22 78.6335 196.507 78.5791C193.759 78.5247 191.496 80.7288 191.482 83.4839C191.469 86.1847 193.616 88.382 196.336 88.4364Z" fill="#D7CDFB"/>
<path d="M74.8039 88.4359C77.5171 88.3951 79.678 86.2114 79.6849 83.5107C79.6849 80.7624 77.4353 78.5379 74.6881 78.5787C71.9749 78.6195 69.8139 80.8032 69.8071 83.5039C69.8071 86.2523 72.0567 88.4768 74.8039 88.4359Z" fill="#D7CDFB"/>
<path d="M186.145 78.2727C188.899 78.3476 191.114 76.2591 191.183 73.5312C191.258 70.7828 189.165 68.5719 186.431 68.5039C183.677 68.4291 181.462 70.5175 181.393 73.2455C181.318 75.9938 183.411 78.2047 186.145 78.2727Z" fill="#D7CDFB"/>
<path d="M84.9408 78.2798C87.6812 78.2526 89.8081 76.0825 89.7808 73.3342C89.7535 70.5994 87.5789 68.477 84.8249 68.5042C82.0845 68.5314 79.9576 70.7015 79.9849 73.4498C80.0121 76.1845 82.1867 78.307 84.9408 78.2798Z" fill="#D7CDFB"/>
<path d="M94.9208 68.0552C97.5521 68.1164 99.7949 65.9463 99.8221 63.3068C99.8494 60.7218 97.7225 58.5381 95.1321 58.4769C92.5008 58.4156 90.258 60.5857 90.2307 63.2252C90.2035 65.8103 92.3303 67.994 94.9208 68.0552Z" fill="#D7CDFB"/>
<path d="M176.131 68.0687C178.783 68.0756 180.964 65.8987 180.95 63.2524C180.944 60.6061 178.742 58.4428 176.09 58.47C173.493 58.4972 171.352 60.6333 171.332 63.2251C171.311 65.8714 173.479 68.0619 176.124 68.0687H176.131Z" fill="#D7CDFB"/>
<path d="M125.488 57.939C128.078 57.9118 130.226 55.7553 130.239 53.1702C130.246 50.5375 128.031 48.3402 125.392 48.3674C122.802 48.3946 120.655 50.5511 120.641 53.1362C120.634 55.7689 122.85 57.9662 125.488 57.939Z" fill="#D7CDFB"/>
<path d="M145.639 57.9395C148.277 57.9871 150.506 55.8102 150.52 53.1707C150.533 50.5856 148.399 48.4155 145.802 48.3611C143.164 48.3135 140.935 50.4904 140.921 53.1299C140.908 55.715 143.041 57.8851 145.639 57.9395Z" fill="#D7CDFB"/>
<path d="M165.912 57.7077C168.455 57.7485 170.541 55.7349 170.568 53.211C170.595 50.6736 168.564 48.6123 166.028 48.5987C163.54 48.5851 161.495 50.5579 161.44 53.0341C161.379 55.5716 163.383 57.6669 165.912 57.7077Z" fill="#D7CDFB"/>
<path d="M105.112 57.7077C107.655 57.7349 109.72 55.7009 109.727 53.1702C109.734 50.6872 107.757 48.6532 105.276 48.5987C102.733 48.5443 100.633 50.5443 100.599 53.0682C100.558 55.6056 102.583 57.6805 105.112 57.7077Z" fill="#D7CDFB"/>
<path d="M135.577 47.3612C138.017 47.3612 139.919 45.47 139.919 43.0414C139.919 40.606 138.024 38.708 135.591 38.708C133.15 38.708 131.248 40.5992 131.248 43.0278C131.248 45.4632 133.143 47.3612 135.577 47.3612Z" fill="#D7CDFB"/>
<path d="M64.5376 77.6881C66.9372 77.7221 68.9073 75.7833 68.9073 73.3956C68.9073 71.0554 67.0053 69.1302 64.6671 69.103C62.2676 69.069 60.2975 71.0078 60.2975 73.3956C60.2975 75.7833 62.1994 77.6609 64.5376 77.6881Z" fill="#D7CDFB"/>
<path d="M74.7426 67.5517C77.0604 67.5517 79.01 65.6197 79.0305 63.3068C79.0509 60.9938 77.1285 59.0346 74.804 58.9938C72.493 58.953 70.5093 60.8578 70.4548 63.1775C70.3934 65.5313 72.3703 67.5517 74.7426 67.5517Z" fill="#D7CDFB"/>
<path d="M196.466 67.5648C198.797 67.5444 200.713 65.6192 200.726 63.2926C200.74 60.9184 198.763 58.9592 196.384 58.9797C194.053 59.0001 192.137 60.9253 192.123 63.2518C192.11 65.626 194.087 67.5852 196.466 67.5648Z" fill="#D7CDFB"/>
<path d="M155.816 47.2857C158.127 47.3197 160.118 45.3673 160.132 43.0476C160.145 40.7414 158.168 38.7686 155.857 38.7754C153.587 38.7822 151.665 40.6734 151.604 42.9455C151.549 45.2381 153.492 47.2449 155.816 47.2789V47.2857Z" fill="#D7CDFB"/>
<path d="M115.29 47.2864C117.601 47.2932 119.578 45.3135 119.564 43.0142C119.55 40.7012 117.56 38.742 115.249 38.7829C112.924 38.8169 110.981 40.8237 111.036 43.123C111.097 45.402 113.02 47.2864 115.29 47.2932V47.2864Z" fill="#D7CDFB"/>
<path d="M54.4418 87.7285C56.7119 87.7421 58.6342 85.8781 58.6956 83.5924C58.757 81.293 56.8141 79.2998 54.4896 79.2862C52.2195 79.2726 50.2971 81.1366 50.2358 83.4223C50.1744 85.7217 52.1173 87.7149 54.4418 87.7285Z" fill="#D7CDFB"/>
<path d="M186.131 57.2996C188.469 57.3881 190.378 55.6057 190.446 53.2724C190.515 50.9866 188.79 49.1227 186.506 49.0002C184.168 48.8778 182.239 50.6193 182.13 52.9595C182.021 55.2928 183.786 57.2112 186.131 57.2996Z" fill="#D7CDFB"/>
<path d="M84.7567 57.2729C87.1154 57.3341 88.9832 55.545 89.0105 53.2116C89.0377 50.9123 87.2858 49.0891 85.0021 49.0279C82.6435 48.9667 80.7756 50.7558 80.7484 53.0892C80.7211 55.3885 82.4662 57.2117 84.7567 57.2729Z" fill="#D7CDFB"/>
<path d="M176.172 46.9524C178.353 46.9388 180.105 45.1496 180.071 42.9795C180.037 40.8503 178.319 39.1428 176.185 39.1155C174.004 39.0883 172.225 40.8503 172.218 43.0272C172.218 45.2041 173.99 46.966 176.165 46.9524H176.172Z" fill="#D7CDFB"/>
<path d="M94.9957 46.9524C97.1771 46.9728 98.9495 45.2109 98.9495 43.034C98.9495 40.8571 97.1703 39.0952 94.9889 39.1224C92.8552 39.1428 91.1305 40.8503 91.0964 42.9796C91.0624 45.1497 92.8143 46.9388 94.9957 46.9592V46.9524Z" fill="#D7CDFB"/>
<path d="M125.345 36.714C127.451 36.7616 129.183 35.1493 129.258 33.0745C129.333 30.918 127.683 29.1561 125.549 29.1085C123.443 29.0608 121.711 30.6731 121.636 32.748C121.561 34.9044 123.211 36.6664 125.345 36.714Z" fill="#D7CDFB"/>
<path d="M145.659 36.7142C147.766 36.7415 149.477 35.1224 149.531 33.0339C149.593 30.8774 147.922 29.1359 145.782 29.1019C143.675 29.0747 141.964 30.6938 141.91 32.7822C141.848 34.9387 143.512 36.6802 145.659 36.7142Z" fill="#D7CDFB"/>
<path d="M165.994 36.4963C168.025 36.4963 169.593 34.9453 169.6 32.9249C169.6 30.8976 168.046 29.333 166.021 29.3262C163.99 29.3262 162.422 30.8772 162.415 32.8976C162.415 34.9249 163.969 36.4895 165.994 36.4963Z" fill="#D7CDFB"/>
<path d="M105.105 36.4764C107.089 36.5036 108.684 34.9934 108.739 33.0342C108.793 31.0001 107.246 29.3743 105.228 29.347C103.244 29.3198 101.649 30.8301 101.595 32.7893C101.54 34.8233 103.087 36.4492 105.105 36.4764Z" fill="#D7CDFB"/>
<path d="M64.6127 56.6872C66.5555 56.6804 68.1506 55.075 68.1438 53.1362C68.137 51.1974 66.5282 49.6055 64.5854 49.6123C62.6426 49.6191 61.0474 51.2246 61.0542 53.1634C61.061 55.1022 62.6698 56.694 64.6127 56.6872Z" fill="#D7CDFB"/>
<path d="M54.4487 66.8168C56.3915 66.8168 57.9866 65.2522 58.0139 63.3134C58.0344 61.3746 56.4801 59.7623 54.5373 59.7283C52.5399 59.6875 50.9038 61.2997 50.9107 63.293C50.9175 65.2318 52.5058 66.81 54.4487 66.8168Z" fill="#D7CDFB"/>
<path d="M44.2982 76.8711C46.1592 76.8847 47.768 75.3132 47.8021 73.4425C47.8362 71.5921 46.2751 69.9662 44.4005 69.9118C42.5054 69.8506 40.8216 71.4969 40.8284 73.4017C40.8352 75.2656 42.4304 76.8575 44.2914 76.8711H44.2982Z" fill="#D7CDFB"/>
<path d="M196.411 46.4155C198.347 46.4223 199.854 44.8917 199.813 42.9597C199.772 41.0821 198.265 39.6331 196.377 39.6535C194.496 39.6739 193.03 41.1638 193.037 43.0481C193.044 44.9325 194.523 46.4019 196.404 46.4155H196.411Z" fill="#D7CDFB"/>
<path d="M74.6949 46.4154C76.6309 46.4426 78.1579 44.9256 78.1307 42.9936C78.1102 41.116 76.6173 39.6534 74.729 39.6602C72.8407 39.667 71.3615 41.1364 71.3546 43.0208C71.3478 44.9051 72.8066 46.395 74.6949 46.4222V46.4154Z" fill="#D7CDFB"/>
<path d="M34.1205 86.7903C35.927 86.8243 37.4472 85.3481 37.4677 83.5386C37.4813 81.7358 35.9884 80.2324 34.1819 80.2324C32.4231 80.2324 30.9507 81.661 30.903 83.4161C30.8484 85.2189 32.3209 86.7495 34.1274 86.7835L34.1205 86.7903Z" fill="#D7CDFB"/>
<path d="M135.556 26.0544C137.288 26.0748 138.794 24.6258 138.849 22.8843C138.91 21.1155 137.397 19.5509 135.611 19.5305C133.879 19.5101 132.373 20.9591 132.318 22.7006C132.257 24.4693 133.77 26.034 135.556 26.0544Z" fill="#D7CDFB"/>
<path d="M84.7975 36.0477C86.5972 36.0953 88.0356 34.6939 88.0288 32.9048C88.0288 31.1565 86.6586 29.7891 84.9066 29.7755C83.1615 29.7619 81.764 31.1156 81.7367 32.8572C81.7095 34.5987 83.0524 36.0069 84.7907 36.0545L84.7975 36.0477Z" fill="#D7CDFB"/>
<path d="M115.358 25.8909C117.117 25.8637 118.432 24.5031 118.412 22.7344C118.385 20.9793 117.021 19.6663 115.249 19.6868C113.49 19.714 112.174 21.0745 112.195 22.8433C112.222 24.5984 113.585 25.9113 115.358 25.8909Z" fill="#D7CDFB"/>
<path d="M155.837 25.8908C157.602 25.9044 158.959 24.5778 158.973 22.8159C158.986 21.054 157.657 19.7002 155.891 19.6866C154.126 19.673 152.769 20.9996 152.755 22.7615C152.742 24.5234 154.071 25.8772 155.837 25.8908Z" fill="#D7CDFB"/>
<path d="M186.336 36.0476C188.081 36.0204 189.437 34.6326 189.431 32.8911C189.417 31.1428 188.047 29.7822 186.295 29.7754C184.55 29.7754 183.159 31.1291 183.139 32.8707C183.118 34.6666 184.536 36.0816 186.336 36.0544V36.0476Z" fill="#D7CDFB"/>
<path d="M176.076 25.5648C177.617 25.6056 178.919 24.3335 178.919 22.796C178.919 21.3062 177.699 20.0613 176.213 20.0205C174.672 19.9797 173.37 21.2518 173.37 22.7892C173.37 24.279 174.59 25.524 176.076 25.5648Z" fill="#D7CDFB"/>
<path d="M94.8594 25.5573C96.3864 25.6526 97.743 24.4281 97.7975 22.8906C97.852 21.4144 96.6727 20.1151 95.1866 20.0199C93.6596 19.9246 92.3031 21.1491 92.2485 22.6866C92.194 24.1628 93.3733 25.4621 94.8594 25.5573Z" fill="#D7CDFB"/>
<path d="M54.4145 45.5848C55.8665 45.6052 56.9981 44.5167 57.0186 43.0745C57.039 41.6255 55.9483 40.4963 54.5032 40.4759C53.0511 40.4555 51.9195 41.5439 51.8991 42.9861C51.8786 44.4351 52.9693 45.5644 54.4145 45.5848Z" fill="#D7CDFB"/>
<path d="M44.2641 55.7148C45.723 55.742 46.8546 54.6807 46.8955 53.2385C46.9364 51.7827 45.8866 50.6399 44.4482 50.5854C42.9416 50.5242 41.7691 51.6263 41.7555 53.1229C41.7419 54.5719 42.8189 55.6875 44.2641 55.7148Z" fill="#D7CDFB"/>
<path d="M145.782 15.1766C147.125 15.1426 148.263 13.9453 148.229 12.6187C148.195 11.2786 146.995 10.1425 145.666 10.1765C144.323 10.2105 143.185 11.4078 143.219 12.7344C143.253 14.0745 144.453 15.2106 145.782 15.1766Z" fill="#D7CDFB"/>
<path d="M34.1546 65.7687C35.4907 65.7823 36.67 64.6327 36.6837 63.2925C36.6973 61.9592 35.5452 60.7823 34.2023 60.7687C32.8662 60.7551 31.6868 61.9047 31.6732 63.2449C31.6596 64.5782 32.8116 65.7551 34.1546 65.7687Z" fill="#D7CDFB"/>
<path d="M125.399 15.1763C126.735 15.2035 127.922 14.0607 127.949 12.7205C127.976 11.3872 126.831 10.2035 125.488 10.1763C124.152 10.149 122.966 11.2919 122.938 12.6321C122.911 13.9654 124.056 15.1491 125.399 15.1763Z" fill="#D7CDFB"/>
<path d="M64.5785 35.3337C65.8874 35.3474 66.9986 34.2861 67.0326 32.9664C67.0667 31.6602 66.0101 30.5378 64.6944 30.4833C63.3379 30.4289 62.1722 31.5514 62.179 32.9119C62.179 34.2249 63.2697 35.3133 64.5785 35.3269V35.3337Z" fill="#D7CDFB"/>
<path d="M24.0588 75.6533C25.2722 75.6397 26.3015 74.6193 26.3084 73.4084C26.3152 72.1975 25.3063 71.1567 24.086 71.1294C22.8726 71.1022 21.816 72.1023 21.7751 73.3132C21.7274 74.5717 22.7976 75.6601 24.0588 75.6533Z" fill="#D7CDFB"/>
<path d="M165.974 14.8908C167.167 14.9112 168.244 13.8364 168.223 12.6459C168.203 11.4962 167.187 10.4826 166.035 10.4622C164.842 10.4418 163.765 11.5166 163.785 12.7071C163.806 13.8568 164.821 14.8704 165.974 14.8908Z" fill="#D7CDFB"/>
<path d="M105.187 14.8907C106.339 14.8771 107.355 13.8634 107.382 12.7138C107.403 11.5233 106.332 10.4484 105.139 10.462C103.987 10.4756 102.972 11.4893 102.944 12.6389C102.924 13.8294 103.994 14.9043 105.187 14.8907Z" fill="#D7CDFB"/>
<path d="M196.404 24.8638C197.597 24.8774 198.49 23.9998 198.504 22.8161C198.518 21.6256 197.638 20.7345 196.452 20.7209C195.259 20.7073 194.366 21.5848 194.352 22.7685C194.339 23.959 195.218 24.8502 196.404 24.8638Z" fill="#D7CDFB"/>
<path d="M74.7221 24.8504C75.9151 24.864 76.8081 23.9729 76.8013 22.7824C76.8013 21.5987 75.8878 20.7143 74.7017 20.7347C73.57 20.7551 72.7111 21.6055 72.6838 22.7347C72.6566 23.9252 73.536 24.83 74.7221 24.8436V24.8504Z" fill="#D7CDFB"/>
<path d="M13.9016 85.3067C14.8968 85.3067 15.6671 84.5652 15.7012 83.572C15.7353 82.5244 14.9446 81.7148 13.9016 81.7148C12.9063 81.7148 12.136 82.4564 12.1019 83.4496C12.0678 84.4972 12.8586 85.3067 13.9016 85.3067Z" fill="#D7CDFB"/>
<path d="M155.912 4.46907C157.004 4.46907 157.889 3.58581 157.889 2.49625C157.889 1.4067 157.004 0.523438 155.912 0.523438C154.82 0.523438 153.935 1.4067 153.935 2.49625C153.935 3.58581 154.82 4.46907 155.912 4.46907Z" fill="#D7CDFB"/>
<path d="M186.288 14.4417C187.38 14.4417 188.265 13.5585 188.265 12.4689C188.265 11.3794 187.38 10.4961 186.288 10.4961C185.196 10.4961 184.311 11.3794 184.311 12.4689C184.311 13.5585 185.196 14.4417 186.288 14.4417Z" fill="#D7CDFB"/>
<path d="M23.8133 55.347C24.9052 55.347 25.7902 54.4637 25.7902 53.3742C25.7902 52.2846 24.9052 51.4014 23.8133 51.4014C22.7215 51.4014 21.8364 52.2846 21.8364 53.3742C21.8364 54.4637 22.7215 55.347 23.8133 55.347Z" fill="#D7CDFB"/>
<path d="M33.9842 44.7484C35.076 44.7484 35.9611 43.8651 35.9611 42.7756C35.9611 41.686 35.076 40.8027 33.9842 40.8027C32.8924 40.8027 32.0073 41.686 32.0073 42.7756C32.0073 43.8651 32.8924 44.7484 33.9842 44.7484Z" fill="#D7CDFB"/>
<path d="M44.155 34.1429C44.155 34.1429 44.1891 34.1429 44.2027 34.1429C44.2027 34.1429 44.2027 34.1429 44.2095 34.1497C44.2095 34.1497 44.2164 34.1497 44.2232 34.1429C45.2798 34.1089 46.1319 33.245 46.1319 32.1769C46.1319 31.1089 45.2457 30.2041 44.155 30.2041C43.0643 30.2041 42.1781 31.0885 42.1781 32.1769C42.1781 33.2654 43.0643 34.1497 44.155 34.1497V34.1429Z" fill="#D7CDFB"/>
<path d="M54.3259 23.9866C55.4166 23.9866 56.3028 23.1023 56.3028 22.0138C56.3028 20.9254 55.4166 20.041 54.3259 20.041C53.2352 20.041 52.349 20.9254 52.349 22.0138C52.349 23.1023 53.2352 23.9866 54.3259 23.9866Z" fill="#D7CDFB"/>
<path d="M115.31 4.47587C116.401 4.47587 117.287 3.59151 117.287 2.50306C117.287 1.41461 116.401 0.523438 115.31 0.523438C114.219 0.523438 113.333 1.4078 113.333 2.49625C113.333 3.5847 114.219 4.46907 115.31 4.46907V4.47587Z" fill="#D7CDFB"/>
<path d="M84.9952 14.7073C86.0859 14.7073 86.9721 13.823 86.9721 12.7345C86.9721 11.6461 86.0859 10.7617 84.9952 10.7617C83.9045 10.7617 83.0183 11.6461 83.0183 12.7345C83.0183 13.823 83.9045 14.7073 84.9952 14.7073Z" fill="#D7CDFB"/>
<path d="M135.563 4.53743C136.654 4.53743 137.54 3.65306 137.54 2.56461C137.54 1.47616 136.654 0.591797 135.563 0.591797C134.473 0.591797 133.586 1.47616 133.586 2.56461C133.586 3.65306 134.473 4.53743 135.563 4.53743Z" fill="#D7CDFB"/>
</g>
<defs>
<clipPath id="clip0_152_1647">
<rect x="1.78784" y="0.523438" width="267.803" height="268.568" rx="20" fill="white"/>
</clipPath>
</defs>
</svg>
