<?xml version="1.0" encoding="UTF-8"?><svg id="Layer_1" xmlns="http://www.w3.org/2000/svg" viewBox="0 0 834.94 874.21"><defs><style>.cls-1{fill:#df0;stroke-width:0px;}</style></defs><path class="cls-1" d="m646.68,603.49c-10.97-26.4-47.31-33.94-78.22-21.11-57.27,23.8-106.76,137.18-140.24,151.07-12.23,5.08-27.34-2.24-36.41-24.12-12.35-29.74-10.16-62.5,46.8-128.98,111.93-43.63,180.98-159.65,180.98-296.17,0-98.96-66.49-164.68-174.72-164.68-171.64,0-279.87,133.75-279.87,307.71,0,105.14,65.72,171.63,172.4,171.63,24.47,0,47.73-2.93,69.64-8.43-71.81,74.59-94.72,120.19-80.79,153.7,12.28,29.6,49.17,38.45,78.14,26.42,36.69-15.25,109.73-99.16,148.99-115.47,19.95-8.3,33.08-3.93,38.16,8.3,5.89,14.13-.88,30.55-42.12,74.84l6.17,5.73c86.13-74.27,104.18-108.94,91.09-140.44Zm-401.27-156.95c0-136.85,74.22-310.8,179.36-310.8,74.22,0,113.65,55.66,113.65,132.2,0,143.03-74.22,313.89-177.05,313.89-73.45-.77-115.97-49.48-115.97-135.29Z"/></svg>