<svg width="348" height="264" viewBox="0 0 348 264" fill="none" xmlns="http://www.w3.org/2000/svg">
<path d="M-25.318 274.615C-25.3904 284.486 -17.5718 292.382 -7.72623 292.364C1.95647 292.346 9.73884 284.54 9.75694 274.851C9.75694 265.143 2.01077 257.32 -7.67193 257.283C-17.3908 257.247 -25.2456 264.962 -25.318 274.634V274.615Z" fill="#FF7300"/>
<path d="M28.9775 274.851C29.0137 284.359 36.6151 291.948 46.1168 291.911C55.6186 291.875 63.2018 284.269 63.1656 274.76C63.1294 265.252 55.5281 257.664 46.0263 257.7C36.5246 257.736 28.9413 265.343 28.9775 274.851Z" fill="#FF7300"/>
<path d="M19.2587 231.149C10.1913 231.059 2.51753 238.629 2.44514 247.757C2.35465 256.831 9.91982 264.491 19.0415 264.582C28.1088 264.654 35.7645 257.102 35.855 247.974C35.9274 238.901 28.3803 231.222 19.2587 231.149Z" fill="#FF7300"/>
<path d="M99.9237 258.769C91.3088 258.769 84.0694 265.868 83.8703 274.543C83.6893 283.254 90.9468 290.716 99.7246 290.861C108.448 290.988 115.868 283.689 115.941 274.905C116.013 266.158 108.683 258.769 99.9237 258.769Z" fill="#FF7300"/>
<path d="M73.5361 231.892C64.9031 231.457 57.3198 238.611 57.0121 247.485C56.7226 256.052 63.6543 263.405 72.4321 263.839C81.065 264.274 88.6483 257.12 88.956 248.246C89.2456 239.68 82.3138 232.327 73.5361 231.892Z" fill="#FF7300"/>
<path d="M-8.26918 205.124C-17.0832 205.45 -23.8882 212.694 -23.5624 221.406C-23.2366 230.226 -15.9973 237.035 -7.29187 236.709C1.5221 236.383 8.32716 229.139 8.00139 220.428C7.67562 211.608 0.436205 204.798 -8.26918 205.124Z" fill="#FF7300"/>
<path d="M46.2616 205.45C37.6105 205.36 30.6064 212.296 30.5883 220.917C30.5883 229.411 37.4115 236.347 45.8816 236.438C54.5326 236.528 61.5368 229.592 61.5549 220.971C61.5549 212.477 54.7317 205.541 46.2616 205.45Z" fill="#FF7300"/>
<path d="M19.3673 179.171C11.0781 179.062 4.3274 185.745 4.3455 194.022C4.3455 202.172 10.9695 208.782 19.0958 208.8C27.2401 208.818 33.9004 202.244 33.9547 194.112C34.009 185.963 27.4754 179.261 19.3673 179.153V179.171Z" fill="#FF7300"/>
<path d="M126.963 233.178C119.09 233.087 112.375 239.607 112.158 247.558C111.941 255.545 118.638 262.445 126.709 262.535C134.582 262.626 141.297 256.106 141.514 248.155C141.731 240.169 135.035 233.268 126.963 233.178Z" fill="#FF7300"/>
<path d="M100.068 206.319C92.1956 206.192 85.4992 212.712 85.3001 220.681C85.101 228.668 91.8699 235.55 99.9056 235.55C107.815 235.55 114.439 228.94 114.511 221.007C114.565 213.093 108.032 206.446 100.068 206.319Z" fill="#FF7300"/>
<path d="M153.821 260.489C145.821 260.453 139.505 266.683 139.451 274.67C139.378 282.82 145.731 289.195 153.875 289.14C161.857 289.086 168.101 282.802 168.083 274.797C168.083 266.792 161.821 260.525 153.839 260.489H153.821Z" fill="#FF7300"/>
<path d="M72.8664 179.823C65.0841 179.877 58.8401 186.162 58.822 193.95C58.822 201.882 65.1565 208.221 73.1017 208.167C80.8841 208.112 87.128 201.828 87.1461 194.04C87.1461 186.108 80.8117 179.769 72.8664 179.823Z" fill="#FF7300"/>
<path d="M-7.79865 180.946C-0.197273 180.946 6.17341 174.571 6.11911 166.983C6.06482 159.358 -0.342045 153.037 -7.92532 153.146C-15.4543 153.255 -21.5897 159.43 -21.6802 166.946C-21.7526 174.535 -15.4181 180.946 -7.79865 180.964V180.946Z" fill="#FF7300"/>
<path d="M45.8635 180.602C53.3924 180.674 59.4373 174.933 59.6183 167.508C59.7993 159.811 54.0078 153.635 46.4607 153.49C38.7869 153.345 32.6515 159.177 32.543 166.747C32.4344 174.426 38.2983 180.511 45.8816 180.584L45.8635 180.602Z" fill="#FF7300"/>
<path d="M153.513 234.047C160.807 234.192 166.816 228.324 166.852 220.989C166.888 213.799 161.169 207.949 153.966 207.804C146.672 207.659 140.663 213.527 140.627 220.862C140.591 228.052 146.292 233.902 153.513 234.047Z" fill="#FF7300"/>
<path d="M126.456 206.989C133.768 207.189 139.65 201.629 139.831 194.366C140.03 187.049 134.474 181.163 127.216 180.982C119.904 180.783 114.022 186.343 113.841 193.606C113.642 200.922 119.199 206.808 126.456 206.989Z" fill="#FF7300"/>
<path d="M180.806 260.742C187.919 260.688 193.511 255.037 193.529 247.902C193.529 240.621 187.828 234.952 180.516 235.007C173.404 235.061 167.811 240.712 167.793 247.847C167.793 255.128 173.494 260.797 180.806 260.742Z" fill="#FF7300"/>
<path d="M99.8694 179.823C106.91 179.841 112.701 174.046 112.665 167.001C112.647 159.956 106.801 154.196 99.7608 154.269C92.8653 154.341 87.1824 160.028 87.1281 166.928C87.0738 173.973 92.8291 179.805 99.8513 179.823H99.8694Z" fill="#FF7300"/>
<path d="M18.9148 152.856C25.9189 152.982 31.8371 147.187 31.8733 140.16C31.9095 133.278 26.2447 127.5 19.3491 127.356C12.345 127.229 6.42681 133.024 6.39061 140.051C6.35442 146.933 12.0192 152.711 18.9148 152.856Z" fill="#FF7300"/>
<path d="M207.447 287.185C214.361 287.275 219.899 281.86 219.971 274.96C220.062 268.041 214.668 262.499 207.755 262.427C200.841 262.336 195.303 267.752 195.23 274.652C195.14 281.57 200.551 287.112 207.447 287.185Z" fill="#FF7300"/>
<path d="M72.7397 152.24C79.4905 152.349 85.0286 146.988 85.101 140.269C85.1734 133.513 79.78 128.026 73.0474 127.989C66.4414 127.953 61.0119 133.205 60.8671 139.798C60.7042 146.553 66.0252 152.131 72.7397 152.24Z" fill="#FF7300"/>
<path d="M-7.79863 124.693C-1.31936 124.693 3.73014 119.658 3.73014 113.193C3.73014 106.709 -1.30126 101.656 -7.76243 101.656C-14.2417 101.656 -19.2912 106.691 -19.2912 113.157C-19.2912 119.64 -14.2598 124.693 -7.79863 124.693Z" fill="#FF7300"/>
<path d="M180.498 205.432C186.869 205.522 192.099 200.361 192.099 193.986C192.099 187.756 187.05 182.63 180.842 182.558C174.471 182.467 169.241 187.629 169.241 194.004C169.241 200.234 174.29 205.359 180.498 205.432Z" fill="#FF7300"/>
<path d="M153.857 178.483C160.047 178.429 165.133 173.303 165.169 167.109C165.205 160.788 159.957 155.573 153.64 155.627C147.45 155.681 142.365 160.807 142.329 167.001C142.292 173.321 147.541 178.537 153.857 178.483Z" fill="#FF7300"/>
<path d="M45.9358 124.494C52.0712 124.585 57.356 119.387 57.3922 113.211C57.4284 107.071 52.1798 101.819 46.0444 101.837C40.0176 101.856 34.9138 106.89 34.751 112.939C34.6062 119.043 39.7642 124.386 45.9358 124.476V124.494Z" fill="#FF7300"/>
<path d="M207.411 232.236C213.383 232.363 218.578 227.455 218.885 221.369C219.193 215.302 214.161 209.887 207.954 209.634C201.891 209.38 196.497 214.469 196.298 220.663C196.099 226.748 201.239 232.109 207.411 232.236Z" fill="#FF7300"/>
<path d="M126.42 151.153C132.628 151.389 137.695 146.644 137.876 140.432C138.057 134.347 133.478 129.384 127.415 129.058C121.208 128.732 116.086 133.369 115.796 139.599C115.507 145.811 120.194 150.918 126.42 151.153Z" fill="#FF7300"/>
<path d="M234.45 258.642C240.332 258.678 245.2 253.897 245.273 248.029C245.345 242.143 240.621 237.235 234.739 237.108C228.731 236.981 223.736 241.889 223.754 247.902C223.754 253.788 228.568 258.606 234.45 258.642Z" fill="#FF7300"/>
<path d="M99.978 123.607C105.77 123.571 110.421 118.807 110.33 113.03C110.24 107.361 105.679 102.815 100.014 102.743C94.2227 102.671 89.499 107.361 89.4809 113.157C89.4809 118.952 94.1865 123.643 99.9599 123.607H99.978Z" fill="#FF7300"/>
<path d="M18.9691 96.35C24.5615 96.4224 29.1042 92.1121 29.249 86.552C29.4119 80.8109 24.9778 76.1745 19.2948 76.0839C13.7024 76.0115 9.15968 80.3219 9.01489 85.8819C8.85201 91.6231 13.268 96.2594 18.9691 96.35Z" fill="#FF7300"/>
<path d="M72.9569 95.7705C78.3503 95.7705 82.5129 91.6412 82.531 86.2623C82.531 80.8653 78.4046 76.6998 73.0293 76.6816C67.6359 76.6816 63.4733 80.8109 63.4552 86.1899C63.4552 91.5869 67.5817 95.7524 72.9569 95.7705Z" fill="#FF7300"/>
<path d="M207.61 176.527C212.822 176.527 217.003 172.416 217.057 167.218C217.13 161.857 212.931 157.583 207.592 157.583C202.379 157.583 198.199 161.694 198.144 166.892C198.072 172.253 202.271 176.527 207.61 176.527Z" fill="#FF7300"/>
<path d="M180.516 149.524C185.674 149.614 190 145.413 190.09 140.269C190.181 135.107 185.982 130.779 180.842 130.688C175.684 130.598 171.359 134.8 171.268 139.943C171.178 145.105 175.376 149.433 180.516 149.524Z" fill="#FF7300"/>
<path d="M234.721 203.277C239.717 203.132 243.879 198.821 243.807 193.859C243.734 188.86 239.445 184.659 234.486 184.677C229.509 184.695 225.274 188.933 225.238 193.913C225.202 199.003 229.672 203.403 234.721 203.259V203.277Z" fill="#FF7300"/>
<path d="M153.713 122.176C158.852 122.194 162.852 118.119 162.744 112.976C162.635 107.977 158.635 104.12 153.622 104.174C148.627 104.228 144.736 108.195 144.754 113.211C144.772 118.228 148.699 122.14 153.694 122.176H153.713Z" fill="#FF7300"/>
<path d="M261.272 229.664C266.068 229.755 270.104 225.825 270.158 221.007C270.194 216.208 266.231 212.206 261.435 212.206C256.765 212.206 252.856 216.009 252.729 220.681C252.585 225.481 256.494 229.556 261.29 229.646L261.272 229.664Z" fill="#FF7300"/>
<path d="M-7.85292 67.97C-3.2559 68.0243 0.743877 64.1667 0.888666 59.5303C1.05155 54.8215 -2.96632 50.656 -7.70813 50.6016C-12.3052 50.5473 -16.3049 54.4049 -16.4497 59.0413C-16.6126 63.7501 -12.5947 67.9157 -7.85292 67.97Z" fill="#FF7300"/>
<path d="M45.9901 67.5355C50.6777 67.5717 54.2793 64.0401 54.3155 59.3494C54.3517 54.6586 50.8224 51.0546 46.1349 51.0183C41.4474 50.9821 37.8458 54.5137 37.8096 59.2045C37.7734 63.8952 41.3026 67.4993 45.9901 67.5355Z" fill="#FF7300"/>
<path d="M126.963 94.5752C131.596 94.5028 135.198 90.8081 135.18 86.1717C135.143 81.5172 131.506 77.8951 126.854 77.877C122.221 77.877 118.529 81.481 118.475 86.1174C118.42 90.8987 122.185 94.6658 126.963 94.5933V94.5752Z" fill="#FF7300"/>
<path d="M288.528 255.78C292.818 255.671 296.437 251.85 296.274 247.612C296.112 243.428 292.51 239.951 288.365 239.951C284.094 239.951 280.402 243.682 280.456 247.956C280.511 252.23 284.293 255.907 288.528 255.78Z" fill="#FF7300"/>
<path d="M99.7246 66.6662C103.815 66.7749 107.272 63.3882 107.272 59.2951C107.272 55.3288 104.032 52.0145 100.087 51.9059C95.9963 51.7972 92.5395 55.1839 92.5395 59.277C92.5395 63.2433 95.7792 66.5576 99.7246 66.6662Z" fill="#FF7300"/>
<path d="M234.378 147.024C238.395 147.096 241.436 144.09 241.418 140.088C241.418 136.212 238.504 133.278 234.649 133.205C230.631 133.133 227.591 136.139 227.609 140.142C227.609 144.018 230.523 146.952 234.378 147.024Z" fill="#FF7300"/>
<path d="M207.737 119.966C211.573 119.894 214.451 116.887 214.379 113.03C214.306 109.19 211.302 106.311 207.447 106.383C203.61 106.456 200.732 109.462 200.805 113.32C200.877 117.159 203.882 120.039 207.737 119.966Z" fill="#FF7300"/>
<path d="M261 173.756C264.711 174.01 268.005 171.039 268.149 167.309C268.294 163.723 265.453 160.571 261.869 160.336C258.159 160.082 254.865 163.053 254.72 166.783C254.575 170.369 257.417 173.521 261 173.756Z" fill="#FF7300"/>
<path d="M19.2948 39.0108C22.8602 38.9202 25.8827 35.7327 25.7922 32.2011C25.7017 28.6332 22.5164 25.6087 18.9872 25.6992C15.4218 25.7898 12.3993 28.9773 12.4898 32.5089C12.5803 36.0768 15.7656 39.1013 19.2948 39.0108Z" fill="#FF7300"/>
<path d="M180.77 92.6736C184.263 92.6193 187.122 89.6853 187.104 86.208C187.104 82.7126 184.209 79.8149 180.716 79.7786C177.114 79.7424 174.091 82.8213 174.2 86.4253C174.309 89.9207 177.277 92.746 180.752 92.6917L180.77 92.6736Z" fill="#FF7300"/>
<path d="M288.311 200.017C291.533 200.053 294.302 197.355 294.374 194.131C294.446 190.907 291.804 188.1 288.564 187.973C285.361 187.846 282.501 190.472 282.339 193.696C282.158 197.029 284.945 199.981 288.311 200.017Z" fill="#FF7300"/>
<path d="M72.9026 38.2504C76.0699 38.3048 78.9294 35.4432 78.8751 32.2738C78.8208 29.2131 76.1241 26.5146 73.0655 26.4602C69.8983 26.4059 67.0387 29.2674 67.093 32.4368C67.1473 35.4976 69.844 38.1961 72.9026 38.2504Z" fill="#FF7300"/>
<path d="M153.694 64.8009C156.862 64.8372 159.233 62.5009 159.269 59.3496C159.305 56.1802 156.97 53.8076 153.821 53.7714C150.654 53.7352 148.283 56.0715 148.247 59.2228C148.211 62.3922 150.545 64.7647 153.694 64.8009Z" fill="#FF7300"/>
<path d="M310.771 222.474C310.808 222.601 310.844 222.728 310.898 222.836C311.097 223.325 311.387 223.76 311.731 224.158C312.69 225.281 314.101 226.024 315.712 226.024C318.608 226.024 320.961 223.669 320.961 220.772C320.961 217.874 318.608 215.52 315.712 215.52C312.816 215.52 310.464 217.874 310.464 220.772C310.464 221.206 310.536 221.605 310.627 222.003C310.663 222.166 310.717 222.329 310.771 222.474Z" fill="#FF7300"/>
<path d="M46.1892 10.5043C49.0879 10.5043 51.4378 8.15285 51.4378 5.25216C51.4378 2.35147 49.0879 0 46.1892 0C43.2905 0 40.9407 2.35147 40.9407 5.25216C40.9407 8.15285 43.2905 10.5043 46.1892 10.5043Z" fill="#FF7300"/>
<path d="M126.836 37.0551C129.735 37.0551 132.085 34.7036 132.085 31.8029C132.085 28.9023 129.735 26.5508 126.836 26.5508C123.937 26.5508 121.588 28.9023 121.588 31.8029C121.588 34.7036 123.937 37.0551 126.836 37.0551Z" fill="#FF7300"/>
<path d="M207.23 64.9638C210.128 64.9638 212.478 62.6123 212.478 59.7116C212.478 56.8109 210.128 54.4595 207.23 54.4595C204.331 54.4595 201.981 56.8109 201.981 59.7116C201.981 62.6123 204.331 64.9638 207.23 64.9638Z" fill="#FF7300"/>
<path d="M235.301 91.1884C238.196 91.1884 240.549 88.834 240.549 85.9362C240.549 83.0385 238.196 80.6841 235.301 80.6841C232.405 80.6841 230.052 83.0385 230.052 85.9362C230.052 88.834 232.405 91.1884 235.301 91.1884Z" fill="#FF7300"/>
<path d="M263.082 118.282C265.978 118.282 268.33 115.928 268.33 113.03C268.33 110.132 265.978 107.778 263.082 107.778C260.186 107.778 257.833 110.132 257.833 113.03C257.833 115.928 260.186 118.282 263.082 118.282Z" fill="#FF7300"/>
<path d="M289.813 145.358C292.709 145.358 295.062 143.003 295.062 140.106C295.062 137.208 292.709 134.854 289.813 134.854C286.918 134.854 284.565 137.208 284.565 140.106C284.565 143.003 286.918 145.358 289.813 145.358Z" fill="#FF7300"/>
<path d="M342.751 253.081C345.65 253.081 348 250.73 348 247.829C348 244.929 345.65 242.577 342.751 242.577C339.853 242.577 337.503 244.929 337.503 247.829C337.503 250.73 339.853 253.081 342.751 253.081Z" fill="#FF7300"/>
</svg>
