<svg width="217" height="137" viewBox="0 0 217 137" fill="none" xmlns="http://www.w3.org/2000/svg">
<mask id="mask0_36_2874" style="mask-type:alpha" maskUnits="userSpaceOnUse" x="0" y="87" width="304" height="297">
<rect y="87" width="304" height="297" rx="20" fill="#3667ED"/>
</mask>
<g mask="url(#mask0_36_2874)">
</g>
<path d="M168.229 134.811C168.193 139.657 172.042 143.533 176.889 143.524C181.655 143.515 185.486 139.683 185.495 134.927C185.495 130.161 181.682 126.321 176.915 126.303C172.131 126.285 168.264 130.072 168.229 134.82V134.811Z" fill="#FF7300"/>
<path d="M194.957 134.927C194.974 139.595 198.716 143.32 203.394 143.302C208.071 143.284 211.804 139.55 211.786 134.883C211.768 130.215 208.026 126.49 203.349 126.507C198.672 126.525 194.939 130.259 194.957 134.927Z" fill="#FF7300"/>
<path d="M141.938 134.918C141.938 139.586 145.68 143.311 150.357 143.311C155.034 143.311 158.767 139.577 158.767 134.909C158.767 130.241 155.025 126.516 150.348 126.516C145.671 126.516 141.938 130.25 141.938 134.918Z" fill="#FF7300"/>
<path d="M190.172 113.474C185.709 113.429 181.931 117.145 181.896 121.626C181.851 126.081 185.575 129.842 190.065 129.886C194.529 129.922 198.298 126.214 198.342 121.733C198.378 117.279 194.663 113.509 190.172 113.474Z" fill="#FF7300"/>
<path d="M163.765 113.5C159.32 113.376 155.498 117.074 155.408 121.573C155.319 126.018 159.034 129.815 163.534 129.877C167.997 129.93 171.784 126.205 171.81 121.724C171.837 117.323 168.22 113.625 163.765 113.509V113.5Z" fill="#FF7300"/>
<path d="M123.834 127.032C119.584 127.041 116.03 130.544 115.958 134.802C115.878 139.088 119.46 142.742 123.781 142.786C128.084 142.831 131.719 139.248 131.745 134.936C131.763 130.641 128.137 127.023 123.834 127.032Z" fill="#FF7300"/>
<path d="M216.891 113.838C212.641 113.624 208.908 117.136 208.757 121.493C208.614 125.698 212.027 129.308 216.348 129.521C220.597 129.735 224.33 126.223 224.482 121.866C224.624 117.661 221.212 114.051 216.891 113.838Z" fill="#FF7300"/>
<path d="M137.091 113.855C132.823 113.864 129.286 117.394 129.269 121.653C129.242 125.903 132.761 129.45 137.038 129.503C141.341 129.557 144.993 125.929 144.949 121.626C144.904 117.358 141.359 113.847 137.1 113.855H137.091Z" fill="#FF7300"/>
<path d="M176.621 100.697C172.283 100.857 168.933 104.414 169.093 108.69C169.253 113.02 172.817 116.363 177.102 116.203C181.441 116.043 184.791 112.487 184.631 108.21C184.47 103.88 180.907 100.537 176.621 100.697Z" fill="#FF7300"/>
<path d="M150.517 100.857C146.259 100.786 142.766 104.156 142.731 108.379C142.695 112.557 146.027 115.989 150.188 116.06C154.446 116.131 157.939 112.762 157.974 108.539C158.01 104.36 154.678 100.928 150.517 100.857Z" fill="#FF7300"/>
<path d="M203.465 100.857C199.206 100.813 195.758 104.218 195.75 108.45C195.75 112.62 199.108 116.025 203.278 116.07C207.536 116.114 210.984 112.709 210.993 108.477C210.993 104.307 207.634 100.902 203.465 100.857Z" fill="#FF7300"/>
<path d="M190.226 87.9566C186.145 87.9033 182.822 91.184 182.831 95.2471C182.831 99.248 186.092 102.493 190.092 102.502C194.101 102.511 197.38 99.2835 197.407 95.2916C197.433 91.2907 194.217 88.0011 190.226 87.9478V87.9566Z" fill="#FF7300"/>
<path d="M163.605 87.9566C159.596 87.9566 156.344 91.2017 156.326 95.1937C156.308 99.2657 159.622 102.537 163.703 102.502C167.694 102.457 170.919 99.1768 170.902 95.1759C170.875 91.1839 167.614 87.9477 163.605 87.9566Z" fill="#FF7300"/>
<path d="M110.55 114.469C106.657 114.505 103.396 117.75 103.369 121.644C103.343 125.583 106.693 128.925 110.639 128.89C114.533 128.854 117.794 125.609 117.82 121.715C117.847 117.776 114.497 114.433 110.55 114.469Z" fill="#FF7300"/>
<path d="M123.861 101.284C119.967 101.284 116.698 104.512 116.662 108.415C116.626 112.362 119.985 115.696 123.932 115.634C127.843 115.572 131.068 112.309 131.042 108.423C131.015 104.529 127.754 101.284 123.861 101.284Z" fill="#FF7300"/>
<path d="M97.4448 127.876C93.498 127.832 90.362 130.855 90.2996 134.767C90.2283 138.768 93.3288 141.933 97.329 141.942C101.267 141.951 104.367 138.892 104.394 134.971C104.421 131.042 101.374 127.93 97.4537 127.876H97.4448Z" fill="#FF7300"/>
<path d="M137.011 102.191C140.931 102.226 144.067 99.1411 144.076 95.247C144.076 91.415 141.02 88.321 137.198 88.2855C133.278 88.2499 130.142 91.335 130.133 95.2292C130.133 99.0611 133.189 102.155 137.011 102.191Z" fill="#FF7300"/>
<path d="M216.562 88.2765C212.731 88.3032 209.657 91.3883 209.648 95.2114C209.648 99.1055 212.766 102.217 216.677 102.191C220.508 102.164 223.582 99.0789 223.591 95.2558C223.591 91.3616 220.473 88.2499 216.562 88.2765Z" fill="#FF7300"/>
<path d="M176.853 88.8282C180.595 88.8282 183.731 85.6987 183.704 81.9734C183.677 78.2304 180.524 75.1275 176.791 75.1809C173.084 75.2342 170.064 78.266 170.02 81.9556C169.984 85.6809 173.102 88.8282 176.853 88.8371V88.8282Z" fill="#FF7300"/>
<path d="M150.339 88.6501C154.108 88.6501 157.048 85.7073 157.021 81.9465C156.994 78.2657 154.072 75.3673 150.384 75.3584C146.615 75.3584 143.675 78.3013 143.702 82.0621C143.728 85.7429 146.651 88.6413 150.339 88.6501Z" fill="#FF7300"/>
<path d="M203.269 88.659C206.975 88.6945 209.951 85.8761 210.04 82.2309C210.129 78.4523 207.278 75.4206 203.563 75.3494C199.785 75.2783 196.765 78.1412 196.712 81.8575C196.658 85.6272 199.545 88.6145 203.278 88.6501L203.269 88.659Z" fill="#FF7300"/>
<path d="M97.427 114.896C100.973 114.842 103.797 111.988 103.806 108.459C103.806 104.867 100.866 101.96 97.2755 102.013C93.7297 102.066 90.9054 104.92 90.8965 108.45C90.8965 112.042 93.8366 114.949 97.427 114.896Z" fill="#FF7300"/>
<path d="M110.675 101.622C114.257 101.586 117.036 98.7499 117.001 95.158C116.965 91.5839 114.123 88.81 110.524 88.8456C106.942 88.8811 104.162 91.7173 104.198 95.3092C104.234 98.8833 107.076 101.657 110.675 101.622Z" fill="#FF7300"/>
<path d="M84.0275 128.001C87.6179 128.027 90.4332 125.245 90.4243 121.662C90.4243 118.159 87.6625 115.385 84.1611 115.358C80.5707 115.331 77.7554 118.114 77.7643 121.697C77.7643 125.2 80.5262 127.974 84.0275 128.001Z" fill="#FF7300"/>
<path d="M123.718 88.2592C127.157 88.3392 130.088 85.503 130.124 82.0534C130.16 78.6749 127.38 75.8209 123.994 75.7409C120.555 75.6609 117.624 78.4971 117.589 81.9467C117.553 85.3252 120.333 88.1791 123.718 88.2592Z" fill="#FF7300"/>
<path d="M163.667 75.0385C167.053 75.0029 169.859 72.1845 169.877 68.806C169.886 65.3653 166.99 62.4936 163.543 62.5291C160.157 62.5647 157.351 65.3831 157.333 68.7616C157.324 72.2023 160.219 75.0741 163.667 75.0385Z" fill="#FF7300"/>
<path d="M190.003 75.0383C193.451 75.1005 196.364 72.2555 196.382 68.8058C196.4 65.4273 193.611 62.5912 190.217 62.52C186.769 62.4578 183.856 65.3029 183.838 68.7525C183.82 72.131 186.609 74.9672 190.003 75.0383Z" fill="#FF7300"/>
<path d="M70.8953 140.982C74.2986 140.955 76.9625 138.243 76.9357 134.847C76.909 131.451 74.1917 128.792 70.7883 128.819C67.385 128.846 64.7211 131.557 64.7479 134.954C64.7746 138.35 67.4919 141.008 70.8953 140.982Z" fill="#FF7300"/>
<path d="M216.499 74.7359C219.822 74.7893 222.549 72.1576 222.584 68.8591C222.62 65.5428 219.965 62.8489 216.651 62.8311C213.399 62.8134 210.726 65.3917 210.655 68.628C210.575 71.9442 213.194 74.6826 216.499 74.7359Z" fill="#FF7300"/>
<path d="M137.038 74.7363C140.361 74.7718 143.06 72.1135 143.069 68.8061C143.078 65.561 140.494 62.9026 137.251 62.8315C133.928 62.7604 131.184 65.3743 131.14 68.6728C131.086 71.989 133.732 74.7007 137.038 74.7363Z" fill="#FF7300"/>
<path d="M176.853 61.2134C180.042 61.2134 182.528 58.7418 182.528 55.5677C182.528 52.3848 180.051 49.9043 176.871 49.9043C173.681 49.9043 171.196 52.3759 171.196 55.55C171.196 58.7329 173.672 61.2134 176.853 61.2134Z" fill="#FF7300"/>
<path d="M84.0097 100.848C87.1457 100.893 89.7205 98.3588 89.7205 95.2381C89.7205 92.1797 87.2348 89.6636 84.1789 89.628C81.0429 89.5836 78.4681 92.1174 78.4681 95.2381C78.4681 98.3588 80.9538 100.813 84.0097 100.848Z" fill="#FF7300"/>
<path d="M97.3468 87.601C100.376 87.601 102.924 85.076 102.951 82.0531C102.977 79.0303 100.465 76.4697 97.427 76.4164C94.4068 76.363 91.8142 78.8525 91.7429 81.8842C91.6627 84.9604 94.2464 87.601 97.3468 87.601Z" fill="#FF7300"/>
<path d="M203.305 61.1156C206.325 61.16 208.926 58.6084 208.944 55.5766C208.962 52.5626 206.378 49.9843 203.358 49.9932C200.391 50.0021 197.879 52.4737 197.799 55.4433C197.727 58.4395 200.267 61.0622 203.305 61.1067V61.1156Z" fill="#FF7300"/>
<path d="M150.339 61.1153C153.359 61.1242 155.943 58.537 155.925 55.5319C155.907 52.509 153.306 49.9485 150.286 50.0018C147.248 50.0462 144.708 52.669 144.78 55.6741C144.86 58.6525 147.372 61.1153 150.339 61.1242V61.1153Z" fill="#FF7300"/>
<path d="M70.8151 113.971C73.7818 113.989 76.2943 111.553 76.3744 108.565C76.4546 105.56 73.9155 102.955 70.8774 102.938C67.9106 102.92 65.3982 105.356 65.3181 108.343C65.2379 111.348 67.777 113.953 70.8151 113.971Z" fill="#FF7300"/>
<path d="M110.435 74.1673C113.517 74.2473 115.958 71.909 115.994 68.8595C116.03 65.8544 113.74 63.4717 110.755 63.3916C107.673 63.3116 105.232 65.6499 105.196 68.6994C105.16 71.7045 107.441 74.0873 110.435 74.1673Z" fill="#FF7300"/>
<path d="M57.6472 126.97C60.5427 126.934 62.8947 124.551 62.8858 121.662C62.8769 118.772 60.5071 116.407 57.6116 116.398C54.716 116.39 52.3284 118.737 52.2927 121.617C52.2571 124.569 54.6893 126.996 57.6472 126.97Z" fill="#FF7300"/>
<path d="M123.816 60.6795C126.667 60.7062 128.984 58.4035 128.984 55.5584C128.984 52.7134 126.658 50.4106 123.807 50.4462C121.019 50.4729 118.765 52.7045 118.72 55.4873C118.676 58.3235 120.965 60.6617 123.816 60.6884V60.6795Z" fill="#FF7300"/>
<path d="M163.48 47.2992C166.233 47.3614 168.496 45.2543 168.594 42.5426C168.692 39.7242 166.536 37.4215 163.747 37.3593C160.995 37.297 158.732 39.4041 158.634 42.1158C158.536 44.9342 160.692 47.2369 163.48 47.2992Z" fill="#FF7300"/>
<path d="M190.03 47.2989C192.783 47.3344 195.019 45.2184 195.09 42.4889C195.17 39.6706 192.988 37.3945 190.19 37.3501C187.437 37.3145 185.201 39.4305 185.13 42.16C185.049 44.9784 187.223 47.2544 190.03 47.2989Z" fill="#FF7300"/>
<path d="M44.3546 139.826C47.0274 139.808 49.2992 137.505 49.2636 134.847C49.219 132.233 47.0095 130.028 44.3991 129.993C41.7353 129.957 39.4278 132.224 39.41 134.891C39.401 137.559 41.6818 139.844 44.3635 139.826H44.3546Z" fill="#FF7300"/>
<path d="M216.606 47.0145C219.261 47.0145 221.31 44.9874 221.319 42.3468C221.319 39.6973 219.288 37.6524 216.642 37.6436C213.987 37.6436 211.938 39.6707 211.929 42.3112C211.929 44.9607 213.96 47.0056 216.606 47.0145Z" fill="#FF7300"/>
<path d="M137.029 46.988C139.621 47.0235 141.706 45.0498 141.777 42.4892C141.849 39.8309 139.826 37.706 137.189 37.6704C134.596 37.6348 132.512 39.6086 132.44 42.1691C132.369 44.8275 134.392 46.9524 137.029 46.988Z" fill="#FF7300"/>
<path d="M84.1077 73.4027C86.6468 73.3938 88.7316 71.2956 88.7227 68.7617C88.7138 66.2278 86.6112 64.1474 84.072 64.1563C81.5329 64.1652 79.4481 66.2634 79.457 68.7973C79.466 71.3312 81.5685 73.4116 84.1077 73.4027Z" fill="#FF7300"/>
<path d="M70.824 86.6407C73.3631 86.6407 75.4479 84.5958 75.4835 82.0619C75.5102 79.5281 73.4789 77.4209 70.9398 77.3765C68.3294 77.3231 66.1912 79.4303 66.2001 82.0353C66.209 84.5691 68.2848 86.6318 70.824 86.6407Z" fill="#FF7300"/>
<path d="M57.5581 99.7815C59.9903 99.7993 62.0929 97.7455 62.1375 95.3006C62.182 92.8823 60.1418 90.7574 57.6917 90.6862C55.215 90.6062 53.0144 92.7578 53.0233 95.2472C53.0322 97.6833 55.117 99.7638 57.5492 99.7815H57.5581Z" fill="#FF7300"/>
<path d="M97.2844 59.9775C99.8147 60.0131 101.81 58.0304 101.775 55.5055C101.748 53.0516 99.7969 51.1401 97.329 51.149C94.8611 51.1578 92.9278 53.0783 92.9189 55.541C92.91 58.0038 94.8166 59.9509 97.2844 59.9864V59.9775Z" fill="#FF7300"/>
<path d="M44.2566 112.744C46.6175 112.789 48.6043 110.859 48.631 108.494C48.6488 106.138 46.6977 104.173 44.3368 104.173C42.0382 104.173 40.1138 106.04 40.0514 108.334C39.9801 110.69 41.9045 112.691 44.2655 112.735L44.2566 112.744Z" fill="#FF7300"/>
<path d="M176.826 33.3674C179.089 33.394 181.058 31.5003 181.129 29.2243C181.21 26.9127 179.232 24.8678 176.898 24.8411C174.635 24.8144 172.666 26.7082 172.594 28.9842C172.514 31.2958 174.492 33.3407 176.826 33.3674Z" fill="#FF7300"/>
<path d="M110.488 46.4279C112.84 46.4902 114.72 44.6586 114.711 42.3204C114.711 40.0354 112.92 38.2484 110.631 38.2306C108.35 38.2128 106.523 39.9821 106.488 42.2581C106.452 44.5342 108.207 46.3746 110.479 46.4368L110.488 46.4279Z" fill="#FF7300"/>
<path d="M150.428 33.1536C152.727 33.1181 154.446 31.3399 154.42 29.0283C154.384 26.7345 152.602 25.0186 150.286 25.0452C147.987 25.0808 146.268 26.859 146.294 29.1706C146.33 31.4644 148.112 33.1803 150.428 33.1536Z" fill="#FF7300"/>
<path d="M203.331 33.154C205.639 33.1717 207.412 31.438 207.43 29.1353C207.447 26.8326 205.71 25.0633 203.403 25.0455C201.095 25.0278 199.322 26.7615 199.304 29.0642C199.286 31.3669 201.024 33.1362 203.331 33.154Z" fill="#FF7300"/>
<path d="M31.1154 125.547C33.218 125.52 35.0088 123.689 34.9553 121.608C34.9019 119.501 33.0487 117.741 30.964 117.821C28.9059 117.901 27.2132 119.644 27.2043 121.68C27.2043 123.778 29.0129 125.574 31.1154 125.547Z" fill="#FF7300"/>
<path d="M123.638 32.718C125.634 32.8425 127.407 31.2422 127.478 29.2328C127.549 27.3035 126.008 25.6054 124.066 25.4809C122.07 25.3564 120.297 26.9568 120.226 28.9661C120.155 30.8954 121.696 32.5936 123.638 32.718Z" fill="#FF7300"/>
<path d="M70.7794 58.8927C72.6771 58.9194 74.156 57.4968 74.1828 55.612C74.2095 53.7182 72.784 52.2424 70.8953 52.2157C68.9976 52.189 67.5187 53.6116 67.4919 55.4964C67.4652 57.3901 68.8907 58.866 70.7794 58.8927Z" fill="#FF7300"/>
<path d="M57.5136 72.1312C59.4201 72.1667 60.8991 70.7798 60.9525 68.8949C61.006 66.9923 59.634 65.4986 57.7541 65.4275C55.7852 65.3475 54.2528 66.7878 54.235 68.7438C54.2171 70.6375 55.6248 72.0956 57.5136 72.1312Z" fill="#FF7300"/>
<path d="M190.19 19.1509C191.945 19.1065 193.433 17.5417 193.389 15.808C193.344 14.0565 191.776 12.5718 190.039 12.6162C188.284 12.6607 186.796 14.2254 186.84 15.9592C186.885 17.7106 188.453 19.1954 190.19 19.1509Z" fill="#FF7300"/>
<path d="M44.3011 85.2717C46.0473 85.2895 47.5886 83.7869 47.6065 82.0355C47.6243 80.2929 46.1186 78.7548 44.3635 78.737C42.6173 78.7192 41.076 80.2217 41.0582 81.9732C41.0403 83.7158 42.546 85.2539 44.3011 85.2717Z" fill="#FF7300"/>
<path d="M163.551 19.1506C165.298 19.1862 166.848 17.6925 166.884 15.941C166.919 14.1984 165.422 12.6514 163.667 12.6159C161.921 12.5803 160.371 14.0739 160.335 15.8254C160.3 17.568 161.796 19.115 163.551 19.1506Z" fill="#FF7300"/>
<path d="M17.7694 138.154C19.5156 138.19 21.0747 136.669 21.0925 134.927C21.1014 133.184 19.5601 131.646 17.8139 131.655C16.1301 131.673 14.6422 133.113 14.5799 134.802C14.5175 136.536 16.0232 138.118 17.7783 138.154H17.7694Z" fill="#FF7300"/>
<path d="M84.0631 45.4945C85.7737 45.5122 87.2259 44.1253 87.2705 42.4005C87.315 40.6934 85.9341 39.2264 84.2146 39.1553C82.4416 39.0842 80.9182 40.5512 80.9271 42.3293C80.9271 44.0453 82.3526 45.4678 84.0631 45.4856V45.4945Z" fill="#FF7300"/>
<path d="M31.1065 98.1899C32.6924 98.1722 34.0377 96.8385 34.0466 95.256C34.0555 93.6734 32.7369 92.3131 31.1422 92.2776C29.5563 92.242 28.1754 93.5489 28.1219 95.1315C28.0596 96.7763 29.4583 98.1988 31.1065 98.1899Z" fill="#FF7300"/>
<path d="M216.579 18.7775C218.138 18.8042 219.546 17.3995 219.519 15.8436C219.493 14.341 218.165 13.0163 216.66 12.9896C215.1 12.963 213.693 14.3677 213.719 15.9236C213.746 17.4261 215.074 18.7509 216.579 18.7775Z" fill="#FF7300"/>
<path d="M137.136 18.7773C138.641 18.7596 139.969 17.4348 140.004 15.9323C140.031 14.3764 138.632 12.9716 137.073 12.9894C135.568 13.0072 134.24 14.3319 134.204 15.8345C134.178 17.3904 135.576 18.7951 137.136 18.7773Z" fill="#FF7300"/>
<path d="M97.3201 31.7935C98.8792 31.8112 100.046 30.6465 100.037 29.0906C100.037 27.5436 98.8436 26.3878 97.2934 26.4145C95.8144 26.4412 94.6919 27.5525 94.6562 29.0284C94.6206 30.5843 95.7699 31.7668 97.3201 31.7846V31.7935Z" fill="#FF7300"/>
<path d="M17.8317 110.806C19.1325 110.806 20.1392 109.837 20.1838 108.539C20.2283 107.17 19.1949 106.112 17.8317 106.112C16.531 106.112 15.5242 107.081 15.4797 108.379C15.4352 109.748 16.4686 110.806 17.8317 110.806Z" fill="#FF7300"/>
<path d="M203.429 5.15667C204.856 5.15667 206.013 4.00231 206.013 2.57833C206.013 1.15436 204.856 0 203.429 0C202.002 0 200.846 1.15436 200.846 2.57833C200.846 4.00231 202.002 5.15667 203.429 5.15667Z" fill="#FF7300"/>
<path d="M4.94005 118.692C3.51457 118.692 2.35637 119.848 2.35637 121.271C2.35637 122.693 3.51457 123.849 4.94005 123.849C6.36553 123.849 7.52374 122.693 7.52374 121.271C7.52374 119.848 6.36553 118.692 4.94005 118.692Z" fill="#FF7300"/>
<path d="M30.7858 71.6508C32.2127 71.6508 33.3695 70.4964 33.3695 69.0725C33.3695 67.6485 32.2127 66.4941 30.7858 66.4941C29.3589 66.4941 28.2021 67.6485 28.2021 69.0725C28.2021 70.4964 29.3589 71.6508 30.7858 71.6508Z" fill="#FF7300"/>
<path d="M44.0784 57.7992C45.5053 57.7992 46.6621 56.6449 46.6621 55.2209C46.6621 53.7969 45.5053 52.6426 44.0784 52.6426C42.6515 52.6426 41.4947 53.7969 41.4947 55.2209C41.4947 56.6449 42.6515 57.7992 44.0784 57.7992Z" fill="#FF7300"/>
<path d="M57.371 43.9383C57.371 43.9383 57.4156 43.9383 57.4334 43.9383C57.4334 43.9383 57.4334 43.9383 57.4423 43.9472C57.4423 43.9472 57.4512 43.9472 57.4601 43.9383C58.841 43.8938 59.9547 42.7647 59.9547 41.3689C59.9547 39.973 58.7965 38.7905 57.371 38.7905C55.9455 38.7905 54.7873 39.9463 54.7873 41.3689C54.7873 42.7914 55.9455 43.9472 57.371 43.9472V43.9383Z" fill="#FF7300"/>
<path d="M70.6636 30.6645C72.0891 30.6645 73.2473 29.5087 73.2473 28.0861C73.2473 26.6636 72.0891 25.5078 70.6636 25.5078C69.2381 25.5078 68.0799 26.6636 68.0799 28.0861C68.0799 29.5087 69.2381 30.6645 70.6636 30.6645Z" fill="#FF7300"/>
<path d="M150.366 5.16556C151.791 5.16556 152.949 4.00975 152.949 2.58722C152.949 1.1647 151.791 0 150.366 0C148.94 0 147.782 1.1558 147.782 2.57833C147.782 4.00086 148.94 5.15667 150.366 5.15667V5.16556Z" fill="#FF7300"/>
<path d="M110.746 18.5375C112.172 18.5375 113.33 17.3817 113.33 15.9592C113.33 14.5367 112.172 13.3809 110.746 13.3809C109.321 13.3809 108.163 14.5367 108.163 15.9592C108.163 17.3817 109.321 18.5375 110.746 18.5375Z" fill="#FF7300"/>
<path d="M176.835 5.24553C178.261 5.24553 179.419 4.08973 179.419 2.6672C179.419 1.24467 178.261 0.0888672 176.835 0.0888672C175.41 0.0888672 174.251 1.24467 174.251 2.6672C174.251 4.08973 175.41 5.24553 176.835 5.24553Z" fill="#FF7300"/>
</svg>
