<?xml version="1.0" encoding="UTF-8"?><svg id="Layer_1" xmlns="http://www.w3.org/2000/svg" viewBox="0 0 200 200"><defs><style>.cls-1{fill:#372721;stroke-width:0px;}</style></defs><path class="cls-1" d="m152.48,112.51c-7.27-4.2-16.41-2.2-21.33,4.35l-29.49-17.03,29.26-16.89c4.92,6.54,14.06,8.55,21.33,4.35,7.86-4.54,10.55-14.58,6.01-22.44-4.54-7.86-14.58-10.55-22.44-6.01-7.27,4.2-10.11,13.11-6.9,20.64l-29.03,16.76v-34.68c8.13-.99,14.43-7.9,14.43-16.3,0-9.07-7.36-16.43-16.43-16.43s-16.43,7.36-16.43,16.43c0,8.39,6.3,15.31,14.43,16.3v34.95l-30.5-17.61c3.21-7.53.37-16.45-6.9-20.64-7.86-4.54-17.91-1.84-22.44,6.01-4.54,7.86-1.84,17.91,6.01,22.44,7.27,4.2,16.41,2.2,21.33-4.35l30.26,17.47-30.5,17.61c-4.92-6.54-14.06-8.55-21.33-4.35-7.86,4.54-10.55,14.58-6.01,22.44,4.54,7.86,14.58,10.55,22.44,6.01,7.27-4.2,10.11-13.11,6.9-20.64l30.73-17.74v34.32c-8.13.99-14.43,7.9-14.43,16.3,0,9.07,7.36,16.43,16.43,16.43s16.43-7.36,16.43-16.43c0-8.39-6.3-15.31-14.43-16.3v-34.06l29.26,16.9c-3.21,7.53-.37,16.45,6.9,20.64,7.86,4.54,17.91,1.84,22.44-6.01,4.54-7.86,1.84-17.91-6.01-22.44Z"/></svg>