<?xml version="1.0" encoding="UTF-8"?><svg id="Layer_1" xmlns="http://www.w3.org/2000/svg" viewBox="0 0 200 200"><defs><style>.cls-1{fill:#372721;stroke-width:0px;}</style></defs><path class="cls-1" d="m114.03,105.42c-2.54-2.48-5.45-3.64-9.15-3.64-.18,0-.35,0-.53,0-9.83.32-15.44,14.79-17.9,23.39-1.92,6.68-3.05,13.43-3.69,18.32l37.79-25.6c-1.28-4.67-3.31-9.34-6.52-12.48Z"/><path class="cls-1" d="m58.75,125.5v31.38h4.28l8.34-5.65c-.37-1.9-4.11-20.04-12.61-25.73Z"/><path class="cls-1" d="m58.75,24.05v89.79c5.1,1.44,10.89,5.33,15.86,14.41,3.88-16.73,12.12-36.59,29.4-37.14.29,0,.59-.01.87-.01,6.26,0,11.68,2.11,16.13,6.24V28.32h28.49v128.55h4.28V24.05H58.75Z"/><path class="cls-1" d="m129.4,123.71c-1.14-7.56-3.81-17.45-10.13-23.63-3.93-3.84-8.76-5.78-14.39-5.78-.26,0-.52,0-.78.01-18.79.61-25.81,28.48-28.3,44.71-.7-2.01-1.53-4.15-2.53-6.28-5.04-10.8-11.85-16.44-19.81-16.44-.7,0-1.41.04-2.13.13-22.09,2.71-26.39,45.04-24.97,63.94.08,1.12,1.02,1.98,2.13,1.98.05,0,.11,0,.16,0,1.18-.09,2.06-1.12,1.97-2.29-1.43-19,3.45-57.2,21.22-59.37.54-.07,1.07-.1,1.59-.1,15.74,0,21.05,29.96,21.11,30.27.18,1.03,1.07,1.78,2.09,1.78.04,0,.09,0,.13,0,1.08-.06,1.95-.92,2.02-2.01,0-.13.83-13.29,4.57-26.33,3.3-11.53,9.61-25.35,20.88-25.71.21,0,.42,0,.63,0,4.52,0,8.26,1.48,11.39,4.55,5.4,5.28,7.79,14.12,8.85,21.03-5.36,1.51-9.3,6.42-9.3,12.27,0,7.04,5.71,12.76,12.76,12.76s12.76-5.71,12.76-12.76-5.28-12.29-11.94-12.71Z"/></svg>