<?xml version="1.0" encoding="UTF-8"?><svg id="Layer_1" xmlns="http://www.w3.org/2000/svg" viewBox="0 0 200 200"><defs><style>.cls-1{fill:#372721;stroke-width:0px;}</style></defs><path class="cls-1" d="m124.93,64.51c0-4.88-2.51-8.42-7.24-8.42-6.7,0-11.43,11.08-11.43,19.8,0,5.47,2.71,8.57,7.39,8.62,6.55,0,11.28-10.89,11.28-20Z"/><path class="cls-1" d="m117.57,46.98c-15.66,0-28.35,12.69-28.35,28.35,0,4.43,1.02,8.62,2.83,12.36-4.05,2.84-7.3,6.48-9.62,10.84-7.59-3.94-15.31-5.23-21.63-2.26-9.83,4.63-14,15.54-14.74,26.65l-.14-.02c-6.52-.85-12.09,1.74-15.3,7.1-6.24,10.42-2.04,27.72,11.24,46.28.43.59,1.09.91,1.77.91.44,0,.88-.13,1.27-.41.98-.7,1.2-2.06.5-3.04-14.41-20.14-15.16-34.65-11.05-41.51,2.31-3.86,6.22-5.64,11.01-5.02.19.03.39.06.58.09.06,5.83,1,11.5,2.48,16.1,3.3,10.27,8.92,15.72,15.05,14.6,4.88-.9,7.61-4.15,7.48-8.93-.12-4.77-3.14-10.82-8.06-16.18-3.92-4.27-8.42-7.39-12.81-8.98.75-12.42,6.83-21.01,12.58-23.72,5.07-2.38,11.51-1.2,18,2.23-1.38,3.65-2.22,7.69-2.48,12.07-.94,16.17,6.46,33.93,16.51,39.59,4.46,2.51,9.14,2.35,13.19-.44,7.82-5.39,7.97-16.46.4-29.62-5.32-9.25-13.43-17.84-22.05-23.32,1.76-3.35,4.32-6.62,8.01-9.29,5.12,7.39,13.65,12.24,23.32,12.24,15.66,0,28.35-12.69,28.35-28.35s-12.69-28.35-28.35-28.35Zm-50.98,102.21c.07,2.62-1.14,4.02-3.92,4.53-3.65.69-7.63-3.9-10.11-11.65-1.54-4.79-2.32-9.3-2.51-13.46,8.38,3.81,16.37,14.01,16.55,20.58Zm37.92-22.98c2.36,4.11,9.42,17.99.9,23.87-2.68,1.85-5.57,1.93-8.58.23-7.66-4.31-15.23-19.62-14.3-35.54.16-2.75.66-6.33,1.97-10.04,7.72,5.09,15.14,13.01,20.01,21.49Zm21.51-31.37l-.39-.37c2.63-2.82,3.06-3.87,2.68-4.77-.32-.78-1.16-1.06-2.43-.53-2.5,1.04-7.16,6.39-9.49,7.36-1.85.77-4.2.2-4.98-1.68-.89-2.14.57-5.04,5.15-9.79-1.4.35-2.88.54-4.44.54-6.8,0-10.99-4.24-10.99-10.94,0-11.08,6.9-19.61,17.83-19.61,6.9,0,11.13,4.19,11.13,10.49,0,8.7-4.4,16.09-11.53,18.87-3.63,4.24-3.77,6.32-2.98,8.22.58,1.39,1.54,1.86,2.32,1.54,2.13-.89,5.29-8.11,8.94-9.63,1.97-.82,4.29-.34,4.98,1.35.83,2.01-.32,4.22-5.8,8.95Z"/><path class="cls-1" d="m153.4,91.53c-.7-.93-2.02-1.11-2.94-.41-.93.7-1.11,2.02-.41,2.94l8.85,11.71c.7.93,2.02,1.11,2.94.41.93-.7,1.11-2.02.41-2.94l-8.85-11.71Z"/><path class="cls-1" d="m174.89,81.85c-.32-.43-.81-.73-1.39-.81l-14.54-2.03c-1.15-.16-2.21.64-2.37,1.79-.16,1.15.64,2.21,1.79,2.37l14.54,2.03c1.15.16,2.21-.64,2.37-1.79.08-.57-.08-1.13-.4-1.56Z"/><path class="cls-1" d="m156.58,69.57l11.71-8.85c.93-.7,1.11-2.02.41-2.94-.7-.93-2.02-1.11-2.94-.41l-11.71,8.85c-.93.7-1.11,2.02-.41,2.94.7.93,2.02,1.11,2.94.41Z"/><path class="cls-1" d="m91.33,42.5c.13,1.15,1.17,1.98,2.33,1.85,1.15-.13,1.98-1.17,1.85-2.32l-1.66-14.59c-.13-1.15-1.17-1.98-2.33-1.85-1.15.13-1.98,1.17-1.85,2.32l1.66,14.59Z"/><path class="cls-1" d="m68.68,41.31l11.49,9.14c.91.72,2.23.57,2.95-.34.72-.91.57-2.23-.34-2.95l-11.49-9.14c-.91-.72-2.23-.57-2.95.34-.36.45-.5,1.01-.44,1.55.06.53.33,1.05.78,1.41Z"/><path class="cls-1" d="m63.3,65.62l14.59-1.66c1.15-.13,1.98-1.17,1.85-2.32-.13-1.15-1.17-1.98-2.33-1.85l-14.59,1.66c-1.15.13-1.98,1.17-1.85,2.32.13,1.15,1.17,1.98,2.32,1.85Z"/></svg>