<?xml version="1.0" encoding="UTF-8"?><svg id="Layer_1" xmlns="http://www.w3.org/2000/svg" viewBox="0 0 200 200"><defs><style>.cls-1{fill:#372721;stroke-width:0px;}</style></defs><path class="cls-1" d="m131.86,43.29c-11.86,0-22.86,3.7-31.93,10-9.07-6.3-20.08-10-31.93-10-30.97,0-56.16,25.19-56.16,56.16s25.19,56.16,56.16,56.16c11.86,0,22.86-3.7,31.93-10,9.07,6.3,20.08,10,31.93,10,30.97,0,56.16-25.19,56.16-56.16s-25.19-56.16-56.16-56.16Zm-63.87,108.32c-28.76,0-52.16-23.4-52.16-52.16s23.4-52.16,52.16-52.16c10.53,0,20.34,3.15,28.55,8.54-12.7,10.3-20.84,26.03-20.84,43.62s8.14,33.31,20.84,43.62c-8.21,5.39-18.02,8.54-28.55,8.54Zm63.87,0c-10.53,0-20.34-3.15-28.55-8.54,12.7-10.3,20.84-26.03,20.84-43.62s-8.14-33.31-20.84-43.62c8.21-5.39,18.02-8.54,28.55-8.54,28.76,0,52.16,23.4,52.16,52.16s-23.4,52.16-52.16,52.16Z"/></svg>