<?xml version="1.0" encoding="UTF-8"?><svg id="Layer_1" xmlns="http://www.w3.org/2000/svg" viewBox="0 0 200 200"><defs><style>.cls-1{fill:#372721;stroke-width:0px;}</style></defs><path class="cls-1" d="m174.64,119.63c-.59-3.24-1.57-6.3-2.89-9.16l8.64-7.32-12.94-15.28-8.65,7.33c-5.25-3.59-11.4-5.85-17.92-6.44l-2.02-11.15-19.7,3.56,2.02,11.15c-5.9,2.83-10.87,7.1-14.53,12.3l-10.67-3.83-6.77,18.85,10.66,3.83c-.24,3.13-.09,6.35.5,9.59.59,3.24,1.57,6.3,2.89,9.16l-8.64,7.32,12.94,15.28,8.65-7.33c5.25,3.59,11.4,5.85,17.92,6.44l2.02,11.15,19.7-3.56-2.02-11.15c5.9-2.83,10.87-7.1,14.53-12.3l10.67,3.83,6.77-18.85-10.66-3.83c.24-3.13.09-6.35-.5-9.59Zm-33.42,27.25c-11.34,2.05-22.2-5.48-24.25-16.82-2.05-11.34,5.48-22.2,16.82-24.25s22.2,5.48,24.25,16.82c2.05,11.34-5.48,22.2-16.82,24.25Z"/><path class="cls-1" d="m100.06,69.82c-.74-3.21-1.87-6.22-3.33-9l8.28-7.73-13.67-14.63-8.29,7.74c-5.42-3.33-11.67-5.29-18.21-5.56l-2.56-11.04-19.51,4.52,2.56,11.04c-5.76,3.11-10.51,7.63-13.91,13l-10.85-3.31-5.84,19.15,10.83,3.3c-.08,3.14.22,6.35.97,9.55.74,3.21,1.87,6.22,3.33,9l-8.28,7.73,13.67,14.63,8.29-7.74c5.42,3.33,11.67,5.29,18.21,5.56l2.56,11.04,19.51-4.52-2.56-11.04c5.76-3.11,10.51-7.63,13.91-13l10.85,3.31,5.84-19.15-10.83-3.3c.08-3.14-.22-6.35-.97-9.55Zm-32.05,28.85c-11.23,2.6-22.44-4.39-25.04-15.62-2.6-11.23,4.39-22.44,15.62-25.04,11.23-2.6,22.44,4.39,25.04,15.62,2.6,11.23-4.39,22.44-15.62,25.04Z"/></svg>