<?xml version="1.0" encoding="UTF-8"?><svg id="Layer_1" xmlns="http://www.w3.org/2000/svg" viewBox="0 0 200 200"><defs><style>.cls-1{fill:#372721;stroke-width:0px;}</style></defs><path class="cls-1" d="m163.61,133.33c-2.4-5.78-10.36-7.43-17.12-4.62-12.54,5.21-23.37,30.02-30.7,33.07-2.67,1.11-5.98-.49-7.96-5.28-2.71-6.51-2.22-13.68,10.24-28.23,24.5-9.55,39.61-34.95,39.61-64.82,0-21.66-14.55-36.05-38.24-36.05-35.5,0-58.6,26.14-61.04,61.13,1.73,1.45,3.23,3.2,4.44,5.15,3.24-5.22,8.42-8.75,14.19-9.77,4.22-26.26,18.74-52.95,38.01-52.95,16.24,0,24.87,12.18,24.87,28.93,0,31.31-16.24,68.7-38.75,68.7-3.77-.04-7.17-.65-10.16-1.83-1.35,1.52-2.8,3.11-4.29,4.73,2.89.55,5.96.83,9.21.83,5.35,0,10.44-.65,15.24-1.85-15.72,16.33-20.73,26.3-17.68,33.64,2.68,6.48,10.76,8.41,17.1,5.78,8.03-3.33,24.01-21.7,32.61-25.27,4.36-1.82,7.24-.86,8.35,1.82,1.29,3.09-.19,6.68-9.22,16.37l1.35,1.26c18.85-16.26,22.8-23.84,19.94-30.74Z"/><path class="cls-1" d="m96.67,114.82c4.89-8.01,1.35-20.44-7.08-25.63-2.85-1.76-5.98-2.6-9.05-2.6-1.34,0-2.67.16-3.97.47-4.79,1.14-9.13,4.33-11.77,9.22-.91,1.69-1.56,3.47-1.96,5.28-.73-3.36-2.3-6.51-4.63-9.06-1.13-1.27-2.46-2.39-3.96-3.31-2.86-1.76-5.98-2.6-9.06-2.6-6.27,0-12.37,3.47-15.74,9.69-3.2,5.94-3.56,12.85-.39,18.6,3.16,5.75,33.68,37.01,33.68,37.01,0,0,11.04-10.96,20.59-21.19,1.69-1.8,3.32-3.57,4.84-5.26,4.14-4.61,7.43-8.58,8.5-10.62Z"/></svg>