<?xml version="1.0" encoding="UTF-8"?><svg id="Layer_1" xmlns="http://www.w3.org/2000/svg" viewBox="0 0 200 200"><defs><style>.cls-1{fill:#372721;stroke-width:0px;}</style></defs><polygon class="cls-1" points="138.03 49.34 138.03 88 99.8 88 99.8 126.66 61.56 126.66 61.56 165.62 99.8 165.62 100.51 165.62 138.03 165.62 138.75 165.62 176.99 165.62 176.99 126.96 176.99 126.66 176.99 88.3 176.99 88 176.99 49.34 138.03 49.34"/><circle class="cls-1" cx="117.38" cy="75.69" r="11.93"/><path class="cls-1" d="m28.86,160.89c-.74,0-1.46-.42-1.8-1.13-.24-.51-6-12.6-8.73-26.94-3.71-19.51.16-33.64,11.19-40.86,4.75-3.11,9.94-4.02,15.44-2.71,10.12,2.41,19.26,11.95,25.17,19.58-5.31-21.22-13.13-64.5,8.26-74.22,5.52-2.51,10.92-2.52,16.06-.04,16.51,7.96,24.54,39.32,24.87,40.65.27,1.07-.38,2.16-1.45,2.43-1.07.27-2.16-.38-2.43-1.45-.08-.31-7.9-30.88-22.73-38.03-4.07-1.96-8.22-1.94-12.67.08-12.68,5.76-12.88,27.21-10.82,44.19,2.3,18.95,7.92,36.7,7.98,36.88.31.97-.16,2.02-1.1,2.44-.94.41-2.03.06-2.54-.83-.14-.24-14.07-24.09-29.54-27.78-4.44-1.06-8.47-.35-12.32,2.17-23.43,15.34-1.27,62.26-1.04,62.73.48,1,.06,2.19-.94,2.67-.28.13-.57.2-.86.2Z"/></svg>