<?xml version="1.0" encoding="UTF-8"?><svg id="Layer_1" xmlns="http://www.w3.org/2000/svg" viewBox="0 0 200 200"><defs><style>.cls-1{fill:#372721;stroke-width:0px;}</style></defs><circle class="cls-1" cx="85.36" cy="129.71" r="8.59"/><circle class="cls-1" cx="111.15" cy="129.71" r="8.59"/><circle class="cls-1" cx="136.93" cy="129.71" r="8.59"/><circle class="cls-1" cx="109.67" cy="75.6" r="8.59"/><circle class="cls-1" cx="83.89" cy="75.6" r="8.59"/><circle class="cls-1" cx="58.1" cy="75.6" r="8.59"/><path class="cls-1" d="m184.81,153.12c-.1-.07-.21-.13-.32-.19l-18.49-8.38c-.24-.22-.38-.53-.38-.86v-42.09c0-2.73-2.22-4.95-4.95-4.95h-22.36v-49.15c0-2.73-2.22-4.95-4.95-4.95H34.37c-2.73,0-4.95,2.22-4.95,4.95v42.09c0,.33-.14.64-.38.86l-18.49,8.38c-.11.05-.22.11-.32.19-1.78,1.28-2.5,3.45-1.83,5.54s2.52,3.44,4.72,3.44h43.6v49.15c0,2.73,2.22,4.96,4.96,4.96h120.24c2.19,0,4.04-1.35,4.72-3.44.67-2.09-.04-4.26-1.82-5.54Zm-126.2-48.92s0,0,0,0H13.12c-.77,0-1.03-.57-1.11-.81-.07-.23-.18-.78.31-1.21l18.49-8.38c.11-.05.22-.11.32-.19,1.29-.93,2.07-2.43,2.07-4.03v-42.09c0-.65.52-1.17,1.17-1.17h98.99c.64,0,1.17.52,1.17,1.17v55.54c0,.64-.52,1.17-1.17,1.17H58.62s0,0,0,0Zm124.42,53.29c-.08.24-.34.81-1.11.81H61.68c-.65,0-1.17-.53-1.17-1.17v-49.15h72.86c2.73,0,4.95-2.22,4.95-4.95v-2.6h22.36c.64,0,1.16.52,1.16,1.16v42.09c0,1.59.77,3.1,2.07,4.03.1.07.21.13.32.19l18.5,8.39c.49.43.38.98.31,1.21Z"/><path class="cls-1" d="m190.77,99.2h-13.23c-1.05,0-1.89.85-1.89,1.89s.85,1.89,1.89,1.89h13.23c1.05,0,1.89-.85,1.89-1.89s-.85-1.89-1.89-1.89Z"/><path class="cls-1" d="m172.91,91.63c.48,0,.97-.18,1.34-.55l9.35-9.35c.74-.74.74-1.94,0-2.68-.74-.74-1.94-.74-2.68,0l-9.35,9.35c-.74.74-.74,1.94,0,2.68.37.37.85.55,1.34.55Z"/><path class="cls-1" d="m161.6,86.88c1.05,0,1.89-.85,1.89-1.89v-13.23c0-1.05-.85-1.89-1.89-1.89s-1.89.85-1.89,1.89v13.23c0,1.05.85,1.89,1.89,1.89Z"/><path class="cls-1" d="m29.38,120.39c0-1.05-.85-1.89-1.89-1.89h-13.23c-1.05,0-1.89.85-1.89,1.89s.85,1.89,1.89,1.89h13.23c1.05,0,1.89-.85,1.89-1.89Z"/><path class="cls-1" d="m30.78,130.41l-9.35,9.35c-.74.74-.74,1.94,0,2.68.37.37.85.55,1.34.55s.97-.18,1.34-.55l9.35-9.35c.74-.74.74-1.94,0-2.68-.74-.74-1.94-.74-2.68,0Z"/><path class="cls-1" d="m43.43,134.61c-1.05,0-1.89.85-1.89,1.89v13.23c0,1.05.85,1.89,1.89,1.89s1.89-.85,1.89-1.89v-13.23c0-1.05-.85-1.89-1.89-1.89Z"/></svg>