<?xml version="1.0" encoding="UTF-8"?><svg id="Layer_1" xmlns="http://www.w3.org/2000/svg" viewBox="0 0 200 200"><defs><style>.cls-1{fill:#372721;stroke-width:0px;}</style></defs><path class="cls-1" d="m114.91,51.06c.18.05.36.07.53.07.88,0,1.68-.58,1.93-1.47l5.9-21.41c.29-1.06-.33-2.17-1.4-2.46-1.07-.3-2.17.33-2.46,1.4l-5.9,21.41c-.29,1.06.33,2.17,1.4,2.46Z"/><path class="cls-1" d="m81.13,50.15c.29.82,1.06,1.33,1.89,1.33.22,0,.45-.04.67-.12,1.04-.37,1.59-1.51,1.22-2.55l-7.42-20.93c-.37-1.04-1.51-1.59-2.55-1.22-1.04.37-1.59,1.51-1.22,2.55l7.42,20.93Z"/><path class="cls-1" d="m49.38,61.57c.37.63,1.04.98,1.72.98.35,0,.7-.09,1.02-.28.95-.56,1.26-1.79.7-2.74l-11.33-19.1c-.56-.95-1.79-1.26-2.74-.7-.95.56-1.26,1.79-.7,2.74l11.33,19.1Z"/><path class="cls-1" d="m146.42,62.27c.32.19.67.28,1.02.28.68,0,1.35-.35,1.72-.98l11.33-19.1c.56-.95.25-2.18-.7-2.74-.95-.57-2.18-.25-2.74.7l-11.33,19.1c-.56.95-.25,2.18.7,2.74Z"/><path class="cls-1" d="m83.64,153.88c-1.07-.3-2.17.33-2.46,1.4l-5.9,21.41c-.29,1.06.33,2.17,1.4,2.46.18.05.36.07.53.07.88,0,1.68-.58,1.93-1.47l5.9-21.41c.29-1.06-.33-2.17-1.4-2.46Z"/><path class="cls-1" d="m117.42,154.78c-.37-1.04-1.51-1.58-2.55-1.22-1.04.37-1.59,1.51-1.22,2.55l7.42,20.93c.29.82,1.06,1.33,1.89,1.33.22,0,.45-.04.67-.12,1.04-.37,1.59-1.51,1.22-2.55l-7.42-20.93Z"/><path class="cls-1" d="m149.16,143.36c-.56-.95-1.79-1.26-2.74-.7-.95.56-1.26,1.79-.7,2.74l11.33,19.1c.37.63,1.04.98,1.72.98.35,0,.7-.09,1.02-.28.95-.56,1.26-1.79.7-2.74l-11.33-19.1Z"/><path class="cls-1" d="m52.12,142.66c-.95-.57-2.18-.25-2.74.7l-11.33,19.1c-.56.95-.25,2.18.7,2.74.32.19.67.28,1.02.28.68,0,1.35-.35,1.72-.98l11.33-19.1c.56-.95.25-2.18-.7-2.74Z"/><path class="cls-1" d="m183.8,99.25c-18.99-25.96-49.49-41.46-81.59-41.46s-62.6,15.5-81.59,41.46c-.51.7-.51,1.66,0,2.36,18.99,25.96,49.49,41.46,81.59,41.46s62.6-15.5,81.59-41.46c.51-.7.51-1.66,0-2.36Zm-159.08,1.18c14.98-19.84,37.06-33.1,61.22-37.25-14.35,6.27-24.38,20.59-24.38,37.25s10.03,30.97,24.38,37.25c-24.17-4.15-46.24-17.41-61.22-37.25Zm76.67,19.64c-11,0-19.92-8.92-19.92-19.92s8.92-19.92,19.92-19.92,19.92,8.92,19.92,19.92-8.92,19.92-19.92,19.92Zm17.08,17.61c14.35-6.27,24.38-20.59,24.38-37.25s-10.03-30.97-24.38-37.25c24.17,4.15,46.24,17.41,61.22,37.25-14.98,19.84-37.05,33.1-61.22,37.25Z"/></svg>