<?xml version="1.0" encoding="UTF-8"?><svg id="Layer_1" xmlns="http://www.w3.org/2000/svg" viewBox="0 0 200 200"><defs><style>.cls-1{fill:#372721;stroke-width:0px;}</style></defs><path class="cls-1" d="m63.51,89.42c1.76,2.05,4.68,3.14,8.45,3.14.57,0,1.15-.03,1.74-.08l-9.11-4.91c-.64.25-1.27.49-1.91.72.25.4.52.77.83,1.13Z"/><path class="cls-1" d="m99.99,171.39v-59.92l-26.65,53.69c8.09,3.87,17.12,6.08,26.65,6.22Z"/><path class="cls-1" d="m101.99,171.39c34.66-.53,62.65-28.52,63.18-63.18h-63.18v63.18Z"/><path class="cls-1" d="m83.35,97.69c-1.31.43-2.59.79-3.85,1.09-2.66.62-5.2.94-7.57.94-5.89,0-10.68-1.95-13.84-5.65-1.15-1.34-2.06-2.86-2.72-4.54-3.91,1-7.45,1.51-10.54,1.51-.29,0-.58,0-.86-.01-1.81-.06-3.44-.31-4.92-.72-.09.32-.18.64-.26.97-1.3,5.09-1.99,10.43-1.99,15.93,0,24.85,14.12,46.38,34.77,57.05l28.44-57.29v-.31l-15.44-8.33-1.19-.64Z"/><path class="cls-1" d="m41.3,83.52c.84.2,1.8.33,2.88.37.2,0,.39,0,.59,0,2.44,0,5.23-.38,8.31-1.14,0-.46.01-.92.03-1.39l-8.64-4.66c-1.19,2.19-2.25,4.47-3.17,6.81Z"/><path class="cls-1" d="m90.53,87.83v-14.54c-3.8,2.77-8.01,5.45-12.37,7.87l11.4,6.15.97.52Z"/><path class="cls-1" d="m165.17,106.2c-.52-33.88-27.26-61.39-60.83-63.12.32.23.62.47.9.73,2.04,1.85,6.01,7.2-1.12,16.79-.9,1.2-1.95,2.44-3.14,3.69v18.51c-9.89,6.72-17.99,10.15-24.3,11.3-1.7.31-3.28.47-4.72.47-4.65,0-7.97-1.5-9.97-3.84-.92-1.08-1.61-2.28-2.07-3.58.77-.26,1.56-.54,2.34-.83,4.57-1.68,9.26-3.83,13.8-6.28,5.16-2.79,10.12-5.95,14.47-9.22,4.19-3.15,7.8-6.4,10.46-9.49.55-.64,1.06-1.28,1.53-1.91,5.94-7.98,3.41-12.27,1.38-14.12-.81-.74-1.8-1.32-2.91-1.76-1.72-.68-3.76-1.01-5.99-1.01-1.42,0-2.93.13-4.47.39v-19.3c-24.43,0-45.66,13.64-56.52,33.72l5.47,2.95.9.48.92.49c-5.12,6.03-12.92,16.93-8.71,23.4,1.5,2.3,3.76,3.85,6.72,4.67,1.41.39,2.96.63,4.69.69.27,0,.55.01.83.01,3.36,0,7.16-.62,11.17-1.71.62,1.88,1.57,3.59,2.85,5.09,3,3.5,7.52,5.3,13.08,5.3,2.28,0,4.74-.3,7.34-.91.93-.22,1.88-.49,2.84-.78,5.78-1.76,12.09-4.85,18.88-9.24v18.43h64.18Zm-110.09-23.77c0,.63.03,1.24.09,1.85-3.77,1.04-7.3,1.61-10.4,1.61-.22,0-.43,0-.65,0-1.32-.04-2.49-.21-3.54-.49-2.06-.55-3.59-1.54-4.53-2.99-2.37-3.64,3.17-12.44,8.97-19.12l.9.48.9.49,9.28,5.01.87.47.9.49c-1.85,4.24-2.81,8.41-2.8,12.22Zm6.48-10.23l.87.47.91.49,6.18,3.33c7.74-3.84,15.31-8.72,21.01-13.55v-15.8c1.6-.3,3.12-.45,4.5-.45,2.63,0,4.74.54,5.96,1.56.04.03.09.06.12.1,1.53,1.39.94,3.69-.12,5.75-.55,1.05-1.21,2.05-1.79,2.82-2.04,2.74-5.05,5.69-8.67,8.62-5.33,4.32-11.98,8.59-18.86,12.1-4.17,2.13-8.43,3.98-12.51,5.38-.13-3.36.77-7.08,2.4-10.84Z"/></svg>