<?xml version="1.0" encoding="UTF-8"?><svg id="Layer_1" xmlns="http://www.w3.org/2000/svg" viewBox="0 0 200 200"><defs><style>.cls-1{fill:#372721;stroke-width:0px;}</style></defs><path class="cls-1" d="m142.17,67.34c5.67-9.29,1.56-23.7-8.2-29.72-10.06-6.2-22.93-2.52-28.74,8.22-1.06,1.96-1.81,4.02-2.27,6.12-1.28-5.83-4.72-11.11-9.96-14.34-10.06-6.2-22.93-2.52-28.74,8.22-3.72,6.88-4.13,14.89-.46,21.56,3.67,6.67,39.05,42.91,39.05,42.91,0,0,35.07-34.81,39.33-42.97Z"/><path class="cls-1" d="m94.97,122.33c3.16-5.18.87-13.22-4.58-16.58-5.62-3.46-12.8-1.41-16.04,4.59-.59,1.09-1.01,2.24-1.27,3.41-.71-3.25-2.63-6.2-5.56-8-5.62-3.46-12.8-1.41-16.04,4.59-2.08,3.84-2.31,8.31-.26,12.03,2.05,3.72,21.79,23.94,21.79,23.94,0,0,19.57-19.42,21.95-23.98Z"/><path class="cls-1" d="m132.27,151.45c2.43-3.98.67-10.16-3.52-12.74-4.32-2.66-9.83-1.08-12.33,3.53-.45.84-.78,1.72-.97,2.62-.55-2.5-2.02-4.76-4.27-6.15-4.32-2.66-9.83-1.08-12.33,3.53-1.6,2.95-1.77,6.38-.2,9.24s16.74,18.4,16.74,18.4c0,0,15.04-14.93,16.87-18.43Z"/><path class="cls-1" d="m70.54,165.37c-8.72,0-15.32-1.75-19.12-5.31-2.33-2.18-4.7-6.13-2.77-12.55,4.92-16.39,32.86-25.07,59.88-33.45,24.15-7.5,49.12-15.25,47.45-26.95-.31-2.16-1.37-3.79-3.24-4.96-6.82-4.27-24.72-2.38-47.86,5.07-1.05.34-2.18-.24-2.52-1.29-.34-1.05.24-2.18,1.29-2.52,14.46-4.65,40.35-11.44,51.21-4.65,2.89,1.81,4.6,4.43,5.08,7.78,2.15,15.07-23.29,22.97-50.22,31.33-24.81,7.7-52.93,16.43-57.23,30.78-1.09,3.63-.54,6.4,1.67,8.48,6.67,6.25,29.31,6.61,64.83-6.65,1.04-.39,2.19.14,2.57,1.17.39,1.03-.14,2.19-1.17,2.57-19.71,7.36-37.05,11.13-49.84,11.13Z"/></svg>