<?xml version="1.0" encoding="UTF-8"?>
<svg id="Layer_1" xmlns="http://www.w3.org/2000/svg" viewBox="0 0 200 200">
  <defs>
    <style>
      .cls-1 {
        fill: #372721;
        stroke-width: 0px;
      }
    </style>
  </defs>
  <path class="cls-1"
    d="m172.42,95.44c0-.05-.01-.1-.02-.15-.24-36.51-29.91-66.22-66.5-66.39h0s-.01,0-.02,0h0c-.07,0-.15,0-.22,0-.03,0-.05,0-.08,0-17.71.01-34.44,6.86-47.05,19.36-12.68,12.57-19.71,29.32-19.79,47.17,0,0,0,0,0,0,0,0,0,0,0,0,0,0,0,0,0,0-.02,3.87.31,7.68.94,11.41-7.51-.78-15.11,3.04-19.12,10.47-3.51,6.49-3.9,14.04-.44,20.32,3.46,6.29,36.81,40.45,36.81,40.45,0,0,10.92-10.84,20.97-21.52,8.49,3.87,17.77,5.94,27.38,5.98.1,0,.2,0,.31,0,.02,0,.05,0,.07,0,0,0,0,0,0,0,0,0,0,0,0,0,.05,0,.1,0,.15,0,.01,0,.03,0,.04,0,.02,0,.03,0,.05,0,17.61-.08,34.18-6.94,46.71-19.36,12.68-12.57,19.71-29.32,19.79-47.17,0-.16,0-.32-.01-.48,0-.03.01-.07.01-.1Zm-16.32,37.67c-.06-.05-.11-.1-.18-.14-.57-.36-8.36-5.19-19.66-9.38,2.75-7.57,4.6-16.28,4.83-26.15h27.28c-.35,13.02-4.62,25.37-12.28,35.67Zm-113.29-39.67c.5-14.03,5.56-27.24,14.49-37.92,2.28,1.36,9.51,5.47,19.28,9-3.39,8.18-5.78,17.81-6.11,28.92h-27.66Zm37.55-27.63c7,2.25,15.02,4.05,23.31,4.36v23.27h-29.22c.34-10.63,2.65-19.83,5.91-27.63Zm27.51,4.39c8.51-.21,16.6-2.01,23.6-4.3,3.18,7.76,5.4,16.93,5.64,27.55h-29.23v-23.24Zm0-4v-31.44c4.99,3.83,15.04,12.84,21.96,27.42-6.59,2.14-14.13,3.81-21.96,4.02Zm-4.2-.03c-7.62-.31-15.07-1.97-21.65-4.07,6.9-14.35,16.72-23.37,21.65-27.27v31.34Zm0,31.27v19.97c-3.3.06-6.54.35-9.69.82-1.75-3.51-4.37-6.6-7.69-8.65-3.52-2.17-7.41-3.05-11.18-2.79-.39-2.98-.63-6.1-.68-9.35h29.24Zm-9.65,40.15c2.74-4.48,3.04-10.23,1.47-15.53,2.68-.37,5.41-.6,8.18-.65v35.29c-3.17-2.44-8.4-6.98-13.57-13.72,1.88-2.28,3.27-4.16,3.91-5.39Zm13.86-16.12c8.2.38,16.19,2.26,23.16,4.57-6.9,16.29-17.86,26.39-23.16,30.59v-35.16Zm0-4.01v-20.02h29.23c-.23,9.37-2,17.64-4.6,24.83-7.33-2.44-15.82-4.42-24.63-4.8Zm33.23-24.02c-.24-11.12-2.54-20.72-5.86-28.87,9.44-3.51,16.33-7.61,18.59-9.04,8.64,10.36,14.02,23.53,14.53,37.91h-27.27Zm10.02-40.94c-2.59,1.57-9.01,5.22-17.5,8.36-6.42-13.69-15.49-22.79-21.24-27.6,15.19,1.64,28.75,8.73,38.74,19.24Zm-51.74-19.31c-5.64,4.8-14.68,13.94-21.17,27.61-8.73-3.14-15.45-6.76-18.18-8.33.44-.46.87-.92,1.32-1.37,10.37-10.28,23.69-16.51,38.03-17.91Zm-56.59,64.25h27.64c.05,3.49.3,6.85.73,10.05-4.87,1.42-9.25,4.8-11.97,9.84-1,1.85-1.7,3.79-2.14,5.77-1.21-5.5-4.45-10.47-9.39-13.52-1.22-.75-2.48-1.34-3.76-1.79-.65-3.38-1.02-6.84-1.11-10.35Zm44.68,48.65c4.27,5.44,8.54,9.47,11.75,12.15-6.41-.64-12.61-2.25-18.43-4.75,2.41-2.6,4.69-5.12,6.67-7.4Zm62.35-5.74c-10.27,10.18-23.42,16.38-37.59,17.85,6.09-5.19,16.07-15.4,22.57-30.85,10.27,3.81,17.6,8.15,18.81,8.88-1.2,1.42-2.45,2.79-3.79,4.11Z" />
</svg>
