<?xml version="1.0" encoding="UTF-8"?><svg id="Layer_1" xmlns="http://www.w3.org/2000/svg" viewBox="0 0 200 200"><defs><style>.cls-1{fill:#372721;stroke-width:0px;}</style></defs><path class="cls-1" d="m179.99,75.15c.33-.11.5-.48.36-.8l-3.9-9.09-3.9-9.09c-.14-.32-.52-.46-.83-.29l-38.45,20.84c-10.29-18.69-29.51-31.97-52.37-33.65h0c-35.92-2.64-67.19,24.33-69.83,60.25h0c-2.64,35.92,24.33,67.19,60.25,69.83h0c35.92,2.64,67.19-24.33,69.83-60.25.62-8.43-.41-16.59-2.78-24.2l41.62-13.57Zm-57.36,36.4h0c-1.89,25.7-24.26,44.99-49.95,43.1h0c-25.7-1.89-44.99-24.26-43.1-49.95h0c1.89-25.7,24.26-44.99,49.95-43.1h0c16.31,1.2,30.04,10.66,37.41,23.98l-16.39,8.89c-4.44-7.93-12.65-13.55-22.39-14.27h0c-15.42-1.14-28.85,10.45-29.98,25.87h0c-1.14,15.42,10.45,28.85,25.87,29.98h0c15.42,1.14,28.85-10.45,29.98-25.87h0c.25-3.45-.13-6.79-1.05-9.93l17.73-5.78c1.65,5.37,2.35,11.13,1.92,17.08Zm-46.33-2.6l10.68-3.48c.27,1.11.38,2.28.29,3.48-.45,6.17-5.83,10.81-12,10.35h0c-6.17-.45-10.81-5.83-10.35-12h0c.45-6.17,5.83-10.81,12-10.35,3.82.28,7.05,2.45,8.85,5.52l-9.94,5.39c-.64.35-.22,1.32.47,1.09Z"/><path class="cls-1" d="m144.06,62.03c.2.07.4.1.6.1.74,0,1.43-.46,1.69-1.19l8.57-24.14c.33-.93-.16-1.96-1.09-2.29-.93-.33-1.96.16-2.29,1.09l-8.57,24.14c-.33.93.16,1.96,1.09,2.29Z"/><path class="cls-1" d="m160.73,53.9c.2.07.4.1.6.1.74,0,1.43-.46,1.69-1.19l8.57-24.14c.33-.93-.16-1.96-1.09-2.29-.93-.33-1.96.16-2.29,1.09l-8.57,24.14c-.33.93.16,1.96,1.09,2.29Z"/><path class="cls-1" d="m175.65,103.06l-21.27-14.28c-.82-.55-1.93-.33-2.49.49-.55.82-.33,1.94.49,2.49l21.27,14.28c.31.21.65.3,1,.3.58,0,1.14-.28,1.49-.79.55-.82.33-1.94-.49-2.49Z"/><path class="cls-1" d="m193.88,99.65l-21.27-14.28c-.82-.55-1.93-.33-2.49.49-.55.82-.33,1.94.49,2.49l21.27,14.28c.31.21.65.3,1,.3.58,0,1.14-.28,1.49-.79.55-.82.33-1.94-.49-2.49Z"/></svg>