<?xml version="1.0" encoding="UTF-8"?><svg id="Layer_1" xmlns="http://www.w3.org/2000/svg" viewBox="0 0 200 200"><defs><style>.cls-1{fill:#372721;stroke-width:0px;}</style></defs><path class="cls-1" d="m185.1,95.22l11.44-14.99-4.4-3.36-11.27,14.76c-3.02-1.64-6.64-2.14-10.2-1.12-1.63.47-3.1,1.24-4.39,2.2l-1.2-1.58-4.4,3.36,1.89,2.48c-.8,1.45-1.34,3.05-1.57,4.72h-22.65c-.5-10.09-5.06-19.11-12.07-25.47l20.14-18.91c2.3,1.85,5.22,2.96,8.41,2.96,7.43,0,13.46-6.03,13.46-13.46s-6.03-13.46-13.46-13.46-13.46,6.03-13.46,13.46c0,2.88.91,5.54,2.45,7.73l-20.51,19.26c-6.1-4.48-13.63-7.13-21.78-7.13-10.09,0-19.24,4.06-25.9,10.63l-19.77-18.93c3.06-3.36,4.38-8.18,3.03-12.86-.48-1.71-1.29-3.24-2.32-4.57l11.44-14.99-4.4-3.36-11.27,14.76c-3.02-1.64-6.64-2.14-10.2-1.12-1.63.47-3.1,1.24-4.39,2.2l-1.2-1.58-4.4,3.36,1.89,2.48c-.8,1.45-1.34,3.05-1.57,4.72-.18,1.24-.18,2.52.02,3.81.09.59.21,1.18.38,1.77,2.06,7.17,9.57,11.33,16.74,9.27,1.19-.34,2.29-.83,3.29-1.45l20.16,19.3c-4.88,5.92-7.95,13.4-8.36,21.58h-26.62c-.87-6.6-6.5-11.7-13.33-11.7-7.43,0-13.46,6.03-13.46,13.46s6.03,13.46,13.46,13.46c6.74,0,12.3-4.96,13.29-11.42h26.67c.39,7.53,3.04,14.47,7.29,20.14l-22.07,20.72c-2.2-1.57-4.89-2.51-7.8-2.51-7.43,0-13.46,6.03-13.46,13.46s6.03,13.46,13.46,13.46,13.46-6.03,13.46-13.46c0-3.15-1.09-6.03-2.9-8.33l21.76-20.42c6.74,7.3,16.38,11.87,27.1,11.87,9.08,0,17.38-3.29,23.81-8.72l18.57,17.77c-1.58,2.21-2.53,4.91-2.53,7.83,0,7.43,6.03,13.46,13.46,13.46s13.46-6.03,13.46-13.46-6.03-13.46-13.46-13.46c-3.14,0-6.01,1.08-8.3,2.88l-18.42-17.63c5.95-6.19,9.77-14.45,10.24-23.6h22.68c.09.59.21,1.18.38,1.77,2.06,7.17,9.57,11.33,16.74,9.27,7.17-2.05,11.34-9.57,9.28-16.74-.48-1.71-1.29-3.24-2.32-4.57ZM42.9,38.94c2.66-.77,5.38-.44,7.69.69l-5.94,7.78-.03.04-.03-.04-5.16-6.75c1.02-.76,2.18-1.36,3.46-1.73Zm7.87,19.85c-.61.32-1.26.58-1.94.78-5.69,1.63-11.64-1.66-13.28-7.35-.09-.33-.17-.67-.23-.99-.24-1.28-.24-2.57-.02-3.81.13-.76.34-1.5.64-2.21l1.68,2.21,2.91,3.81,1.88,2.47c.53.69,1.34,1.09,2.21,1.09.54,0,1.06-.15,1.5-.45.27-.17.49-.39.69-.65l1.75-2.28,6.2-8.13c.61.9,1.08,1.91,1.4,3.01,1.06,3.69.05,7.49-2.35,10.15-.85.95-1.87,1.76-3.05,2.35Zm61.22,70.67l-.51-.48c3.42-3.67,3.98-5.03,3.49-6.2-.42-1.01-1.51-1.38-3.16-.69-3.25,1.35-9.31,8.31-12.35,9.57-2.4,1-5.46.26-6.48-2.19-1.15-2.78.75-6.56,6.7-12.74-1.82.46-3.74.7-5.77.7-8.84,0-14.29-5.51-14.29-14.23,0-14.42,8.97-25.51,23.2-25.51,8.97,0,14.48,5.45,14.48,13.65,0,11.32-5.72,20.93-15,24.55-4.72,5.51-4.9,8.23-3.88,10.69.75,1.81,2,2.42,3.02,2,2.78-1.15,6.88-10.55,11.62-12.52,2.56-1.06,5.57-.44,6.48,1.75,1.09,2.61-.41,5.49-7.55,11.64Zm59.46-36.24c2.66-.77,5.38-.44,7.69.69l-5.94,7.78-.03.04-.03-.04-5.16-6.75c1.02-.76,2.18-1.36,3.46-1.73Zm5.93,20.63c-5.69,1.63-11.64-1.66-13.28-7.35-.1-.33-.17-.67-.23-.99-.24-1.28-.24-2.57-.02-3.81.13-.76.34-1.5.64-2.21l1.68,2.21,2.91,3.81,1.88,2.47c.53.69,1.34,1.09,2.21,1.09s1.67-.4,2.2-1.09l7.95-10.42c.61.9,1.08,1.91,1.4,3.01,1.64,5.69-1.66,11.64-7.34,13.28Z"/><path class="cls-1" d="m110.57,90c0-6.34-3.27-10.96-9.42-10.96-8.72,0-14.87,14.42-14.87,25.76,0,7.11,3.52,11.15,9.61,11.21,8.52,0,14.68-14.16,14.68-26.02Z"/></svg>