<?xml version="1.0" encoding="UTF-8"?><svg id="Layer_1" xmlns="http://www.w3.org/2000/svg" viewBox="0 0 200 200"><defs><style>.cls-1{fill:#372721;stroke-width:0px;}</style></defs><path class="cls-1" d="m114.64,49.57h-2.88c-.88,3.88-1.75,7.76-2.63,11.76-18.77.75-28.78,12.51-28.78,23.9,0,8.13,9.51,12.89,18.77,17.27-2.13,8.76-4.38,17.52-6.63,26.15-12.51-1-19.4-5.63-17.02-24.03h-2.13c-1.75,8.26-3.5,17.02-6.38,25.65,4,3.5,12.01,8.39,22.78,8.51-1.13,4.51-2.38,9.01-3.63,13.52h3.25c1-4.51,2-9.01,3-13.64,16.02-1.25,31.29-17.4,31.29-28.53,0-8.51-10.64-12.01-21.02-14.77,1.88-7.51,3.75-15.02,5.76-22.4,13.39.25,16.27,2.88,13.14,19.27h2.13c2.38-11.64,3.88-18.77,6.38-27.91-3.75-1.5-11.26-2.88-18.52-3,1-4,2.13-7.88,3.13-11.76Zm2.38,67.33c0,7.88-4.88,12.01-17.27,12.01-1.75,0-3.5,0-5.13-.13,1.88-8.39,3.88-17.02,6.01-25.53,8.51,4,16.39,7.76,16.39,13.64Zm-16.02-21.9c-9.39-2.5-18.27-4.5-18.27-9.39,0-6.13,8.13-12.51,23.65-12.64-1.75,7.26-3.5,14.64-5.38,22.03Z"/><path class="cls-1" d="m99.29,30.2c-38.5,0-69.82,31.32-69.82,69.82s31.32,69.82,69.82,69.82,69.82-31.32,69.82-69.82S137.78,30.2,99.29,30.2Zm0,135.63c-36.29,0-65.82-29.52-65.82-65.82S63,34.2,99.29,34.2s65.82,29.53,65.82,65.82-29.52,65.82-65.82,65.82Z"/></svg>